<svg width="231" height="63" viewBox="0 0 231 63" fill="none" xmlns="http://www.w3.org/2000/svg">
<path id="&#236;&#134;&#140;&#237;&#134;&#181;&#237;&#149;&#152;&#235;&#138;&#148; &#236;&#155;&#185; &#237;&#141;&#188;&#235;&#184;&#148;&#235;&#166;&#172;&#236;&#133;&#148;" d="M7.22896 50.1788C7.20468 49.9012 7.32029 49.6241 7.57582 49.3474C7.85659 49.0685 8.05123 48.8226 8.15975 48.6097C8.42506 48.1542 8.63058 47.742 8.77633 47.3733C8.94732 47.0023 9.08045 46.6346 9.17572 46.2702C9.29402 45.8784 9.3986 45.4751 9.48946 45.0603C9.58032 44.6455 9.69089 44.1653 9.82118 43.6199C9.87702 43.3861 9.94927 43.0492 10.0379 42.6092C10.1496 42.1417 10.2476 41.6626 10.3318 41.1721C10.416 40.6815 10.4898 40.2173 10.5533 39.7795C10.6397 39.3142 10.6971 38.9531 10.7255 38.6964C10.7451 38.3386 10.8903 38.1098 11.1613 38.0098C11.4553 37.8823 11.7434 37.8317 12.0254 37.8579C12.3579 37.8796 12.5812 37.9618 12.6954 38.1044C12.8348 38.2448 12.9167 38.4538 12.941 38.7314C12.9631 38.9838 12.9462 39.2268 12.8904 39.4606C12.8345 39.6943 12.7935 39.9522 12.7673 40.2342C12.7291 40.6699 12.646 41.1731 12.5179 41.7437C12.4129 42.287 12.2837 42.845 12.1304 43.4179C12.0023 43.9885 11.849 44.5614 11.6704 45.1365C11.5171 45.7094 11.372 46.2307 11.235 46.7004C11.1398 47.0648 11.039 47.366 10.9327 47.6042C10.8264 47.8424 10.6899 48.1722 10.5233 48.5936C10.6726 48.5551 10.8849 48.5111 11.1603 48.4616C11.4609 48.4099 11.7615 48.3582 12.0622 48.3064C12.3858 48.2272 12.698 48.1618 12.9986 48.1101C13.297 48.0331 13.5209 47.9754 13.6701 47.9369C14.2417 47.7851 14.8166 47.6713 15.3949 47.5953C15.9709 47.494 16.587 47.4147 17.2432 47.3573L19.0602 47.1983C19.2621 47.1806 19.4224 47.2683 19.541 47.4614C19.6596 47.6544 19.7266 47.8393 19.7421 48.016C19.7531 48.1422 19.7263 48.2717 19.6616 48.4045C19.5948 48.512 19.5246 48.5817 19.4511 48.6136C18.1861 48.9786 16.9166 49.2931 15.6428 49.5571C14.392 49.7937 13.133 50.0819 11.8658 50.4216C11.5926 50.4964 11.2964 50.5986 10.9771 50.7282C10.6557 50.8326 10.3342 50.937 10.0127 51.0414C9.71652 51.1437 9.40658 51.2343 9.08292 51.3135C8.7867 51.4157 8.49868 51.4664 8.21887 51.4654C7.55829 51.4723 7.22832 51.0435 7.22896 50.1788ZM2.93627 40.7892C2.99842 40.0463 3.1325 39.3988 3.33851 38.8467C3.56754 38.2672 3.83553 37.697 4.14248 37.1362C4.49549 36.5204 4.90007 35.9128 5.35624 35.3134C5.8124 34.7141 6.30863 34.1366 6.84492 33.5811C7.26606 33.1628 7.73216 32.677 8.24322 32.1237C8.75427 31.5704 9.20885 31.0983 9.60697 30.7074C9.81865 30.5109 10.0199 30.3407 10.2108 30.1969C10.4247 30.0256 10.6934 29.9003 11.0171 29.8212C11.2146 29.753 11.4576 29.7699 11.7463 29.8718C12.058 29.9463 12.2375 30.1086 12.2848 30.3587C12.3255 30.5332 12.2904 30.7142 12.1797 30.9019C12.0942 31.0874 11.9709 31.2762 11.8097 31.4684C11.6463 31.6352 11.4713 31.8158 11.2849 32.0102C11.0962 32.1792 10.9328 32.3461 10.7947 32.5108C11.6133 32.5663 12.3803 32.6136 13.0958 32.6528C13.8343 32.6644 14.4971 32.6828 15.0841 32.7077C16.3614 32.7739 17.6591 32.9274 18.9771 33.1681C19.2866 33.2174 19.6131 33.3159 19.9566 33.4639C20.3232 33.5844 20.5186 33.7835 20.5429 34.0611C20.5738 34.4144 20.4675 34.6526 20.2239 34.7756C19.9782 34.8734 19.6765 34.9125 19.3187 34.8929C18.7569 34.8658 18.2077 34.8376 17.6711 34.8082C17.1323 34.7536 16.583 34.7254 16.0234 34.7235C15.5395 34.715 15.0292 34.696 14.4926 34.6667C13.9791 34.6099 13.5056 34.575 13.0721 34.5621C12.8175 34.5589 12.4861 34.5498 12.0779 34.5346C11.695 34.5173 11.2879 34.5148 10.8566 34.5271C10.4506 34.5371 10.0468 34.5725 9.64526 34.633C9.26891 34.6914 8.96007 34.7947 8.71874 34.943C8.52568 35.0616 8.32331 35.2192 8.11163 35.4157C7.89996 35.6122 7.73654 35.7791 7.6214 35.9163C7.2277 36.3576 6.88668 36.8198 6.59834 37.3028C6.3078 37.7605 6.03208 38.2423 5.77119 38.7483C5.53112 39.2017 5.34862 39.5864 5.22369 39.9025C5.09876 40.2185 4.98756 40.5462 4.89008 40.8853C4.81342 41.1717 4.70821 41.4225 4.57445 41.6376C4.43849 41.8275 4.12854 41.9182 3.64463 41.9097C3.36481 41.9088 3.1656 41.8118 3.04699 41.6187C2.95361 41.4234 2.91671 41.1469 2.93627 40.7892ZM26.1705 45.8133C26.098 45.5654 26.1549 45.3442 26.3414 45.1499C26.5278 44.9556 26.7153 44.7739 26.904 44.6048C27.3526 44.2095 27.7375 43.6672 28.0586 42.978C28.3797 42.2887 28.6192 41.6828 28.7769 41.1604C28.9533 40.5601 29.1006 40.0641 29.2189 39.6723C29.3372 39.2805 29.4796 38.8738 29.6462 38.4524C29.7087 38.2943 29.8386 38.1812 30.0361 38.1131C30.2566 38.0175 30.4689 37.9735 30.673 37.9811C31.0033 37.9776 31.2289 38.085 31.3497 38.3033C31.4936 38.4942 31.5491 38.6928 31.5163 38.8991C31.4901 39.1811 31.4375 39.4527 31.3587 39.7139C31.305 39.9729 31.2273 40.2467 31.1254 40.5354C30.9588 40.9568 30.8131 41.3256 30.6881 41.6417C30.5862 41.9303 30.475 42.258 30.3545 42.6245C30.2712 42.8352 30.166 43.086 30.0389 43.3769C29.9118 43.6677 29.7698 43.9345 29.613 44.1771C30.0585 44.0364 30.4682 43.9242 30.8424 43.8406C31.2395 43.7296 31.6252 43.6323 31.9993 43.5487C32.3735 43.4651 32.7487 43.3941 33.1251 43.3358C33.5244 43.25 33.9628 43.1735 34.4401 43.1063C35.1675 42.9918 35.8226 42.9217 36.4052 42.8962C37.0131 42.8684 37.6139 42.9049 38.2076 43.0055C38.4184 43.0888 38.5139 43.3093 38.4944 43.667C38.4978 43.9973 38.4008 44.1966 38.2034 44.2647C38.0772 44.2757 37.8764 44.306 37.601 44.3555C37.3508 44.4029 37.0754 44.4524 36.7748 44.5041C36.4741 44.5558 36.1861 44.6065 35.9107 44.656C35.6606 44.7033 35.485 44.7314 35.3841 44.7402C35.1109 44.815 34.7378 44.9112 34.265 45.0288C33.7899 45.1213 33.3905 45.2071 33.0668 45.2863C31.9719 45.5601 31.0157 45.8217 30.1983 46.0712C29.4062 46.3186 28.4638 46.5917 27.371 46.8908C27.0978 46.9655 26.8514 46.9108 26.6319 46.7266C26.4101 46.5171 26.2563 46.2127 26.1705 45.8133ZM29.3583 54.3459C29.3482 53.9399 29.3793 53.5685 29.4516 53.2316C29.526 52.9199 29.6153 52.6324 29.7194 52.369C29.761 52.2636 29.8339 52.0792 29.938 51.8158C30.0443 51.5776 30.1484 51.3142 30.2503 51.0256C30.3544 50.7622 30.4597 50.5114 30.566 50.2732C30.6723 50.035 30.7474 49.8759 30.7912 49.7957C30.9019 49.608 31.022 49.3814 31.1513 49.1158C31.3059 48.8479 31.4616 48.5927 31.6184 48.3502C31.8004 48.1054 31.9731 47.8995 32.1365 47.7326C32.3252 47.5636 32.5078 47.4713 32.6845 47.4558C32.9621 47.4315 33.2507 47.5334 33.5504 47.7615C33.8479 47.9644 33.9479 48.2354 33.8504 48.5745C33.811 48.7051 33.7277 48.9158 33.6006 49.2067C33.864 49.3108 34.1247 49.5295 34.3827 49.863C34.666 50.1942 34.845 50.4964 34.9198 50.7696C35.11 51.4905 35.0352 52.2345 34.6955 53.0017C34.3832 53.7919 33.921 54.4681 33.309 55.0302C32.6509 55.6473 31.7957 55.9001 30.7433 55.7887C30.3582 55.7461 30.0295 55.6223 29.7572 55.4173C29.5102 55.21 29.3773 54.8529 29.3583 54.3459ZM32.7223 50.5041C32.628 50.5887 32.492 50.7786 32.3144 51.0739C32.162 51.3669 32.013 51.6978 31.8672 52.0666C31.7215 52.4354 31.5999 52.7893 31.5024 53.1284C31.4071 53.4928 31.3672 53.7633 31.3827 53.94C31.9587 53.8387 32.3865 53.4961 32.666 52.9122C32.9707 52.3261 33.1136 51.7796 33.0947 51.2726C33.0814 51.1212 33.043 50.972 32.9792 50.825C32.943 50.701 32.8573 50.594 32.7223 50.5041ZM24.2135 36.5245C23.9596 35.6567 23.8976 34.6576 24.0276 33.5273C24.0516 33.2201 24.0975 32.8727 24.1653 32.4854C24.2309 32.0727 24.2965 31.6601 24.3622 31.2475C24.4508 30.8074 24.5532 30.3789 24.6693 29.9618C24.7854 29.5448 24.9048 29.1656 25.0275 28.8243C25.1963 28.4281 25.3843 28.1065 25.5915 27.8595C25.8218 27.585 26.1526 27.4416 26.5838 27.4293C26.9394 27.4237 27.1742 27.4921 27.2884 27.6347C27.4026 27.7773 27.4181 27.954 27.3348 28.1647C27.1726 28.6366 27.0335 29.0811 26.9174 29.4981C26.8243 29.8877 26.7001 30.3563 26.5445 30.904C26.8385 30.7765 27.1945 30.631 27.6125 30.4672C28.0535 30.2761 28.4095 30.1305 28.6805 30.0305C29.1215 29.8393 29.613 29.6437 30.155 29.4437C30.697 29.2438 31.24 29.0564 31.7842 28.8816C32.3536 28.7046 32.8989 28.5425 33.42 28.3952C33.9412 28.2479 34.4152 28.1428 34.842 28.0801C35.0921 28.0327 35.4076 28.0051 35.7884 27.9973C36.1691 27.9894 36.3969 28.122 36.4716 28.3952C36.553 28.7441 36.4879 29.0168 36.2762 29.2134C36.0623 29.3847 35.782 29.5236 35.4353 29.6302C34.7189 29.8709 33.9427 30.155 33.1068 30.4824C32.2686 30.7846 31.42 31.1132 30.561 31.4681C29.725 31.7955 28.928 32.1323 28.1699 32.4783C27.4119 32.8244 26.7811 33.172 26.2776 33.5212C26.1779 33.8351 26.1172 34.1583 26.0954 34.4908C26.0967 34.7958 26.1336 35.0723 26.2061 35.3203C26.2699 35.4673 26.3923 35.5583 26.5733 35.5933C26.7522 35.6031 26.9415 35.5865 27.1412 35.5436C27.5405 35.4578 27.8642 35.3787 28.1122 35.3061C28.3831 35.2061 28.6289 35.1083 28.8494 35.0127C29.0951 34.9149 29.3524 34.8034 29.6212 34.6782C29.8899 34.553 30.2207 34.4096 30.6135 34.2481C30.8087 34.1547 31.0062 34.0866 31.2059 34.0437C31.4034 33.9755 31.5893 33.9211 31.7638 33.8804C31.9887 33.8353 32.1479 33.9104 32.2412 34.1057C32.3576 34.2735 32.4225 34.4331 32.4357 34.5845C32.4711 34.9883 32.1382 35.3989 31.4373 35.8162C31.0029 36.0831 30.5421 36.3396 30.0551 36.5856C29.591 36.8042 29.1259 37.0102 28.6596 37.2036C28.2164 37.3695 27.8088 37.5069 27.4369 37.6157C27.0627 37.6993 26.7621 37.7511 26.535 37.7709C26.005 37.8173 25.5304 37.7698 25.1111 37.6285C24.6897 37.4619 24.3905 37.0939 24.2135 36.5245ZM21.9186 26.4261C21.9032 26.2495 21.9519 26.0799 22.0649 25.9174C22.1778 25.755 22.3182 25.6155 22.486 25.4991C22.6516 25.3575 22.8195 25.2411 22.9895 25.1499C23.1595 25.0588 23.2928 24.9835 23.3893 24.9242C23.7064 24.7693 24.1222 24.5804 24.6367 24.3573C25.1512 24.1343 25.7173 23.9195 26.335 23.7129C26.9757 23.4788 27.6449 23.2804 28.3427 23.1176C29.0383 22.9296 29.7142 22.8069 30.3704 22.7495C31.077 22.6877 31.4568 22.9596 31.5098 23.5653C31.5208 23.6915 31.4951 23.8336 31.4327 23.9916C31.368 24.1245 31.2484 24.2112 31.074 24.2519C30.4749 24.3806 29.8287 24.5516 29.1353 24.7648C28.465 24.9506 27.8105 25.1732 27.172 25.4325C26.5313 25.6665 25.9066 25.9373 25.2977 26.2449C24.7119 26.525 24.204 26.8238 23.774 27.1411C23.728 27.196 23.6452 27.2668 23.5256 27.3536C23.4291 27.4129 23.2799 27.4514 23.078 27.469C22.7499 27.4977 22.4761 27.42 22.2565 27.2357C22.06 27.0241 21.9474 26.7542 21.9186 26.4261ZM56.7318 37.6466C56.7163 37.47 56.6965 37.2429 56.6722 36.9652C56.6457 36.6624 56.6203 36.3722 56.596 36.0946C56.597 35.8148 56.5875 35.5613 56.5676 35.3342C56.5477 35.107 56.5367 34.9808 56.5345 34.9556C56.5124 34.7032 56.4908 34.311 56.4697 33.7788C56.4463 33.2213 56.4334 32.6376 56.4309 32.0275C56.4262 31.3921 56.4133 30.8084 56.3921 30.2762C56.394 29.7166 56.4092 29.3084 56.4376 29.0516C56.4887 28.1825 56.5639 27.2986 56.6633 26.3998C56.7627 25.5011 56.9159 24.6358 57.1228 23.8039C57.1622 23.6733 57.2692 23.5876 57.4436 23.5469C57.6159 23.481 57.8282 23.437 58.0805 23.4149C58.3834 23.3884 58.6309 23.4558 58.823 23.617C59.0403 23.776 59.1623 24.0069 59.1888 24.3098C59.2064 24.5116 59.1999 24.7284 59.1693 24.9599C59.164 25.1893 59.1449 25.4071 59.1121 25.6134C58.948 26.645 58.8207 27.6606 58.7302 28.6603C58.6649 29.6578 58.6396 30.6772 58.6544 31.7185C58.6393 32.1267 58.6312 32.4707 58.6303 32.7505C58.6271 33.0051 58.624 33.2597 58.6208 33.5143C58.6429 33.7666 58.6535 34.0327 58.6525 34.3126C58.6494 34.5671 58.6528 34.8974 58.6629 35.3034L58.7755 36.5905C59.3339 36.2874 59.7968 36.0561 60.1643 35.8968C60.5549 35.7101 60.9224 35.5508 61.2669 35.4189C61.6596 35.2574 62.1764 35.0596 62.8171 34.8255C63.4808 34.564 64.1638 34.3771 64.866 34.2648C65.2906 34.1768 65.5507 34.2431 65.6463 34.4636C65.7397 34.6589 65.7321 34.863 65.6236 35.0759C65.5797 35.156 65.5095 35.2257 65.413 35.285C65.3417 35.3421 65.283 35.3981 65.237 35.453C64.9221 35.6331 64.6314 35.7984 64.3649 35.9489C64.0983 36.0994 63.795 36.2658 63.4549 36.4481C62.7265 36.8424 61.9498 37.2664 61.1249 37.72C60.323 38.1462 59.6138 38.6151 58.9974 39.1268C59.0085 39.253 59.019 39.5191 59.0291 39.9251C59.037 40.3059 59.0465 40.5593 59.0575 40.6855L59.1436 41.6698C59.1502 41.7455 59.1613 41.8716 59.1767 42.0483C59.1922 42.225 59.2087 42.4142 59.2264 42.6161C59.2671 42.7906 59.2952 42.9661 59.3106 43.1428C59.3491 43.292 59.3695 43.3792 59.3717 43.4045C59.4102 43.5537 59.4508 43.7281 59.4937 43.9278C59.5597 44.1001 59.6004 44.2745 59.6158 44.4512C59.6291 44.6026 59.6034 44.7447 59.5387 44.8775C59.4993 45.0081 59.3797 45.0949 59.18 45.1378C58.9825 45.2059 58.7417 45.2143 58.4574 45.1628C58.1984 45.1092 57.9904 44.9113 57.8333 44.569C57.6762 44.2267 57.5377 43.8065 57.4179 43.3084C57.3365 42.9595 57.2677 42.6095 57.2116 42.2584C57.1554 41.9073 57.1097 41.5298 57.0743 41.126C57.0699 41.0756 57.0556 40.9115 57.0313 40.6339C57.0048 40.3311 56.9635 40.0041 56.9073 39.653C56.8742 39.2744 56.8422 38.9085 56.8113 38.5552C56.7782 38.1766 56.7517 37.8738 56.7318 37.6466ZM45.1272 42.7816C45.1149 42.3504 45.1426 41.941 45.2105 41.5537C45.2761 41.141 45.3658 40.7136 45.4797 40.2713C45.54 40.088 45.6095 39.8658 45.6884 39.6046C45.7673 39.3434 45.8599 39.0937 45.9662 38.8555C46.0703 38.5921 46.164 38.3551 46.2473 38.1443C46.3283 37.9084 46.4023 37.7366 46.4692 37.629C46.5985 37.3634 46.7706 37.005 46.9855 36.5539C47.2255 36.1006 47.5041 35.7965 47.8211 35.6416C47.9429 35.5801 48.068 35.5565 48.1964 35.5707C48.3226 35.5596 48.412 35.5645 48.4647 35.5853C48.7467 35.6115 48.97 35.6937 49.1347 35.8319C49.3246 35.9678 49.3719 36.218 49.2767 36.5824C49.2186 36.7909 49.1617 37.012 49.1058 37.2458C49.0478 37.4543 48.9804 37.7018 48.9038 37.9882C49.0091 38.0298 49.1041 38.0978 49.1886 38.1921C49.271 38.2612 49.3533 38.3303 49.4356 38.3994C49.7694 38.7262 50.0022 39.0619 50.1341 39.4064C50.2889 39.7234 50.361 40.1113 50.3503 40.57C50.3541 41.4851 50.2206 42.2851 49.9499 42.97C49.6793 43.6548 49.1864 44.2701 48.4712 44.8159C48.2803 44.9597 48.0105 45.0723 47.6616 45.1537C47.3127 45.2351 47.0202 45.2353 46.7843 45.1542C46.2114 45.0009 45.7893 44.6818 45.518 44.1969C45.272 43.7098 45.1417 43.2381 45.1272 42.7816ZM40.7639 36.9457C40.5718 36.7845 40.4647 36.5777 40.4426 36.3253C40.4184 36.0477 40.4605 35.8024 40.569 35.5895C40.6128 35.5094 40.6923 35.4007 40.8075 35.2635C40.9479 35.124 41.0883 34.9846 41.2286 34.8452C41.369 34.7057 41.4979 34.58 41.6152 34.468C41.7556 34.3286 41.8488 34.2314 41.8949 34.1766C42.3709 33.8043 42.841 33.5089 43.305 33.2903C43.7669 33.0464 44.2424 32.8141 44.7317 32.5933C45.4163 32.2791 46.0685 32.0313 46.6884 31.8499C47.3313 31.6411 47.989 31.4564 48.6616 31.2958C48.9139 31.2738 49.2031 31.2358 49.5289 31.1818C49.88 31.1257 50.2323 31.0821 50.5856 31.0512C50.9619 30.9929 51.3279 30.9609 51.6834 30.9552C52.0367 30.9243 52.367 30.9208 52.6742 30.9448C52.8531 30.9546 52.9996 31.0307 53.1138 31.1733C53.2511 31.2885 53.3148 31.4355 53.305 31.6144C53.3183 31.7658 53.2558 31.9238 53.1176 32.0885C53.0047 32.251 52.7853 32.3592 52.4594 32.4131C52.184 32.4626 51.834 32.5314 51.4094 32.6194C51.0078 32.68 50.5821 32.7553 50.1322 32.8456C49.6824 32.9358 49.221 33.0397 48.7481 33.1574C48.2983 33.2476 47.9137 33.3575 47.5945 33.4872C47.273 33.5916 46.9894 33.6927 46.7437 33.7905C46.498 33.8883 46.2544 34.0113 46.0131 34.1596C45.7695 34.2826 45.5145 34.4193 45.2479 34.5698C44.9814 34.7203 44.6791 34.8993 44.3413 35.1069C44.1 35.2551 43.8471 35.4171 43.5828 35.5928C43.3162 35.7433 43.0908 35.9283 42.9066 36.1479C42.628 36.452 42.3955 36.7012 42.2091 36.8955C42.0457 37.0624 41.7725 37.1372 41.3895 37.1198C41.1876 37.1375 40.9791 37.0794 40.7639 36.9457ZM43.7513 27.4913C43.6519 26.3557 43.6843 25.2721 43.8483 24.2405C44.0376 23.2067 44.2659 22.1823 44.5331 21.1671C44.6678 20.6722 45.0506 20.3971 45.6815 20.3419C45.7825 20.3331 45.9509 20.3692 46.1869 20.4503C46.4207 20.5061 46.5475 20.6476 46.5673 20.8747C46.5938 21.1776 46.6044 21.4436 46.599 21.673C46.5937 21.9023 46.5422 22.1866 46.4448 22.5257C46.3933 22.8099 46.3304 23.1079 46.256 23.4195C46.2045 23.7038 46.1279 23.9902 46.026 24.2788C45.8058 24.9593 45.6887 25.6561 45.6748 26.3694C45.6587 27.0574 45.6564 27.757 45.6677 28.468C45.6702 29.0781 45.6661 29.6125 45.6554 30.0712C45.6447 30.5299 45.45 30.7758 45.0715 30.8089C44.9453 30.8199 44.7988 30.7437 44.6319 30.5803C44.465 30.4169 44.3486 30.2491 44.2827 30.0769C44.1189 29.6589 43.9931 29.2376 43.9051 28.813C43.8401 28.3609 43.7888 27.9204 43.7513 27.4913ZM47.2783 42.5171C47.2827 42.5676 47.28 42.6822 47.2703 42.8611C47.2835 43.0125 47.3198 43.1365 47.3791 43.233C47.48 43.2242 47.5914 43.189 47.7132 43.1275C47.8349 43.066 47.9293 42.9815 47.9961 42.8739C48.3163 42.4644 48.5148 42.1165 48.5914 41.83C48.6659 41.5184 48.7178 41.0942 48.7471 40.5576C48.7733 40.2756 48.7523 40.0359 48.6842 39.8384C48.6161 39.6409 48.5238 39.4582 48.4074 39.2904C48.131 39.6198 47.869 40.1131 47.6214 40.7706C47.3968 41.4005 47.2824 41.9827 47.2783 42.5171ZM74.1463 42.9129C74.0447 41.752 74.1813 40.6974 74.5561 39.7492C74.9561 38.7987 75.378 37.8081 75.8219 36.7775C75.8658 36.6974 75.9464 36.6013 76.0637 36.4894C76.1811 36.3774 76.3017 36.3032 76.4257 36.267C76.6232 36.1988 76.8997 36.1619 77.2552 36.1562C77.636 36.1484 77.8741 36.2547 77.9697 36.4752C78.0928 36.7187 78.0666 37.0007 77.8912 37.3212C77.7388 37.6143 77.6084 37.8673 77.4998 38.0802C77.4352 38.213 77.3579 38.347 77.268 38.482C77.1781 38.617 77.0926 38.8025 77.0115 39.0384C76.9304 39.2744 76.8263 39.5378 76.6992 39.8287C76.572 40.1195 76.4608 40.4471 76.3656 40.8115C76.3075 41.02 76.2495 41.2285 76.1914 41.4371C76.1586 41.6434 76.1521 41.8601 76.172 42.0872C76.1985 42.3901 76.316 42.5705 76.5245 42.6286C76.7308 42.6614 76.9958 42.6382 77.3195 42.559C77.9394 42.3776 78.5192 42.1743 79.059 41.9491C79.6239 41.7216 80.1763 41.4953 80.7161 41.2701C81.2789 41.0174 81.8312 40.791 82.3732 40.5911C82.9404 40.3888 83.5235 40.2234 84.1226 40.0947C84.3223 40.0518 84.4792 40.1016 84.5934 40.2442C84.7307 40.3594 84.8081 40.5179 84.8258 40.7198C84.8434 40.9217 84.7969 41.1165 84.6862 41.3042C84.5754 41.4919 84.4087 41.6209 84.186 41.6912C83.9633 41.7616 83.5212 41.9401 82.8596 42.2269C82.1981 42.5136 81.5009 42.8289 80.7681 43.1728C80.0353 43.5166 79.3381 43.8319 78.6766 44.1187C78.0403 44.4032 77.6108 44.5806 77.3881 44.651C77.2893 44.6851 77.1286 44.7373 76.9059 44.8076C76.681 44.8527 76.4928 44.8819 76.3414 44.8951L76.1521 44.9117C75.5464 44.9647 75.0734 44.7899 74.733 44.3874C74.3904 43.9596 74.1948 43.4681 74.1463 42.9129ZM68.3219 28.6603C68.2777 28.1556 68.2945 27.6201 68.3721 27.0538C68.4497 26.4876 68.5339 25.997 68.6248 25.5822C68.662 25.4264 68.7283 25.1663 68.8235 24.8019C68.944 24.4353 69.0634 24.0562 69.1817 23.6644C69.3231 23.2451 69.4551 22.8648 69.5778 22.5235C69.7236 22.1547 69.8277 21.8913 69.8901 21.7333C69.9987 21.5203 70.1654 21.3913 70.3903 21.3462C70.613 21.2759 70.8127 21.233 70.9894 21.2175C71.3175 21.1888 71.5512 21.2446 71.6906 21.385C71.8553 21.5232 71.9465 21.6932 71.9641 21.8951C71.973 21.9961 71.9588 22.1245 71.9215 22.2803L71.8657 22.5141C71.4887 23.4371 71.1414 24.4084 70.8237 25.428C70.506 26.4475 70.3413 27.3266 70.3297 28.0651C70.6533 27.9859 70.9885 27.893 71.3352 27.7864C71.7071 27.6775 72.0664 27.5698 72.4131 27.4632C73.056 27.2543 73.637 27.0637 74.1559 26.8911C74.6726 26.6933 75.1905 26.5081 75.7094 26.3356C76.0813 26.2268 76.3749 26.2392 76.59 26.373C76.8052 26.5067 76.9468 26.6724 77.0149 26.8698C77.0897 27.143 77.0695 27.3482 76.9544 27.4855C76.8622 27.5952 76.7564 27.6935 76.6368 27.7803C76.5403 27.8396 76.3944 27.9159 76.1991 28.0093C76.0291 28.1004 75.8349 28.2064 75.6166 28.3273C75.3961 28.4228 75.1756 28.5184 74.9551 28.614C74.7598 28.7074 74.5887 28.7859 74.4417 28.8496C73.7045 29.143 72.9305 29.4523 72.1197 29.7776C71.332 30.0753 70.6479 30.2496 70.0675 30.3004C69.3609 30.3622 68.9049 30.2368 68.6995 29.9242C68.4919 29.5863 68.3661 29.165 68.3219 28.6603ZM66.4641 35.7653C66.4464 35.5634 66.5078 35.3927 66.6481 35.2533C66.7863 35.0886 66.9037 34.9766 67.0002 34.9173C68.6775 34.0331 70.4905 33.3913 72.4391 32.9919C74.4107 32.5652 76.3808 32.2656 78.3493 32.0934L80.3556 31.9179C81.1884 31.845 81.9236 31.8189 82.5612 31.8394C83.2239 31.8577 83.8006 31.9089 84.2912 31.9932C84.729 32.0566 85.1345 32.1864 85.5077 32.3826C85.9039 32.5514 86.0325 32.858 85.8934 33.3025C85.8517 33.4079 85.7689 33.4787 85.6449 33.515C85.544 33.5238 85.4304 33.5337 85.3042 33.5448C85.0014 33.5713 84.5449 33.5858 83.9348 33.5883C83.3477 33.5634 82.7996 33.5478 82.2905 33.5414C81.552 33.5298 80.8294 33.5548 80.1228 33.6166C79.3909 33.6807 78.5982 33.7755 77.7445 33.901C76.8887 34.0013 76.0235 34.1406 75.1491 34.3188C74.2724 34.4718 73.4243 34.6604 72.6047 34.8847C71.7829 35.0838 71.0402 35.314 70.3764 35.5756C69.9837 35.7371 69.5218 35.9809 68.9909 36.3071C68.4578 36.608 68.0168 36.7992 67.6679 36.8806C67.2685 36.9664 66.9683 36.8782 66.7674 36.6161C66.5917 36.3517 66.4906 36.0681 66.4641 35.7653ZM112.737 39.9563C112.666 39.1487 112.612 38.3905 112.576 37.6817C112.539 36.9728 112.537 36.2228 112.57 35.4316C112.609 35.301 112.686 35.1671 112.802 35.0299C112.917 34.8927 113.061 34.8037 113.236 34.763C113.436 34.7201 113.613 34.7173 113.769 34.7545C113.948 34.7643 114.131 34.8245 114.319 34.9353C114.454 35.0252 114.53 35.1711 114.548 35.373C114.566 35.5749 114.589 35.6999 114.619 35.7482C114.628 36.434 114.632 37.0567 114.63 37.6164C114.653 38.1738 114.694 38.7806 114.751 39.4367C114.8 39.992 114.839 40.4462 114.87 40.7995C114.899 41.1276 114.963 41.5671 115.062 42.1179C115.435 41.7292 115.776 41.4196 116.087 41.189C116.42 40.9309 116.743 40.6992 117.056 40.4939C117.394 40.2863 117.746 40.1029 118.114 39.9436C118.479 39.759 118.88 39.5459 119.317 39.3043L119.393 39.2977C119.453 38.5295 119.503 37.8003 119.544 37.1101C119.609 36.3924 119.65 35.8421 119.667 35.4591C119.706 35.3285 119.785 35.2073 119.902 35.0953C120.017 34.958 120.187 34.8669 120.412 34.8218C121.163 34.6798 121.576 34.898 121.652 35.4762C121.695 35.6759 121.712 35.8652 121.702 36.044C121.692 36.2229 121.674 36.4533 121.648 36.7354C121.606 37.7054 121.522 38.7808 121.396 39.9616C121.294 41.1149 121.177 42.2567 121.047 43.387C121.026 43.4397 121 43.5692 120.967 43.7755C120.959 43.9796 120.928 44.1985 120.872 44.4323C120.841 44.6639 120.809 44.8828 120.777 45.0891C120.746 45.3206 120.722 45.488 120.706 45.5911C120.617 46.0312 120.454 46.4905 120.216 46.9691C120.004 47.4454 119.579 47.8259 118.943 48.1104C118.773 48.2016 118.534 48.2352 118.227 48.2112C117.92 48.1872 117.622 48.1243 117.333 48.0224C117.072 47.9435 116.858 47.8224 116.691 47.659C116.526 47.5208 116.498 47.3452 116.607 47.1323C116.676 47.05 116.827 47.0367 117.061 47.0925C117.322 47.1714 117.539 47.1779 117.711 47.112C118.104 46.9504 118.372 46.6727 118.516 46.2787C118.687 45.9077 118.789 45.619 118.821 45.4127C118.85 45.1559 118.898 44.8339 118.966 44.4465C119.034 44.0591 119.069 43.7381 119.072 43.4835C119.105 43.2772 119.13 42.9826 119.147 42.5996C119.192 42.2397 119.232 41.8166 119.265 41.3305C119.219 41.3854 119.172 41.4277 119.124 41.4573C119.073 41.4617 119.024 41.4788 118.976 41.5084C118.665 41.739 118.403 41.94 118.189 42.1113C117.975 42.2826 117.773 42.4401 117.582 42.584C117.393 42.7531 117.192 42.9233 116.978 43.0945C116.792 43.2889 116.57 43.5117 116.312 43.7632C116.149 43.93 116.021 44.0684 115.929 44.1781C115.839 44.3132 115.832 44.5299 115.909 44.8283C115.963 45.1542 116.029 45.4663 116.106 45.7648C116.208 46.061 116.327 46.4066 116.463 46.8015C116.536 47.0495 116.45 47.235 116.207 47.358C115.989 47.4788 115.78 47.5607 115.58 47.6036C115.429 47.6168 115.273 47.5796 115.112 47.4919C114.98 47.4272 114.844 47.3247 114.704 47.1843C114.59 47.0417 114.476 46.8991 114.362 46.7565C114.273 46.6118 114.21 46.4774 114.174 46.3534C113.725 45.2991 113.392 44.2475 113.173 43.1986C112.979 42.1475 112.834 41.0667 112.737 39.9563ZM102.337 39.6836C102.249 39.259 102.191 38.8827 102.162 38.5546C102.131 38.2013 102.103 37.8732 102.076 37.5703C102.047 37.2423 102.031 36.9131 102.028 36.5828C102.024 36.2525 102.017 35.8717 102.004 35.4405C101.998 34.5001 102.012 33.6343 102.044 32.8431C102.077 32.052 102.127 31.1703 102.194 30.198C101.896 30.275 101.517 30.448 101.057 30.7171C100.62 30.9587 100.124 31.2437 99.5678 31.5721C99.3747 31.6907 99.146 31.8379 98.8817 32.0136C98.6425 32.1871 98.3886 32.3365 98.1198 32.4617C97.9476 32.5276 97.7182 32.5223 97.4318 32.4456C97.1684 32.3415 96.9916 32.0645 96.9014 31.6147C96.8222 31.291 96.8654 31.0584 97.031 30.9167C97.1484 30.8047 97.3853 30.606 97.7418 30.3205C98.1213 30.0076 98.5189 29.7566 98.9347 29.5677C99.277 29.4106 99.571 29.2831 99.8167 29.1853C100.06 29.0623 100.28 28.9541 100.475 28.8607C100.67 28.7674 100.878 28.6729 101.099 28.5773C101.319 28.4817 101.59 28.3817 101.912 28.2773C102.701 28.0048 103.442 27.7492 104.133 27.5108C104.85 27.2701 105.621 27.0754 106.447 26.9269C107.145 26.7641 107.719 26.6376 108.169 26.5474C108.644 26.455 109.15 26.4234 109.686 26.4528C110.044 26.4723 110.279 26.5408 110.391 26.6581C110.503 26.7755 110.58 26.934 110.623 27.1337C110.636 27.2851 110.588 27.4547 110.477 27.6424C110.389 27.8026 110.221 27.919 109.973 27.9916C109.647 28.0455 109.335 28.111 109.037 28.188C108.736 28.2397 108.376 28.3348 107.956 28.4733C107.832 28.5096 107.633 28.5651 107.36 28.6398C107.084 28.6894 106.773 28.7674 106.427 28.8741C106.103 28.9532 105.755 29.0472 105.383 29.1561C105.037 29.2627 104.728 29.366 104.457 29.466C104.459 29.4912 104.442 29.5818 104.404 29.7376C104.39 29.866 104.377 30.007 104.365 30.1606C104.322 30.5458 104.289 30.892 104.265 31.1993C104.239 31.4813 104.213 31.7633 104.187 32.0454C104.16 32.3274 104.135 32.622 104.111 32.9293C104.11 33.2091 104.114 33.5394 104.122 33.9202C104.107 34.3284 104.089 34.7113 104.07 35.0691C104.05 35.4268 104.05 35.8591 104.069 36.3661C104.088 36.873 104.144 37.5166 104.238 38.2967C104.329 39.0516 104.491 40.0292 104.723 41.2296C104.775 41.5302 104.789 41.8341 104.765 42.1414C104.741 42.4487 104.592 42.6397 104.319 42.7144C104.147 42.7804 103.945 42.798 103.713 42.7674C103.505 42.7094 103.33 42.5975 103.188 42.4319C102.932 42.1237 102.744 41.7206 102.625 41.2224C102.528 40.6969 102.432 40.1839 102.337 39.6836ZM105.514 34.1416C105.49 33.864 105.636 33.6478 105.954 33.4929C106.296 33.3358 106.6 33.182 106.867 33.0315C107.719 32.6009 108.42 32.1836 108.97 31.7795C109.517 31.3502 110.109 30.8533 110.747 30.289C111.407 29.6972 112.014 29.0845 112.569 28.4511C113.122 27.7924 113.584 27.1162 113.956 26.4225C114.154 26.0746 114.315 25.7299 114.437 25.3886C114.585 25.0451 114.692 24.667 114.758 24.2544C114.772 24.126 114.796 23.9586 114.828 23.7523C114.861 23.546 114.907 23.3386 114.965 23.1301C115.023 22.9216 115.096 22.7372 115.183 22.5769C115.271 22.4167 115.389 22.3173 115.539 22.2788C115.862 22.1996 116.196 22.234 116.539 22.382C116.906 22.5025 117.108 22.7773 117.146 23.2063C117.168 23.4587 117.139 23.7154 117.06 23.9766C116.979 24.2126 116.913 24.4727 116.862 24.7569C116.817 25.1169 116.751 25.5295 116.665 25.9948C116.578 26.4601 116.513 26.8727 116.468 27.2327C116.44 27.4895 116.413 27.7715 116.389 28.0787C116.363 28.3608 116.362 28.6406 116.387 28.9182C116.434 29.7532 116.495 30.4472 116.569 31.0002C116.665 31.5258 116.745 31.8495 116.806 31.9712C116.872 32.1435 116.929 32.3547 116.976 32.6048C117.046 32.8275 117.074 33.0031 117.06 33.1315C117.046 33.2599 116.93 33.3845 116.712 33.5053C116.516 33.5987 116.273 33.5818 115.982 33.4547C115.533 33.2651 115.217 32.9876 115.032 32.6223C114.873 32.2548 114.731 31.7967 114.607 31.2482C114.571 31.1242 114.522 30.8614 114.462 30.4598C114.424 30.0308 114.399 29.6007 114.387 29.1694C114.14 29.547 113.831 29.9428 113.461 30.3567C113.115 30.7683 112.709 31.2108 112.242 31.6839C111.913 31.9925 111.534 32.318 111.107 32.6606C110.679 33.0032 110.225 33.3354 109.744 33.6571C109.287 33.9514 108.816 34.2342 108.331 34.5055C107.844 34.7516 107.39 34.9439 106.97 35.0823C106.476 35.2527 106.107 35.2468 105.862 35.0648C105.643 34.8806 105.527 34.5729 105.514 34.1416ZM100.253 23.2728C100.205 22.7176 100.257 22.1536 100.41 21.5807C100.564 21.0078 100.759 20.4821 100.997 20.0035C101.233 19.4998 101.498 19.0442 101.793 18.637C102.086 18.2045 102.361 17.8625 102.619 17.6111C102.759 17.4717 102.892 17.3964 103.018 17.3854C103.17 17.3721 103.343 17.3188 103.539 17.2255C103.635 17.1662 103.719 17.108 103.79 17.0509C103.885 16.9663 104.045 16.9141 104.272 16.8942C104.802 16.8479 105.255 17.0753 105.629 17.5766C106.027 18.0504 106.251 18.5776 106.301 19.158C106.352 19.7385 106.303 20.3404 106.154 20.9637C106.003 21.5618 105.748 22.1309 105.388 22.671C105.052 23.1836 104.607 23.6293 104.056 24.0082C103.527 24.3596 102.91 24.5789 102.206 24.6659C101.703 24.7353 101.263 24.6467 100.886 24.4C100.508 24.1533 100.297 23.7776 100.253 23.2728ZM120.338 30.4798C120.287 29.8993 120.255 29.2409 120.241 28.5047C120.225 27.7431 120.221 26.9679 120.228 26.1789C120.236 25.3899 120.245 24.6262 120.257 23.8877C120.292 23.1218 120.334 22.4442 120.384 21.8549C120.382 21.8296 120.388 21.7528 120.402 21.6244C120.439 21.4686 120.464 21.3139 120.476 21.1602C120.488 21.0066 120.501 20.8656 120.515 20.7372C120.552 20.5814 120.569 20.4782 120.564 20.4277C120.649 19.9372 120.719 19.575 120.775 19.3413C120.853 19.0801 121.12 18.9296 121.574 18.8899C121.902 18.8612 122.165 18.9527 122.361 19.1643C122.581 19.3486 122.681 19.6196 122.661 19.9773C122.666 20.0278 122.649 20.1309 122.612 20.2868C122.598 20.4151 122.586 20.5688 122.576 20.7476C122.566 20.9265 122.543 21.0939 122.505 21.2497C122.493 21.4033 122.49 21.5054 122.494 21.5559C122.369 22.4568 122.276 23.4186 122.212 24.4414C122.205 24.6455 122.192 24.939 122.175 25.322C122.183 25.7027 122.193 26.1087 122.205 26.54C122.218 26.9712 122.228 27.3772 122.236 27.758C122.244 28.1387 122.244 28.4312 122.236 28.6353C122.23 29.1444 122.234 29.6272 122.248 30.0837C122.286 30.5127 122.25 30.9736 122.14 31.4664C122.085 31.7001 121.984 31.8615 121.84 31.9505C121.693 32.0142 121.518 32.0549 121.316 32.0725C120.887 32.1101 120.618 31.9429 120.509 31.5709C120.426 31.1968 120.369 30.8331 120.338 30.4798ZM104.384 18.601C104.168 18.7471 103.934 18.9837 103.683 19.3108C103.457 19.6357 103.247 19.9974 103.053 20.3958C102.859 20.7943 102.705 21.2146 102.591 21.6569C102.475 22.0739 102.432 22.4591 102.463 22.8124C102.741 22.7881 103.022 22.6618 103.308 22.4334C103.593 22.205 103.835 21.9168 104.033 21.5689C104.257 21.2187 104.428 20.8478 104.546 20.456C104.687 20.0367 104.742 19.6504 104.712 19.2971C104.689 19.0447 104.58 18.8127 104.384 18.601ZM154.916 29.9722C154.865 29.3917 154.874 28.7679 154.943 28.1007C155.037 27.4313 155.134 26.7997 155.235 26.206C155.302 25.8186 155.387 25.4806 155.489 25.192C155.589 24.8781 155.683 24.5011 155.772 24.0611C155.094 24.451 154.467 24.8491 153.893 25.2554C153.343 25.6595 152.726 26.0186 152.041 26.3328C151.552 26.5536 151.014 26.7915 150.426 27.0464C149.861 27.2738 149.274 27.4014 148.666 27.4292C148.464 27.4468 148.304 27.3591 148.185 27.1661C148.067 26.973 147.998 26.7629 147.978 26.5358C147.958 26.3086 147.977 26.0908 148.035 25.8823C148.118 25.6716 148.235 25.5469 148.384 25.5085C149.557 25.2533 150.593 24.8955 151.494 24.4353C151.885 24.2485 152.312 24.0459 152.776 23.8273C153.238 23.5834 153.686 23.3281 154.12 23.0612C154.578 22.7669 155.008 22.4495 155.41 22.1091C155.813 21.7688 156.149 21.396 156.419 20.991C156.488 20.9087 156.563 20.7495 156.644 20.5135C156.748 20.2501 156.82 20.0531 156.859 19.9225C156.961 19.6339 157.054 19.3842 157.137 19.1735C157.22 18.9627 157.464 18.8397 157.868 18.8044C158.17 18.7779 158.468 18.8408 158.761 18.9932C159.077 19.1181 159.251 19.3572 159.282 19.7106C159.315 20.0891 159.222 20.4787 159.003 20.8793C158.806 21.2525 158.622 21.612 158.449 21.9577C158.208 22.4111 158.05 22.9208 157.972 23.4871C157.917 24.0259 157.821 24.5175 157.681 24.962C157.408 25.9015 157.19 26.8996 157.028 27.9564C156.864 28.9879 156.824 29.9832 156.908 30.9422C156.952 31.447 157.045 31.9347 157.188 32.4053C157.354 32.8486 157.485 33.3203 157.579 33.8207C157.615 33.9446 157.55 34.0648 157.382 34.1812C157.239 34.2954 157.105 34.358 156.979 34.3691C156.524 34.4088 156.153 34.2378 155.866 33.8561C155.601 33.447 155.427 33.0553 155.343 32.6812C155.258 32.2818 155.17 31.8572 155.079 31.4073C155.014 30.9553 154.96 30.4769 154.916 29.9722ZM142.461 34.1134C142.41 33.5329 142.413 32.9859 142.47 32.4724C142.55 31.9313 142.661 31.3113 142.803 30.6122C142.824 30.5596 142.86 30.3911 142.912 30.1069C142.986 29.7952 143.043 29.5741 143.083 29.4435C143.161 29.1823 143.275 28.74 143.424 28.1166C143.598 27.4911 143.784 26.8518 143.981 26.1988C144.201 25.5184 144.416 24.9147 144.624 24.3879C144.857 23.8589 145.072 23.5477 145.267 23.4543C145.29 23.4269 145.326 23.3983 145.374 23.3687C145.422 23.339 145.459 23.3231 145.484 23.3209C145.535 23.3164 145.584 23.2994 145.632 23.2698C145.979 23.1631 146.26 23.1767 146.475 23.3105C146.69 23.4442 146.81 23.6499 146.834 23.9275C146.858 24.2051 146.762 24.5569 146.545 24.9827C146.326 25.3834 146.144 25.7807 146.001 26.1747C145.839 26.6466 145.657 27.1838 145.455 27.7864C145.277 28.3615 145.119 28.8839 144.982 29.3536C144.831 29.9517 144.671 30.6014 144.504 31.3027C144.359 31.9765 144.31 32.5784 144.357 33.1084C144.522 32.9667 144.774 32.7921 145.112 32.5845C145.448 32.3517 145.798 32.1431 146.163 31.9585C146.552 31.7465 146.917 31.562 147.259 31.4049C147.602 31.2478 147.886 31.1593 148.113 31.1394C148.24 31.1284 148.348 31.2079 148.439 31.3779C148.531 31.548 148.581 31.6835 148.589 31.7844C148.607 31.9863 148.56 32.1685 148.447 32.3309C148.357 32.466 148.182 32.6466 147.922 32.8727C147.733 33.0418 147.496 33.2406 147.211 33.469C146.924 33.6721 146.625 33.889 146.314 34.1196C146.002 34.3249 145.703 34.5418 145.418 34.7702C145.13 34.9734 144.905 35.1584 144.741 35.3253C144.601 35.4647 144.472 35.5904 144.355 35.7024C144.237 35.8144 144.04 35.8825 143.762 35.9068C143.51 35.9289 143.303 35.8835 143.14 35.7705C142.978 35.6576 142.851 35.5161 142.76 35.3461C142.666 35.1508 142.598 34.9533 142.555 34.7536C142.51 34.5287 142.479 34.3153 142.461 34.1134ZM138.796 28.4071C138.734 27.7005 138.724 27.0021 138.765 26.3118C138.83 25.5942 138.919 24.8743 139.034 24.1522C139.088 23.8932 139.152 23.6079 139.226 23.2962C139.326 22.9823 139.44 22.6926 139.57 22.4269C139.699 22.1613 139.845 21.9451 140.009 21.7782C140.195 21.5839 140.402 21.4768 140.629 21.4569C140.907 21.4326 141.129 21.5022 141.296 21.6656C141.46 21.8038 141.555 22.0117 141.579 22.2893C141.612 22.6678 141.553 23.0036 141.4 23.2967C141.273 23.5875 141.174 23.9014 141.101 24.2383C140.938 24.9901 140.813 25.7385 140.726 26.4836C140.663 27.2265 140.665 27.9765 140.732 28.7337C140.771 29.1879 140.836 29.64 140.927 30.0898C141.04 30.5122 141.142 30.9484 141.232 31.3982C141.275 31.5979 141.186 31.7455 140.965 31.8411C140.745 31.9367 140.546 31.9922 140.37 32.0077C140.067 32.0342 139.815 31.9163 139.614 31.6542C139.436 31.3646 139.279 31.0223 139.143 30.6273C139.032 30.2302 138.946 29.8308 138.885 29.4292C138.848 29.0002 138.818 28.6595 138.796 28.4071ZM135.144 20.678C135.177 20.4717 135.276 20.2977 135.442 20.156C135.605 19.9892 135.783 19.8338 135.973 19.69C137.146 18.8499 138.685 18.1303 140.591 17.5313C142.52 16.9048 144.637 16.5416 146.942 16.4416C147.298 16.4359 147.66 16.506 148.028 16.6517C148.395 16.7722 148.58 16.9976 148.584 17.3279C148.576 17.532 148.516 17.7153 148.403 17.8778C148.315 18.038 148.057 18.1369 147.628 18.1744C146.29 18.2915 144.985 18.4946 143.714 18.7839C142.44 19.0479 141.137 19.4162 139.805 19.8887C139.436 20.0228 139.046 20.2222 138.637 20.4868C138.228 20.7515 137.805 21.0047 137.368 21.2463C137.247 21.3078 137.028 21.4286 136.713 21.6088C136.399 21.7889 136.127 21.8763 135.897 21.8709C135.592 21.8722 135.378 21.751 135.255 21.5075C135.13 21.2387 135.093 20.9622 135.144 20.678ZM162.746 24.9385C162.733 24.7871 162.757 24.6324 162.82 24.4743C162.88 24.2911 162.97 24.1561 163.089 24.0693C163.259 23.9781 163.578 23.8359 164.044 23.6425C164.533 23.4217 165.049 23.2113 165.591 23.0113C166.133 22.8113 166.651 22.6261 167.144 22.4558C167.636 22.2602 167.968 22.1294 168.14 22.0635C168.732 21.8591 169.377 21.6755 170.075 21.5127C170.771 21.3247 171.481 21.1608 172.206 21.0211C172.929 20.8561 173.643 20.7301 174.348 20.643C175.05 20.5307 175.716 20.447 176.347 20.3918C176.675 20.3631 177.018 20.3585 177.376 20.3781C177.757 20.3702 178.04 20.409 178.225 20.4945C178.356 20.5339 178.45 20.5893 178.507 20.6606C178.564 20.7319 178.595 20.7928 178.599 20.8433C178.667 21.0407 178.67 21.2185 178.608 21.3765C178.543 21.5093 178.45 21.6065 178.328 21.668C177.86 21.8362 177.413 21.9642 176.989 22.0522C176.587 22.1128 176.098 22.1937 175.522 22.295C175.171 22.3511 174.757 22.4128 174.279 22.48C173.827 22.545 173.351 22.6248 172.851 22.7194C172.376 22.8118 171.902 22.9169 171.429 23.0345C170.981 23.15 170.573 23.2747 170.203 23.4088C169.982 23.5044 169.601 23.6522 169.059 23.8522C168.517 24.0522 167.952 24.2796 167.364 24.5345C166.774 24.7641 166.209 24.9916 165.669 25.2168C165.129 25.4421 164.738 25.6162 164.494 25.7392C164.205 25.9171 163.959 26.0149 163.757 26.0326C163.454 26.0591 163.215 25.9401 163.039 25.6758C162.864 25.4114 162.766 25.1657 162.746 24.9385ZM165.047 12.8741C164.939 12.2223 164.844 11.5695 164.761 10.9155C164.702 10.2341 164.679 9.5368 164.693 8.82354C164.701 8.33963 164.996 8.07227 165.576 8.02149C166.308 7.95746 166.674 8.21788 166.674 8.80274C166.668 9.3119 166.674 9.81995 166.693 10.3269C166.738 10.8316 166.81 11.372 166.912 11.9481C166.918 12.0238 166.962 12.0835 167.042 12.1274C167.122 12.1712 167.2 12.1899 167.275 12.1832C167.627 12.1271 168.011 12.0172 168.429 11.8534C168.845 11.6645 169.223 11.4788 169.563 11.2965C169.685 11.235 169.764 11.1263 169.801 10.9705C169.82 10.8926 169.827 10.8284 169.823 10.7779C169.918 10.4135 169.949 10.0421 169.916 9.66352C169.906 9.25752 169.935 8.86083 170.002 8.47344C170.04 8.3176 170.116 8.17107 170.231 8.03385C170.346 7.89662 170.58 7.81256 170.934 7.78164C171.64 7.71982 171.956 7.98466 171.881 8.57615C171.824 9.08972 171.767 9.60329 171.71 10.1169C171.651 10.6052 171.622 11.1418 171.622 11.7267C171.615 11.9308 171.597 12.3137 171.57 12.8756C171.568 13.4352 171.544 14.0349 171.499 14.6746C171.451 15.2892 171.401 15.8784 171.348 16.4425C171.321 17.0043 171.292 17.401 171.262 17.6326C171.179 18.1483 170.95 18.5753 170.573 18.9135C170.193 19.2264 169.751 19.405 169.246 19.4491C168.842 19.4844 168.454 19.404 168.081 19.2078C167.731 18.9841 167.401 18.7078 167.093 18.3787C166.807 18.0223 166.557 17.6372 166.343 17.2237C166.154 16.8079 166.005 16.414 165.896 16.0421C165.815 15.6932 165.674 15.2478 165.474 14.7058C165.297 14.1364 165.155 13.5258 165.047 12.8741ZM167.504 14.7953C167.515 14.9214 167.572 15.1326 167.674 15.4289C167.776 15.7251 167.906 16.0443 168.063 16.3866C168.218 16.7036 168.382 16.9817 168.555 17.2209C168.729 17.46 168.904 17.5718 169.081 17.5564C169.308 17.5365 169.463 17.4212 169.546 17.2105C169.655 16.9975 169.713 16.789 169.72 16.5849C169.74 16.2272 169.731 15.8338 169.693 15.4048C169.656 14.9757 169.636 14.4562 169.633 13.8461C169.622 13.7199 169.601 13.62 169.569 13.5465C169.537 13.473 169.445 13.4429 169.294 13.4561C169.117 13.4716 168.919 13.5271 168.698 13.6227C168.476 13.693 168.269 13.8001 168.078 13.944C167.91 14.0604 167.77 14.1998 167.657 14.3623C167.542 14.4995 167.491 14.6438 167.504 14.7953ZM169.733 43.3236C169.723 42.9176 169.837 42.4753 170.074 41.9967C170.312 41.5182 170.59 41.0616 170.908 40.6269C171.251 40.1899 171.585 39.792 171.91 39.433C172.235 39.074 172.465 38.7996 172.601 38.6097C172.693 38.4999 172.853 38.2951 173.081 37.9955C173.335 37.6936 173.586 37.3664 173.835 37.0141C174.111 36.6847 174.375 36.3565 174.626 36.0294C174.902 35.7 175.109 35.453 175.247 35.2883C174.917 35.2918 174.551 35.3238 174.15 35.3844C173.771 35.4175 173.14 35.4727 172.257 35.55C171.626 35.6052 171.106 35.4727 170.696 35.1525C170.312 34.8301 170.123 34.4143 170.129 33.9051C170.126 33.5749 170.281 33.1671 170.595 32.682C170.908 32.1968 171.26 31.7083 171.649 31.2165C172.063 30.7225 172.48 30.2537 172.899 29.8102C173.318 29.3666 173.631 29.0214 173.838 28.7744C173.931 28.6646 174.034 28.5411 174.149 28.4039C174.287 28.2392 174.414 28.0882 174.529 27.951C174.644 27.8138 174.737 27.704 174.806 27.6217C174.898 27.5119 174.943 27.4444 174.94 27.4192C174.984 27.339 174.978 27.2633 174.921 27.192C174.887 27.0933 174.808 27.0621 174.684 27.0983C173.834 27.2744 172.94 27.5179 172.001 27.8289C171.085 28.1125 170.313 28.447 169.686 28.8325C169.396 29.0104 169.094 29.1895 168.779 29.3696C168.462 29.5245 168.161 29.7161 167.876 29.9445C167.591 30.1729 167.341 30.3727 167.127 30.544C166.911 30.6901 166.677 30.7742 166.424 30.7962C166.071 30.8271 165.797 30.7494 165.603 30.5629C165.406 30.3513 165.297 30.1192 165.275 29.8669C165.246 29.5388 165.361 29.249 165.619 28.9976C166.04 28.5793 166.688 28.1412 167.563 27.6831C168.464 27.2229 169.42 26.8087 170.43 26.4405C171.463 26.045 172.477 25.7147 173.471 25.4497C174.465 25.1847 175.278 25.0247 175.909 24.9695C176.413 24.9253 176.843 25.0403 177.198 25.3144C177.575 25.5611 177.783 25.899 177.82 26.328C177.849 26.6561 177.73 27.0353 177.462 27.4656C177.192 27.8706 176.861 28.2938 176.467 28.7351C176.099 29.1742 175.716 29.6018 175.32 30.0179C174.922 30.4088 174.608 30.7414 174.378 31.0159C174.122 31.2925 173.822 31.6367 173.476 32.0484C173.156 32.4578 172.873 32.8514 172.626 33.229C172.582 33.3091 172.576 33.3859 172.608 33.4594C172.64 33.5329 172.732 33.5631 172.883 33.5498C173.388 33.5057 173.892 33.4615 174.397 33.4173C174.927 33.371 175.483 33.335 176.066 33.3095C176.497 33.2972 176.873 33.3787 177.194 33.5541C177.539 33.7273 177.74 33.9895 177.797 34.3406C177.846 34.616 177.816 34.8475 177.705 35.0352C177.617 35.1955 177.541 35.342 177.476 35.4748C177.453 35.5023 177.305 35.6933 177.03 36.0478C176.779 36.375 176.551 36.6747 176.346 36.9469C175.66 37.8207 174.962 38.7083 174.252 39.6095C173.568 40.5086 172.934 41.4032 172.351 42.2934C172.171 42.5635 172.144 42.8329 172.269 43.1017C172.422 43.3935 172.786 43.4887 173.362 43.3875C173.814 43.3225 174.338 43.2004 174.932 43.0212C175.529 42.8673 176.136 42.687 176.754 42.4804C177.399 42.2968 178.018 42.1028 178.61 41.8984C179.23 41.717 179.787 41.5412 180.281 41.3708C180.478 41.3027 180.631 41.302 180.738 41.3689C180.871 41.4336 180.965 41.489 181.02 41.535C181.132 41.6524 181.186 41.8383 181.183 42.0929C181.182 42.3727 181.037 42.6016 180.747 42.7795C180.265 43.076 179.604 43.3754 178.766 43.6776C177.955 44.0028 177.116 44.2924 176.248 44.5464C175.406 44.7981 174.623 45.0064 173.9 45.1714C173.179 45.3616 172.667 45.47 172.364 45.4965C171.607 45.5627 170.983 45.4012 170.491 45.0119C170.024 44.6204 169.772 44.0576 169.733 43.3236ZM184.148 34.8911C184.088 34.2097 184.181 33.5277 184.426 32.8451C184.672 32.1624 184.908 31.5187 185.135 30.914C185.22 30.7285 185.358 30.4113 185.547 29.9624C185.735 29.4882 185.933 28.9878 186.141 28.461C186.372 27.9067 186.581 27.3925 186.769 26.9184C186.956 26.4442 187.08 26.1155 187.14 25.9322C187.247 25.6941 187.338 25.4317 187.415 25.1453C187.491 24.8589 187.519 24.5895 187.497 24.3371C187.488 24.2361 187.468 24.1615 187.439 24.1133C187.434 24.0628 187.38 24.0167 187.274 23.9751C187.086 23.8644 186.838 23.7844 186.528 23.7352C186.219 23.686 185.845 23.6297 185.407 23.5662C184.61 23.458 184.062 23.1626 183.766 22.6799C183.495 22.1951 183.327 21.5867 183.263 20.8548C183.186 19.9715 183.284 19.0602 183.558 18.1207C183.855 17.1538 184.145 16.2638 184.43 15.4505C184.597 15.0291 184.749 14.5835 184.886 14.1138C185.048 13.6418 185.179 13.2489 185.278 12.935C185.336 12.7265 185.374 12.5707 185.39 12.4675C185.406 12.3644 185.41 12.2623 185.401 12.1614C185.388 12.0099 185.294 11.9546 185.12 11.9953C184.945 12.036 184.797 12.0871 184.676 12.1486C184.214 12.3924 183.832 12.6801 183.53 13.0117C183.229 13.3432 182.919 13.7263 182.601 14.161C182.49 14.3487 182.341 14.5271 182.152 14.6962C181.963 14.8653 181.736 14.8852 181.471 14.7558C181.258 14.6473 181.095 14.5344 180.983 14.417C180.894 14.2722 180.839 14.0736 180.817 13.8213C180.797 13.5941 180.866 13.3719 181.025 13.1545C181.182 12.912 181.327 12.6831 181.461 12.468C181.595 12.2528 181.709 12.103 181.803 12.0184C181.923 11.9317 182.053 11.8186 182.193 11.6791C182.545 11.3432 182.988 11.0247 183.521 10.7238C184.077 10.3954 184.683 10.2025 185.339 10.1451C186.601 10.0347 187.285 10.5852 187.391 11.7966C187.409 11.9985 187.392 12.2415 187.341 12.5257C187.314 12.8078 187.285 13.0519 187.252 13.2582C187.157 13.6226 187.028 14.0407 186.866 14.5127C186.702 14.9594 186.548 15.3797 186.404 15.7737C186.119 16.587 185.833 17.3876 185.546 18.1756C185.257 18.9384 185.151 19.7615 185.228 20.6448C185.252 20.9224 185.335 21.144 185.477 21.3096C185.616 21.45 185.779 21.5629 185.964 21.6484C186.175 21.7317 186.41 21.8001 186.669 21.8538C186.926 21.8822 187.196 21.9221 187.48 21.9735C187.971 22.0577 188.433 22.2462 188.865 22.539C189.323 22.8295 189.575 23.2398 189.621 23.7698C189.679 24.4259 189.595 25.069 189.37 25.699C189.171 26.3267 188.958 26.943 188.731 27.5477C188.504 28.1525 188.238 28.7479 187.934 29.334C187.629 29.9201 187.351 30.5167 187.099 31.1236C186.953 31.4924 186.796 31.8749 186.627 32.2711C186.481 32.6399 186.363 33.0317 186.272 33.4465C186.185 33.9118 186.157 34.3085 186.185 34.6366C186.203 34.8385 186.3 34.9317 186.477 34.9162C186.679 34.8986 186.84 34.859 186.962 34.7975C187.084 34.736 187.253 34.6322 187.469 34.4861C187.71 34.3379 187.951 34.177 188.19 34.0035C188.429 33.83 188.644 33.6713 188.835 33.5274C189.049 33.3562 189.191 33.242 189.262 33.1849C189.596 32.9268 189.981 32.677 190.417 32.4353C190.854 32.1937 191.246 32.0196 191.592 31.9129C191.716 31.8767 191.833 31.9046 191.943 31.9967C192.078 32.0866 192.177 32.2051 192.241 32.3521C192.305 32.4991 192.332 32.662 192.322 32.8409C192.31 32.9945 192.233 33.1284 192.09 33.2426C191.899 33.3865 191.66 33.56 191.373 33.7631C191.111 33.9641 190.861 34.1639 190.624 34.3627C190.364 34.5888 190.091 34.8035 189.803 35.0067C189.541 35.2076 189.208 35.4656 188.803 35.7808C188.78 35.8082 188.709 35.8653 188.589 35.9521C188.469 36.0388 188.325 36.1278 188.155 36.219C187.987 36.3354 187.818 36.4391 187.648 36.5303C187.505 36.6445 187.397 36.7175 187.324 36.7494C187.275 36.779 187.127 36.8302 186.879 36.9027C186.634 37.0005 186.372 37.0615 186.094 37.0858C185.615 37.1278 185.229 37.0726 184.935 36.9202C184.668 36.7656 184.461 36.4404 184.316 35.9445C184.252 35.7975 184.212 35.623 184.194 35.4211C184.174 35.194 184.159 35.0173 184.148 34.8911ZM197.527 24.7565C197.412 23.4441 197.378 22.1757 197.423 20.951C197.466 19.7012 197.612 18.4551 197.859 17.2128C197.936 16.9264 198.011 16.6273 198.086 16.3157C198.158 15.9788 198.333 15.7982 198.611 15.7739L199.292 15.7143C199.574 15.7404 199.775 15.8627 199.896 16.081C200.015 16.274 200.073 16.4979 200.069 16.7524C200.074 16.8029 200.068 16.8797 200.051 16.9829C200.035 17.086 200.016 17.164 199.996 17.2166C199.817 18.3766 199.662 19.649 199.528 21.0339C199.421 22.4165 199.424 23.764 199.539 25.0764C199.572 25.4549 199.618 25.8324 199.676 26.2087C199.734 26.5851 199.781 26.9751 199.817 27.3789L199.883 28.136C199.887 28.1865 199.777 28.2343 199.552 28.2794C199.325 28.2993 199.186 28.3114 199.136 28.3158C198.883 28.3379 198.67 28.2294 198.497 27.9903C198.323 27.7511 198.202 27.5328 198.134 27.3354C197.964 26.8417 197.837 26.4077 197.753 26.0336C197.695 25.6573 197.62 25.2315 197.527 24.7565ZM206.597 22.5134C206.532 22.6463 206.436 22.8581 206.309 23.1489C206.207 23.4376 206.082 23.7537 205.935 24.0972C205.81 24.4133 205.686 24.742 205.563 25.0833C205.438 25.3994 205.346 25.6491 205.285 25.8324C205.119 26.2539 204.929 26.5502 204.715 26.7215C204.526 26.8906 204.293 26.9873 204.015 27.0116C203.813 27.0292 203.621 27.0079 203.437 26.9477C203.252 26.8622 203.138 26.5797 203.096 26.1002C203.079 25.8983 203.129 25.6015 203.247 25.2097C203.391 24.8156 203.546 24.4079 203.712 23.9865C203.877 23.5398 204.043 23.1183 204.212 22.7221C204.406 22.3237 204.545 22.0191 204.628 21.8084C204.903 21.174 205.251 20.4951 205.671 19.7718C206.09 19.0484 206.523 18.324 206.968 17.5984C207.438 16.8706 207.898 16.1692 208.348 15.4941C208.82 14.7916 209.248 14.1566 209.631 13.5891C209.762 13.3487 209.951 13.1796 210.197 13.0818C210.468 12.9818 210.679 12.9252 210.83 12.912C211.083 12.8899 211.33 12.9572 211.573 13.114C211.815 13.2708 211.949 13.488 211.973 13.7656C212.006 14.1442 211.894 14.4591 211.636 14.7106C211.567 14.7929 211.452 14.9301 211.291 15.1222C211.155 15.3121 210.995 15.5169 210.81 15.7364C210.651 15.9538 210.491 16.1585 210.33 16.3506C210.194 16.5405 210.103 16.6629 210.057 16.7178C209.741 17.1778 209.396 17.742 209.023 18.4104C208.647 19.0536 208.366 19.6249 208.181 20.1243C208.307 20.6981 208.501 21.3169 208.763 21.9807C209.047 22.6169 209.313 23.1786 209.559 23.6657C209.714 23.9827 209.911 24.3469 210.15 24.7583C210.387 25.1444 210.626 25.5432 210.865 25.9545C211.128 26.3385 211.379 26.7361 211.618 27.1475C211.88 27.5314 212.089 27.8819 212.244 28.1989C212.369 28.4677 212.427 28.6915 212.417 28.8704C212.433 29.047 212.36 29.2314 212.199 29.4235C212.106 29.5333 211.986 29.6074 211.837 29.6459C211.71 29.657 211.596 29.6543 211.493 29.6379C211.261 29.6073 210.948 29.3677 210.552 28.9191C210.155 28.4453 209.739 27.9094 209.306 27.3116C208.895 26.6864 208.496 26.0474 208.108 25.3947C207.72 24.742 207.418 24.1963 207.202 23.7575C207.047 23.4404 206.925 23.2095 206.836 23.0647C206.772 22.9177 206.693 22.734 206.597 22.5134ZM224.045 27.9293C223.742 27.371 223.541 26.8164 223.442 26.2656C223.366 25.6873 223.301 25.0827 223.245 24.4518C223.212 24.0733 223.168 23.5685 223.113 22.9376C223.081 22.2792 223.085 21.7448 223.125 21.3344C223.147 21.0019 223.172 20.7073 223.2 20.4505C223.229 20.1937 223.251 19.8612 223.266 19.453C223.056 19.6748 222.835 19.9103 222.603 20.1595C222.396 20.4065 222.14 20.6832 221.836 20.9895C221.39 21.41 220.966 21.803 220.566 22.1686C220.189 22.5068 219.785 22.8346 219.355 23.1519C218.95 23.4671 218.508 23.7855 218.027 24.1073C217.57 24.4016 217.049 24.7014 216.466 25.0068C216.126 25.1891 215.699 25.3918 215.184 25.6148C214.667 25.8126 214.153 25.8957 213.642 25.8642C213.36 25.838 213.118 25.6938 212.917 25.4317C212.716 25.1695 212.652 24.87 212.724 24.5331C212.745 24.4804 212.778 24.414 212.821 24.3339C212.863 24.2285 212.983 24.1418 213.18 24.0736C213.749 23.8967 214.267 23.7115 214.734 23.5181C215.2 23.3247 215.639 23.1083 216.05 22.8689C216.487 22.6273 216.908 22.3615 217.315 22.0716C217.747 21.7795 218.203 21.4599 218.681 21.1129C219.014 20.8549 219.348 20.5968 219.681 20.3388C220.013 20.0555 220.33 19.7607 220.634 19.4544C221.315 18.8099 221.93 18.1331 222.478 17.424C223.024 16.6896 223.512 15.8713 223.941 14.9691C224.046 14.7057 224.132 14.3803 224.199 13.9929C224.265 13.5802 224.324 13.2318 224.375 12.9476C224.391 12.8444 224.447 12.7506 224.541 12.666C224.635 12.5815 224.746 12.5337 224.872 12.5227C225.427 12.4741 225.805 12.5809 226.006 12.843C226.23 13.0777 226.332 13.374 226.313 13.7317C226.284 13.9885 226.256 14.2453 226.227 14.502C226.224 14.7566 226.197 15.026 226.146 15.3103C226.073 15.6472 225.976 15.9863 225.853 16.3276C225.756 16.6667 225.671 17.0048 225.599 17.3417C225.491 17.8597 225.409 18.3754 225.353 18.889C225.321 19.4004 225.266 19.9392 225.189 20.5054C225.156 20.7117 225.117 20.9949 225.072 21.3548C225.053 21.7125 225.052 21.9924 225.069 22.1942C225.092 23.0315 225.135 23.9559 225.198 24.9676C225.261 25.9793 225.265 26.8945 225.209 27.7131C225.195 27.8415 225.128 27.9491 225.008 28.0358C224.914 28.1203 224.804 28.1681 224.678 28.1792C224.551 28.1902 224.424 28.1886 224.296 28.1744C224.19 28.1328 224.107 28.0511 224.045 27.9293ZM213.071 19.7728C212.687 19.4504 212.557 19.1311 212.682 18.815C212.761 18.5538 212.953 18.2827 213.259 18.0016C213.563 17.6953 213.906 17.3983 214.287 17.1106C214.669 16.8229 215.042 16.5742 215.405 16.3644C215.791 16.1272 216.106 15.9471 216.349 15.824C216.836 15.578 217.277 15.3868 217.672 15.2505C218.09 15.0868 218.562 14.9565 219.087 14.8597C219.413 14.8058 219.631 14.8248 219.741 14.917C219.851 15.0091 219.92 15.0793 219.95 15.1275C220.057 15.4742 220.005 15.7585 219.796 15.9802C219.584 16.1768 219.283 16.3684 218.893 16.5551C218.33 16.8078 217.769 17.0857 217.211 17.3889C216.65 17.6668 216.12 18.0056 215.621 18.4053C215.479 18.5195 215.326 18.66 215.162 18.8269C215.024 18.9916 214.873 19.1573 214.71 19.3242C214.547 19.4911 214.381 19.6327 214.213 19.7491C214.045 19.8655 213.873 19.9315 213.696 19.9469C213.52 19.9624 213.379 19.9493 213.273 19.9076C213.193 19.8638 213.126 19.8188 213.071 19.7728Z" fill="#ED6A00"/>
</svg>
