<svg width="372" height="155" viewBox="0 0 372 155" fill="none" xmlns="http://www.w3.org/2000/svg">
<path id="Kim Gang Hui" d="M21.5217 89.2949C21.9837 88.9878 22.3646 88.6434 22.6645 88.2617C22.9644 87.8799 23.3454 87.5355 23.8073 87.2285C23.9807 86.9244 24.2725 86.5767 24.6826 86.1853C24.8456 86.0155 25.0085 85.8457 25.1714 85.6759C25.3343 85.5061 25.4852 85.3263 25.6241 85.1364C26.0861 84.8293 26.492 84.5161 26.8418 84.1966C27.1915 83.8771 27.5015 83.4834 27.7716 83.0154C28.017 82.7717 28.2752 82.5491 28.5465 82.3476C28.6509 82.2718 28.7554 82.196 28.8599 82.1202C28.9845 82.0204 29.098 81.9216 29.2006 81.8238C29.6069 81.3883 30.0012 80.9427 30.3835 80.4871C30.7639 80.0094 31.1443 79.5317 31.5247 79.054C32.3017 78.0306 33.1205 77.1035 33.981 76.2727C34.0797 76.1308 34.1784 75.9888 34.2771 75.8469C34.3978 75.703 34.5085 75.5711 34.6091 75.4512L35.2429 74.6958C35.6732 74.2804 36.16 73.749 36.7033 73.1015C36.8844 72.8857 37.0405 72.6387 37.1718 72.3606C37.3212 72.0365 37.4754 71.7674 37.6344 71.5535C37.9707 71.0797 38.2571 70.5436 38.4936 69.9452C38.8001 69.3851 39.0956 68.826 39.3801 68.2678C39.6646 67.7096 39.892 67.1342 40.0623 66.5416C40.1627 65.9107 40.2693 65.4792 40.3823 65.2471C40.4772 65.061 40.559 64.8539 40.6279 64.6257C40.7371 64.3495 40.8122 64.0651 40.8533 63.7727C40.8762 63.5263 40.9753 63.2621 41.1506 62.9801C41.3116 62.7882 41.5435 62.6457 41.8464 62.5526C42.1494 62.4594 42.4207 62.5134 42.6605 62.7147C43.3028 62.4363 43.7909 62.6824 44.125 63.4531C44.2286 63.6218 44.27 63.8404 44.249 64.1089C44.2319 64.4214 44.233 64.688 44.2523 64.9085C44.1922 65.4915 44.2093 66.0677 44.3036 66.6372C44.37 67.1424 44.3411 67.7005 44.2167 68.3113C44.1555 68.6277 44.0541 68.9921 43.9124 69.4045C43.787 69.7487 43.6759 70.0029 43.5792 70.1669C43.4805 70.3088 43.4269 70.4579 43.4183 70.6142C43.4098 70.7705 43.3562 70.9196 43.2575 71.0616C43.1627 71.2476 43.0338 71.4256 42.8709 71.5954C42.6256 71.839 42.4545 72.0429 42.3578 72.2069C41.7944 72.8783 41.276 73.5569 40.8027 74.2427C40.3295 74.9285 39.8792 75.6234 39.4519 76.3274C39.0371 76.9192 38.8024 77.2841 38.7478 77.4222C38.6348 77.6543 38.539 77.8293 38.4604 77.9473C38.3474 78.1794 38.1994 78.3923 38.0164 78.5861C37.8132 78.8038 37.6432 79.0187 37.5062 79.2307C37.4056 79.3506 37.349 79.4666 37.3366 79.5788C37.3242 79.691 37.2677 79.807 37.1671 79.9269C36.9276 80.2367 36.677 80.5475 36.4154 80.8593C36.1759 81.1691 35.9253 81.4799 35.6638 81.7916C35.1607 82.3911 34.6836 83.0328 34.2323 83.7166L33.8933 84.4129C33.8368 84.529 33.7693 84.646 33.6907 84.7639C33.6342 84.88 33.5667 84.997 33.4881 85.115C33.4057 85.1888 33.26 85.3016 33.0511 85.4532C32.9044 85.5549 32.7204 85.7376 32.4991 86.0014C32.4186 86.0973 32.3151 86.1842 32.1886 86.2619C32.0199 86.3655 31.8943 86.4543 31.8119 86.5281L28.9913 88.5747C28.8063 88.7465 28.6214 88.9182 28.4364 89.0899C28.2495 89.2396 28.0516 89.3902 27.8427 89.5418C27.6337 89.6934 27.4358 89.844 27.2489 89.9937C27.0841 90.1415 26.9193 90.2892 26.7544 90.4369C26.0951 91.0279 25.6222 91.5914 25.3358 92.1276C25.0293 92.6876 24.4346 93.1285 23.5518 93.4502C23.4735 94.0792 23.5528 94.6055 23.7899 95.0292C23.9991 95.3886 24.1772 95.773 24.3241 96.1823C24.4296 96.3731 24.529 96.6199 24.6222 96.9228C24.6798 97.0733 24.7263 97.2248 24.7619 97.3772C24.8176 97.5057 24.8742 97.6452 24.9318 97.7957C25.0153 97.9883 25.0878 98.182 25.1493 98.3766C25.2328 98.5692 25.3043 98.7519 25.3639 98.9244C25.5127 99.3558 25.6807 99.7522 25.8679 100.114C25.9696 100.26 26.0512 100.431 26.1126 100.625C26.1741 100.82 26.2557 100.991 26.3574 101.137C26.4169 101.31 26.4765 101.482 26.536 101.655C26.5936 101.805 26.6402 101.957 26.6758 102.109C26.7334 102.26 26.7809 102.422 26.8184 102.597C26.876 102.747 26.9346 102.909 26.9941 103.081C27.2342 103.794 27.5605 104.476 27.9732 105.129C28.1479 105.602 28.384 106.015 28.6814 106.367C29.0028 106.739 29.2551 107.083 29.4384 107.4C29.6465 107.493 29.8494 107.653 30.047 107.88C30.2427 108.085 30.4255 108.269 30.5953 108.432C31.049 108.793 31.4054 109.184 31.6645 109.605C31.9216 110.005 32.2761 110.374 32.7279 110.712C33.0405 110.729 33.3521 110.735 33.6627 110.73C33.9734 110.725 34.2772 110.643 34.5744 110.484C34.7833 110.332 34.9381 110.197 35.0387 110.077C35.1393 109.957 35.2941 109.821 35.503 109.67C35.6841 109.454 35.848 109.295 35.9946 109.193C36.1413 109.091 36.263 108.959 36.3597 108.795C37.2415 108.206 37.921 107.591 38.3981 106.95C38.6578 106.616 38.9174 106.282 39.1771 105.948C39.4568 105.591 39.7366 105.233 40.0164 104.875C40.1611 104.751 40.2948 104.629 40.4175 104.507C40.5602 104.361 40.6819 104.228 40.7826 104.108C40.8832 103.988 40.9948 103.867 41.1175 103.746C41.2382 103.602 41.3599 103.469 41.4825 103.347C42.0865 103.139 42.536 102.944 42.8313 102.762C43.1044 102.583 43.3613 102.472 43.6019 102.428C43.9029 102.313 44.1958 102.232 44.4806 102.185C44.7653 102.138 45.0237 102.171 45.2558 102.284C45.1792 102.424 45.1735 102.613 45.2388 102.852C45.3042 103.09 45.2985 103.28 45.2219 103.42C45.1425 103.782 45.0444 104.057 44.9275 104.245C44.8489 104.363 44.7713 104.492 44.6947 104.632C44.6382 104.748 44.5716 104.877 44.495 105.017C44.1328 105.448 43.7869 105.812 43.4572 106.107C43.0652 106.453 42.7414 106.814 42.4856 107.192C42.1338 107.49 41.7749 107.832 41.4089 108.22C41.268 108.387 41.1162 108.556 40.9533 108.726C40.7904 108.896 40.6274 109.066 40.4645 109.235C40.1627 109.595 39.8259 109.936 39.454 110.257C39.0822 110.578 38.7454 110.919 38.4435 111.279C38.1398 111.616 37.837 111.965 37.5351 112.325C37.2333 112.684 36.9435 113.054 36.6656 113.434C36.0678 114.22 35.4272 114.898 34.7438 115.469C34.2648 116.088 33.7386 116.423 33.1653 116.473C32.913 116.384 32.6867 116.337 32.4864 116.333C32.286 116.328 32.0597 116.281 31.8075 116.192C31.1255 115.763 30.4043 115.393 29.6438 115.082C28.9054 114.768 28.303 114.232 27.8366 113.473C27.4607 113.239 27.134 112.935 26.8567 112.559C26.5794 112.183 26.3093 111.763 26.0464 111.297L25.5787 110.904C25.4329 110.762 25.2953 110.585 25.1657 110.374C24.9336 110.261 24.7797 110.152 24.7039 110.048C24.6281 109.943 24.4943 109.811 24.3024 109.65C23.836 108.89 23.3701 108.009 22.9045 107.005C22.439 106.002 22.0411 105.137 21.7109 104.41C21.6831 104.346 21.6552 104.282 21.6274 104.217C21.5996 104.153 21.5717 104.089 21.5439 104.025C21.516 103.961 21.4872 103.885 21.4575 103.799C21.4277 103.713 21.397 103.615 21.3653 103.507C21.2655 103.383 21.1887 103.267 21.135 103.161C21.0812 103.054 21.0265 102.937 20.9708 102.808C20.8154 102.555 20.6901 102.266 20.595 101.941C20.5575 101.767 20.51 101.604 20.4524 101.454C20.3928 101.281 20.3333 101.109 20.2738 100.936C20.1586 100.635 19.9954 100.294 19.7842 99.9125C19.6806 99.7438 19.577 99.5751 19.4733 99.4064C19.3917 99.2358 19.3101 99.0652 19.2286 98.8946C19.0615 98.5092 18.8945 98.1239 18.7275 97.7385C18.5604 97.3532 18.3512 96.9938 18.0998 96.6602C17.5519 97.5081 17.2368 98.2245 17.1547 98.8094C17.0706 99.3722 16.9385 99.8948 16.7585 100.377C16.476 100.957 16.3295 101.315 16.319 101.449C16.3124 101.627 16.2646 101.843 16.1755 102.095C15.9859 102.467 15.7972 102.85 15.6095 103.244C15.4218 103.638 15.259 104.064 15.1212 104.52C15.0685 104.68 15.0097 104.896 14.9446 105.169C14.8796 105.441 14.8207 105.657 14.7681 105.817C14.7154 105.978 14.6806 106.214 14.6635 106.527C14.6464 106.839 14.6115 107.076 14.5589 107.236C14.5205 107.306 14.4822 107.376 14.4439 107.446C14.4056 107.516 14.3663 107.575 14.3261 107.623C14.2858 107.671 14.2466 107.73 14.2082 107.8C14.1699 107.87 14.1316 107.94 14.0933 108.01C13.9037 108.382 13.75 108.784 13.6323 109.217C13.5146 109.649 13.3887 110.116 13.2548 110.616C13.2187 111.219 13.2257 111.807 13.2758 112.381C13.326 112.954 13.3272 113.476 13.2795 113.947C12.9557 114.309 12.7635 114.525 12.7032 114.597C12.6447 114.691 12.5331 114.812 12.3683 114.96C12.2216 115.062 12.062 115.142 11.8895 115.202C11.7591 115.235 11.5775 115.318 11.3445 115.449C11.014 115.989 10.7544 116.323 10.5656 116.451C10.4812 116.503 10.3969 116.554 10.3125 116.606C10.2301 116.68 10.1477 116.754 10.0653 116.828C9.90044 116.976 9.77778 117.097 9.69729 117.193C9.6168 117.289 9.49414 117.411 9.32931 117.559C8.86348 117.822 8.31991 117.958 7.69862 117.968C7.07733 117.978 6.51447 117.894 6.01006 117.716C5.87472 117.439 5.76144 117.16 5.6702 116.879C5.8061 116.401 5.86151 116.018 5.83643 115.731C6.02414 115.337 6.1898 114.945 6.33342 114.555C6.4751 114.142 6.58371 113.733 6.65924 113.326C6.81223 112.535 7.11433 111.798 7.56556 111.114C7.64412 110.996 7.71262 110.89 7.77106 110.796C7.84962 110.678 7.90709 110.573 7.94347 110.481C7.97986 110.389 8.02727 110.296 8.08571 110.202C8.16426 110.084 8.24282 109.966 8.32138 109.848C8.42861 109.55 8.54686 109.25 8.67614 108.95C8.80349 108.628 8.94283 108.316 9.09416 108.014C9.24356 107.69 9.37091 107.367 9.47621 107.047C9.60355 106.725 9.70789 106.394 9.78921 106.053C10.1398 105.489 10.3835 104.846 10.5202 104.123C10.6569 103.4 10.8306 102.718 11.0412 102.077C11.1848 101.687 11.3164 101.287 11.4361 100.876C11.5557 100.466 11.6744 100.044 11.7921 99.6118C12.0236 98.7028 12.3459 97.9413 12.7588 97.3275C12.8478 97.0753 12.9368 96.8231 13.0259 96.5709C13.135 96.2947 13.2451 96.0295 13.3562 95.7754C13.4673 95.5212 13.5674 95.2681 13.6564 95.0158C13.7656 94.7397 13.8647 94.4755 13.9537 94.2232C13.9843 94.065 14.0149 93.9068 14.0455 93.7486C14.0761 93.5904 14.1067 93.4322 14.1373 93.2739C14.1679 93.1157 14.1985 92.9575 14.2291 92.7993C14.2817 92.6392 14.3344 92.479 14.387 92.3189L14.7145 91.4903C14.7691 91.3522 14.8237 91.2141 14.8782 91.076C14.9529 90.9139 15.0276 90.7519 15.1023 90.5898C15.3102 90.1716 15.4791 89.6902 15.6092 89.1456C15.6762 88.8953 15.7432 88.645 15.8102 88.3947C15.8772 88.1445 15.9552 87.8932 16.0442 87.641C16.5564 86.1297 17.0724 84.6625 17.5923 83.2393C18.1121 81.8162 18.6282 80.349 19.1403 78.8377C19.2905 78.269 19.4417 77.7114 19.5939 77.1648C19.7681 76.6163 19.9433 76.0788 20.1194 75.5523C20.4659 74.4332 20.7722 73.3621 21.0382 72.3389C20.9059 72.3505 20.7803 72.4393 20.6615 72.6052C20.5829 72.7232 20.4833 72.8541 20.3626 72.998C20.1498 73.1055 19.9609 73.2331 19.7961 73.3808C19.6313 73.5286 19.4463 73.7003 19.2412 73.896C18.6825 74.3671 18.0913 74.9743 17.4675 75.7177C17.2624 75.9134 17.0252 76.123 16.7559 76.3465C16.4866 76.5701 16.2274 76.7816 15.9782 76.9812C15.221 77.4696 14.5788 77.748 14.0515 77.8164C13.7061 77.4244 13.5425 77.2054 13.5607 77.1594C13.5789 77.1133 13.5611 77.0371 13.5074 76.9307C13.3519 76.6777 13.198 76.5689 13.0455 76.6045C12.8931 76.6401 12.7813 76.5054 12.7102 76.2005C12.6314 75.8075 12.5823 75.5007 12.563 75.2802C12.5341 74.9494 12.555 74.6809 12.6259 74.4748C12.6987 74.2906 12.8256 74.0907 13.0067 73.8748C13.1878 73.659 13.3809 73.4533 13.586 73.2576C13.7431 73.0216 13.9021 72.8077 14.0631 72.6159C14.2442 72.4 14.4272 72.2063 14.6122 72.0345C15.2878 71.3755 16.0152 70.8008 16.7944 70.3104C17.0398 70.0668 17.3402 69.8183 17.6958 69.565C18.0514 69.3117 18.3758 69.0833 18.6691 68.8799C19.0285 68.6707 19.3918 68.5056 19.759 68.3846C20.1903 68.2357 20.5115 68.0966 20.7223 67.967C20.9111 67.8394 21.1406 67.5416 21.4107 67.0735C21.6809 66.6055 21.8864 66.2875 22.0272 66.1197C22.3836 65.6219 22.7315 65.2804 23.0708 65.0951C23.3881 64.9118 23.6152 64.7142 23.7522 64.5023C23.871 64.3363 23.9519 64.1181 23.9949 63.8477C24.0398 63.5994 24.1428 63.3793 24.3038 63.1875C24.5816 62.8076 24.8389 62.574 25.0757 62.4867C25.3125 62.3993 25.6831 62.4446 26.1875 62.6227L27.1136 62.5417C27.3783 62.5185 27.5585 62.5472 27.6544 62.6277C27.9345 62.7809 28.2573 63.0415 28.6228 63.4095C28.9883 63.7775 29.1922 64.2041 29.2347 64.6892C29.2732 65.1302 29.2457 65.577 29.152 66.0296C29.1051 66.2559 29.0582 66.4822 29.0114 66.7085C28.9866 66.9329 28.9618 67.1573 28.9369 67.3816C28.5042 68.5305 28.0733 69.7014 27.6444 70.8944C27.2155 72.0873 26.8087 73.2784 26.4239 74.4675C26.2783 74.8357 26.1548 75.2021 26.0534 75.5664C25.9519 75.9308 25.8505 76.2952 25.7491 76.6596C25.6782 76.8658 25.6534 77.0902 25.6746 77.3327C25.6939 77.5533 25.5991 77.7393 25.3902 77.8909C25.0922 78.2947 24.8824 78.6908 24.7609 79.0792C24.6556 79.3995 24.5023 79.6795 24.3011 79.9193L23.9794 80.814C23.9248 80.9521 23.8712 81.1013 23.8186 81.2614C23.764 81.3995 23.7104 81.5486 23.6577 81.7088C23.542 82.1633 23.4875 82.5569 23.4944 82.8896C23.4994 83.2003 23.4488 83.638 23.3426 84.2028C23.2872 84.5853 23.1575 85.0078 22.9536 85.47C22.8626 85.7002 22.7716 85.9303 22.6807 86.1605C22.5878 86.3686 22.5069 86.5868 22.438 86.815C22.3451 87.0231 22.2632 87.2302 22.1924 87.4364C22.1215 87.6426 22.0507 87.8488 21.9798 88.0549C21.909 88.2611 21.8382 88.4673 21.7673 88.6735C21.6965 88.8797 21.6146 89.0868 21.5217 89.2949ZM53.9495 77.4588L54.6284 77.5993C54.7262 77.7019 54.7819 77.8303 54.7954 77.9847C54.805 78.0949 54.8808 78.1994 55.0228 78.2981C54.9693 78.7027 54.9278 79.1174 54.8983 79.5422C54.8688 79.9669 54.8714 80.3778 54.9062 80.7747C54.9197 80.9291 54.9883 81.0786 55.1121 81.2233C55.2358 81.368 55.3025 81.4955 55.3122 81.6058C55.136 82.1322 54.9977 82.4554 54.8971 82.5753C54.7964 82.6952 54.751 82.8103 54.7606 82.9206C54.5478 83.0281 54.394 83.1748 54.2992 83.3609C54.2044 83.5469 54.0246 83.6515 53.76 83.6747C53.6834 83.8147 53.5929 83.9226 53.4884 83.9984C53.3638 84.0982 53.2972 84.2262 53.2887 84.3825C52.588 84.7549 51.7922 84.8023 50.9014 84.5247C50.6221 84.127 50.2883 83.8673 49.9 83.7458C49.2533 82.958 49.1445 81.9676 49.5734 80.7746C49.6423 80.5464 49.7213 80.3062 49.8103 80.054C49.8993 79.8018 49.9841 79.6277 50.0646 79.5318C50.4987 79.1605 50.8322 78.9091 51.0652 78.7777C51.1495 78.7258 51.2338 78.674 51.3182 78.6222C51.4227 78.5464 51.5161 78.4716 51.5985 78.3977C51.7432 78.2739 51.9651 78.1434 52.2642 78.0062C52.3926 77.9505 52.512 77.9178 52.6223 77.9082C52.7987 77.8927 52.9602 77.8342 53.1068 77.7325C53.1931 77.7027 53.2684 77.6739 53.3326 77.646C53.4189 77.6163 53.4941 77.5875 53.5583 77.5596C53.7309 77.5001 53.8613 77.4665 53.9495 77.4588ZM46.5904 107.633L46.9327 107.736C47.3142 107.525 47.7935 107.417 48.3707 107.411C48.97 107.403 49.4253 107.274 49.7368 107.024C49.9419 106.829 50.0847 106.683 50.1652 106.587C50.2859 106.443 50.4364 106.385 50.6167 106.414C51.2991 106.088 51.8714 105.771 52.3333 105.464C52.8174 105.155 53.3292 104.91 53.8689 104.73C54.2102 104.567 54.5015 104.341 54.743 104.053C55.622 103.688 56.3471 103.213 56.9182 102.63C57.5114 102.045 58.1568 101.422 58.8545 100.761C59.441 100.354 59.9322 99.9997 60.3281 99.6984C60.7239 99.3971 61.147 99.0268 61.5974 98.5874C61.6864 98.3352 61.7932 98.1592 61.9178 98.0595C62.0223 97.9837 62.131 97.8297 62.2441 97.5976C63.0379 97.5282 63.5059 97.7983 63.6482 98.408C63.4701 98.9124 63.2071 99.3354 62.8593 99.6769C62.4913 100.042 62.1804 100.425 61.9265 100.825C61.593 101.076 61.3237 101.3 61.1186 101.496C60.9135 101.691 60.7161 101.975 60.5265 102.347C60.5044 102.349 60.3808 102.46 60.1556 102.68C59.9525 102.898 59.8288 103.008 59.7847 103.012C59.4686 103.462 59.2261 103.739 59.0575 103.842C58.8888 103.946 58.6003 104.205 58.1921 104.618C57.9479 105.128 57.5857 105.56 57.1055 105.913C56.2364 106.9 55.2996 107.749 54.2952 108.459C53.7709 108.816 53.2807 109.181 52.8245 109.554C52.3664 109.905 51.9303 110.254 51.5163 110.602C51.3074 110.753 51.1636 110.888 51.0851 111.006C51.0065 111.124 50.8647 111.281 50.6596 111.476C50.4545 111.672 50.1282 111.879 49.6805 112.095C49.2329 112.312 48.8384 112.502 48.4972 112.666C48.226 112.867 47.995 113.021 47.8042 113.126C46.8158 113.257 46.0525 113.168 45.5145 112.86C44.9142 112.601 44.4519 112.397 44.1278 112.248C43.8036 112.099 43.5139 111.835 43.2587 111.457C42.7303 111.259 42.3969 110.877 42.2585 110.312C42.1874 110.007 42.1062 109.714 42.015 109.433C41.9238 109.152 41.8325 108.871 41.7413 108.59C41.6779 108.374 41.6116 108.124 41.5424 107.841C41.4733 107.558 41.4472 107.261 41.4643 106.948C41.5302 106.431 41.551 105.907 41.5268 105.376C41.5064 104.889 41.5751 104.405 41.7331 103.925C41.893 103.467 41.9718 102.971 41.9696 102.438C41.9674 101.905 42.0463 101.409 42.2061 100.951C42.4542 100.484 42.5543 100.231 42.5063 100.191C42.4823 100.171 42.4876 100.104 42.522 99.9897L42.785 99.5667C42.8434 99.4727 42.9291 99.3097 43.0422 99.0776L43.3523 98.0506C43.5179 97.6583 43.6894 97.3322 43.8666 97.0723C44.0419 96.7903 44.1855 96.4 44.2975 95.9014C44.3807 95.583 44.4808 95.3299 44.5976 95.1419C44.6762 95.0239 44.7437 94.9069 44.8002 94.7909C44.8769 94.6508 44.9535 94.5108 45.0301 94.3708C45.1211 94.1406 45.2072 93.8553 45.2885 93.5149C45.3191 93.3567 45.3507 93.2095 45.3832 93.0734C45.4359 92.9132 45.4885 92.7531 45.5412 92.5929C45.6426 92.2285 45.7771 91.8612 45.9447 91.4911C46.1123 91.1209 46.2909 90.7497 46.4806 90.3776C46.6261 90.0094 46.7573 89.7312 46.8742 89.5433C46.9911 89.3553 47.2461 89.2219 47.6391 89.143C47.8337 89.0816 48.0331 89.0752 48.2374 89.124C48.4857 89.169 48.7053 89.1386 48.896 89.0331C49.4462 88.7183 49.8316 88.5513 50.0521 88.532C50.2726 88.5127 50.4212 88.433 50.4978 88.293C50.9628 88.2745 51.3291 88.398 51.5968 88.6635C51.8625 88.9069 52.1502 89.1483 52.46 89.3879C52.3073 90.69 52.0955 91.6973 51.8245 92.4098C51.5536 93.1224 51.2524 93.8709 50.9211 94.6553C50.7314 95.0274 50.5457 95.4436 50.3637 95.904C50.1818 96.3643 50.0181 96.7786 49.8725 97.1468C49.6945 97.6512 49.5005 98.1015 49.2908 98.4976C49.0427 98.9637 48.8708 99.412 48.7752 99.8426L48.5325 100.497C48.4233 100.773 48.3424 100.991 48.2898 101.152C48.2592 101.31 48.2175 101.469 48.1649 101.629C48.1324 101.765 48.0768 101.892 47.9983 102.01C47.9197 102.128 47.8531 102.256 47.7986 102.394C47.7421 102.51 47.6855 102.627 47.629 102.743C47.5199 103.019 47.4107 103.295 47.3016 103.571C47.1924 103.847 47.1072 104.144 47.046 104.46C46.868 104.964 46.7636 105.296 46.733 105.454C46.7148 105.5 46.6976 105.557 46.6814 105.625C46.6632 105.671 46.645 105.717 46.6268 105.763C46.581 106.256 46.4834 106.665 46.334 106.989C46.1846 107.313 46.2701 107.528 46.5904 107.633ZM63.6556 101.54C63.8741 101.499 64.0419 101.384 64.1587 101.196C64.2373 101.078 64.3791 100.922 64.5842 100.726C64.6465 100.676 64.7088 100.626 64.7711 100.576C64.8334 100.526 64.9067 100.475 64.991 100.424C65.0754 100.372 65.1487 100.321 65.211 100.271C65.2733 100.221 65.3356 100.171 65.3979 100.121C65.9346 99.6523 66.3921 99.1678 66.7706 98.6681C67.151 98.1904 67.5884 97.73 68.0829 97.2868C68.3407 96.9309 68.6003 96.5971 68.8619 96.2854C69.1436 95.9496 69.4153 95.6259 69.6768 95.3142C70.1818 94.7367 70.6671 94.061 71.1327 93.287C71.792 92.696 72.4034 92.0648 72.9668 91.3934C73.3626 91.0921 73.6822 90.8086 73.9256 90.5429C74.169 90.2772 74.5107 89.9918 74.9506 89.6866C75.1479 89.4027 75.3654 89.0948 75.603 88.763C75.8406 88.4311 76.1262 88.1395 76.4597 87.8881C76.8018 87.4804 77.1645 87.1821 77.548 86.993C77.9314 86.8039 78.2941 86.5055 78.6362 86.0978C79.2669 85.6872 79.8574 85.5799 80.4079 85.7762C80.9583 85.9725 81.4033 86.2335 81.7429 86.5593C81.932 86.9427 82.2333 87.3385 82.6467 87.7468C82.6966 87.8091 82.7465 87.8714 82.7964 87.9337C82.8463 87.9959 82.8952 88.0472 82.9432 88.0875C83.0391 88.168 83.0977 88.3295 83.1189 88.572C83.1633 89.0792 83.1415 89.5922 83.0535 90.1109C83.0086 90.3593 82.9637 90.6076 82.9188 90.856C82.8959 91.1024 82.873 91.3488 82.8501 91.5953C82.833 91.9078 82.8269 92.2194 82.8319 92.5301C82.8349 92.8187 82.8389 93.1183 82.8439 93.4289C82.872 94.0042 82.8258 94.6193 82.7054 95.2742C82.9788 95.6058 83.2211 95.9623 83.4322 96.3438C83.6453 96.7474 83.8837 97.0598 84.1475 97.2812C84.2999 97.2456 84.4829 97.0518 84.6966 96.6998C84.7991 96.602 84.9026 96.5152 85.0071 96.4394C85.1317 96.3396 85.2673 96.2388 85.4139 96.1371C85.7072 95.9337 85.9444 95.7241 86.1255 95.5083C86.2865 95.3164 86.4374 95.1366 86.5782 94.9687C86.7191 94.8008 86.8609 94.644 87.0037 94.4982C87.3094 94.1826 87.5801 93.8478 87.8157 93.4939C87.9566 93.326 88.0984 93.1692 88.2412 93.0234C88.382 92.8555 88.5239 92.6987 88.6666 92.5529C88.8094 92.4071 88.9522 92.2613 89.095 92.1155C89.2579 91.9457 89.4208 91.7759 89.5837 91.6061C89.7447 91.4142 89.8946 91.2234 90.0336 91.0334C90.1706 90.8215 90.3085 90.6205 90.4474 90.4306C90.5864 90.2407 90.7253 90.0508 90.8642 89.8609C91.0012 89.6489 91.1502 89.447 91.3112 89.2552C91.4482 89.0432 91.5809 88.9094 91.7093 88.8537C91.8579 88.774 91.9666 88.6201 92.0356 88.3919C92.3528 88.2086 92.6293 87.94 92.865 87.586C93.0805 87.2561 93.403 87.0057 93.8325 86.8348C94.2696 86.7521 94.5563 86.727 94.6925 86.7596C94.8286 86.7921 95.0406 86.9291 95.3284 87.1705C95.5624 87.3056 95.7471 87.5117 95.8824 87.7887C96.0177 88.0657 96.2024 88.2717 96.4364 88.4068C96.9028 89.1659 97.254 89.624 97.4899 89.7812C97.6751 90.1205 97.7391 90.4704 97.6817 90.8309L97.4766 91.9154C97.4777 92.182 97.475 92.4044 97.4684 92.5828C97.4598 92.739 97.4484 92.8623 97.434 92.9524C97.4197 93.0425 97.4054 93.1327 97.391 93.2228C97.3767 93.3129 97.3633 93.4141 97.3509 93.5263C97.2214 95.093 96.9556 96.6272 96.5537 98.1289C96.6028 98.4357 96.719 98.7477 96.9023 99.065C97.0577 99.318 97.1356 99.7 97.1359 100.211C97.4043 100.232 97.6579 100.21 97.8966 100.145C98.1353 100.079 98.341 100.017 98.5135 99.9572C99.4069 99.5013 100.246 98.939 101.032 98.2703C101.567 97.7792 102.125 97.2971 102.706 96.8241C103.307 96.3271 103.864 95.845 104.379 95.3778C104.564 95.2061 104.726 95.0253 104.865 94.8354C105.004 94.6455 105.166 94.4646 105.351 94.2929C105.761 93.9015 106.166 93.5772 106.565 93.3201C106.965 93.0629 107.376 92.8048 107.797 92.5457C108.006 92.3941 108.171 92.2463 108.292 92.1024C108.413 91.9586 108.553 91.7907 108.714 91.5988C108.916 91.359 109.204 91.1005 109.58 90.8232C109.956 90.5459 110.312 90.3036 110.649 90.0964C111.265 90.0203 111.593 90.0915 111.635 90.3101L111.789 90.9299C111.25 91.377 110.746 91.8322 110.275 92.2955C109.805 92.7589 109.324 93.2342 108.834 93.7216C108.709 93.8213 108.594 93.9091 108.49 93.9849C108.385 94.0607 108.227 94.1524 108.014 94.2599C107.849 94.4076 107.739 94.5395 107.682 94.6555C107.626 94.7716 107.493 94.9054 107.284 95.057C107.161 95.1788 107.039 95.3007 106.916 95.4225C106.791 95.5223 106.668 95.6331 106.545 95.7549C106.298 95.9765 106.074 96.2072 105.872 96.447C105.583 96.6946 105.315 96.9402 105.07 97.1838C104.825 97.4275 104.602 97.6692 104.4 97.909C104.179 98.1728 104.002 98.4327 103.869 98.6888C103.756 98.9209 103.556 99.1827 103.271 99.4744C103.058 99.5819 102.88 99.7085 102.737 99.8543L102.276 100.295C102.211 100.567 102.165 100.804 102.138 101.007C102.132 101.185 102.018 101.406 101.796 101.67C101.471 102.009 101.279 102.237 101.223 102.353C101.166 102.469 101.078 102.599 100.957 102.743C100.875 102.817 100.727 102.908 100.514 103.015C100.428 103.045 100.343 103.086 100.258 103.138C100.174 103.189 100.09 103.241 100.005 103.293C99.8164 103.421 99.6315 103.592 99.4504 103.808C99.3699 103.904 99.2784 104.001 99.1758 104.099C99.0953 104.195 99.0038 104.292 98.9013 104.39C98.7345 104.515 98.5778 104.629 98.4312 104.731C98.2845 104.832 98.1599 104.932 98.0574 105.03C97.8926 105.178 97.5834 105.327 97.13 105.478C96.6939 105.827 96.3757 105.999 96.1753 105.995C96.0411 105.984 95.8215 106.014 95.5167 106.085C95.4103 106.139 95.3072 106.104 95.2074 105.979C95.1076 105.855 94.9806 105.799 94.8262 105.813C94.5164 105.573 94.2862 105.482 94.1357 105.54C93.9632 105.599 93.8069 105.591 93.6669 105.514C93.1815 105.045 92.9282 104.69 92.9069 104.447C92.8954 104.315 92.8728 104.184 92.8391 104.053C92.8256 103.899 92.8011 103.746 92.7656 103.593C92.6195 102.939 92.4724 102.274 92.3244 101.599C92.1764 100.923 92.0476 100.212 91.9379 99.466C91.9108 99.1572 91.9188 98.8677 91.9618 98.5973C92.0211 98.2588 92.0512 97.9673 92.052 97.7228C92.0423 97.6126 92.0058 97.4491 91.9424 97.2325C91.879 97.0158 91.8444 96.8744 91.8387 96.8082C91.85 96.4295 91.8872 96.093 91.9503 95.7986C92.0154 95.5262 92.0104 95.2156 91.9354 94.8666C91.6777 95.2225 91.4492 95.5313 91.2499 95.7932C91.0487 96.033 90.8776 96.2368 90.7368 96.4047C90.5959 96.5726 90.4551 96.7404 90.3142 96.9083C90.1954 97.0742 90.0776 97.2512 89.9607 97.4392C89.3119 97.8959 88.7723 98.3319 88.342 98.7473C87.8916 99.1867 87.3242 99.5585 86.6398 99.8628C86.3581 100.199 86.0754 100.523 85.7918 100.837C85.5283 101.127 85.2638 101.405 84.9983 101.673C84.7329 101.941 84.4583 102.231 84.1747 102.545C83.9112 102.835 83.6386 103.147 83.3569 103.483C82.7121 104.495 81.98 105.27 81.1606 105.808C80.8596 105.924 80.6218 106 80.4473 106.037C80.2729 106.075 80.0916 106.035 79.9036 105.918C78.9312 105.47 78.3201 104.835 78.0704 104.012C77.8207 103.19 77.7617 102.262 77.8935 101.228C77.6583 100.826 77.6283 100.229 77.8033 99.436C77.9985 98.619 77.9924 98.0419 77.7852 97.7045C77.8224 97.3679 77.8706 97.0304 77.9299 96.6919C77.9872 96.3314 78.0556 95.9699 78.135 95.6074C78.2144 95.2449 78.2727 94.8954 78.3099 94.5589C78.3672 94.1983 78.4035 93.8508 78.4186 93.5161C78.6121 93.1881 78.624 92.9427 78.4542 92.7798C78.2844 92.6169 78.1276 92.475 77.9837 92.3543C77.2725 92.8609 76.6012 93.4418 75.9697 94.097C75.3382 94.7522 74.6966 95.4194 74.045 96.0986C73.8821 96.2683 73.7192 96.4381 73.5563 96.6079C73.4135 96.7537 73.2607 96.9115 73.0978 97.0813C72.9569 97.2492 72.8051 97.418 72.6421 97.5878C72.4773 97.7356 72.3134 97.8943 72.1505 98.0641L71.1702 99.0498C70.8224 99.3913 70.5416 99.7381 70.328 100.09C70.076 100.512 69.8677 100.797 69.7028 100.945L69.3018 101.313C69.113 101.441 68.9481 101.588 68.8073 101.756C68.7268 101.852 68.6041 101.974 68.4393 102.122C68.3166 102.244 68.1489 102.358 67.9361 102.466L67.361 102.749C67.1118 102.949 66.8564 103.205 66.5948 103.516C66.3332 103.828 66.1018 104.104 65.9006 104.344C65.7396 104.536 65.5566 104.729 65.3515 104.925C65.1263 105.145 64.9654 105.337 64.8686 105.501C64.6368 105.899 64.3518 106.323 64.0136 106.775C63.8746 106.965 63.7256 107.167 63.5666 107.381C63.4277 107.571 63.2897 107.772 63.1527 107.984C63.148 108.184 63.0451 108.404 62.8439 108.644L62.2704 109.327C62.1899 109.423 62.1104 109.53 62.0318 109.648C61.9513 109.744 61.8608 109.852 61.7602 109.972C61.6011 110.186 61.4051 110.359 61.1722 110.49L60.7178 110.63C60.4791 110.695 60.3075 110.766 60.2031 110.842C60.0746 110.897 59.9462 110.953 59.8177 111.009C59.6692 111.088 59.5206 111.168 59.372 111.248C59.0969 111.405 58.77 111.478 58.3913 111.467L57.5888 111.437C57.3884 111.432 57.1592 111.352 56.9012 111.197C56.8703 110.844 56.7388 110.611 56.5068 110.498C56.5649 109.893 56.6619 109.352 56.7978 108.873C56.9318 108.372 57.0308 107.853 57.0947 107.314C57.385 106.822 57.5952 106.304 57.7253 105.759C57.8554 105.214 58.0396 104.654 58.2781 104.077C58.4283 103.509 58.6097 102.915 58.8222 102.297L59.3779 100.648C59.443 100.376 59.498 100.115 59.5429 99.8671C59.6099 99.6168 59.6668 99.3785 59.7137 99.1522C59.8055 98.6775 59.9471 98.2652 60.1387 97.9151C60.3849 97.427 60.5103 97.0827 60.515 96.8823C60.9499 96.2665 61.1404 95.6499 61.0864 95.0325C61.3058 94.7467 61.4494 94.3564 61.5172 93.8616C61.587 93.3889 61.6826 92.9583 61.8042 92.57C61.877 92.3858 61.9406 92.2247 61.9952 92.0866C62.0498 91.9485 62.0895 91.7673 62.1143 91.5429C62.1333 91.2524 62.126 91.0419 62.0924 90.9116C62.0549 90.7371 62.0917 90.5228 62.2028 90.2686C62.2814 90.1507 62.3609 90.0437 62.4414 89.9478C62.5219 89.8519 62.6023 89.756 62.6828 89.66C62.7633 89.5641 62.8438 89.4682 62.9243 89.3723C63.0048 89.2763 63.0843 89.1694 63.1629 89.0514C63.3594 89.012 63.5041 88.8883 63.597 88.6801C63.6918 88.4941 63.8126 88.3502 63.9592 88.2485C64.4308 88.0517 64.6968 87.9173 64.7572 87.8454C64.8377 87.7495 64.8889 87.7005 64.911 87.6986L65.8599 87.1156C65.9222 87.0658 65.9854 87.0269 66.0497 86.999C66.134 86.9472 66.2183 86.8954 66.3027 86.8436C66.387 86.7918 66.4613 86.7519 66.5256 86.7241C66.5898 86.6963 66.643 86.6694 66.6851 86.6435C66.7273 86.6176 66.7805 86.5907 66.8447 86.5629C66.909 86.535 66.9833 86.4952 67.0676 86.4434C67.1682 86.3235 67.333 86.1757 67.5621 86.0001C67.7912 85.8246 67.956 85.6768 68.0566 85.5569C68.5131 85.6947 68.912 85.9376 69.2536 86.2855C69.5951 86.6333 69.7267 87.1217 69.6484 87.7508C69.6236 87.9751 69.5758 88.1904 69.5049 88.3966C69.4341 88.6028 69.3623 88.7979 69.2895 88.982C69.2369 89.1422 69.2001 89.3565 69.1791 89.625C69.1581 89.8934 69.1194 90.0857 69.0629 90.2017C68.8024 90.78 68.6397 91.2053 68.5746 91.4777C68.4933 91.8181 68.4071 92.1034 68.3162 92.3335C68.1649 92.6356 68.0356 92.9358 67.9283 93.234C67.8269 93.5984 67.7307 93.8957 67.6397 94.1259C67.5488 94.356 67.4027 94.591 67.2015 94.8308C67.0443 95.0668 66.9255 95.2327 66.8451 95.3286C66.7042 95.4965 66.5873 95.6845 66.4944 95.8926C66.3574 96.1045 66.2214 96.3275 66.0863 96.5615C65.9513 96.7956 65.8172 97.0406 65.684 97.2967C65.4379 97.7848 65.1457 98.2548 64.8075 98.7065L64.2286 100.09C64.0448 100.529 63.8538 101.012 63.6556 101.54ZM175.24 48.9157L175.07 49.2638C175.586 49.5742 175.725 50.0176 175.487 50.5939C175.248 51.1703 174.998 51.7366 174.735 52.2928C174.657 52.4108 174.579 52.5398 174.502 52.6798C174.446 52.7959 174.389 52.9119 174.333 53.028C174.22 53.2601 174.102 53.437 173.979 53.5588C173.685 54.2512 173.427 54.7404 173.208 55.0262C173.109 55.1682 173 55.3221 172.882 55.488C172.783 55.63 172.685 55.783 172.589 55.947C172.494 56.133 172.41 56.3181 172.337 56.5022C172.262 56.6643 172.188 56.8264 172.113 56.9885C172.038 57.1505 171.953 57.3136 171.856 57.4776C171.781 57.6397 171.684 57.8037 171.566 57.9696C171.48 58.2659 171.37 58.5311 171.235 58.7651C171.082 59.0451 170.95 59.3122 170.839 59.5664C170.713 59.9106 170.61 60.1307 170.53 60.2267C170.449 60.3226 170.401 60.4046 170.385 60.4727C170.326 60.5667 170.263 60.7278 170.194 60.956C170.125 61.1842 170.061 61.3453 170.003 61.4393C169.771 61.8374 169.557 62.1893 169.362 62.4953C169.188 62.7993 169.033 63.0573 168.896 63.2693C168.82 63.4093 168.765 63.5474 168.733 63.6836C168.72 63.7958 168.642 63.9137 168.497 64.0375C168.262 64.658 167.982 65.2602 167.655 65.8443C167.328 66.4284 167.048 67.0307 166.813 67.6511L166.634 68.2668C166.619 68.3569 166.595 68.459 166.561 68.5731C166.524 68.6652 166.489 68.7683 166.454 68.8824L166.272 69.465C166.203 69.6932 166.142 69.8874 166.09 70.0475C166.021 70.2757 165.897 70.5088 165.718 70.7467C165.538 70.9845 165.464 71.2799 165.495 71.6327C165.293 72.117 165.103 72.6114 164.925 73.1158C164.745 73.5981 164.567 74.1026 164.391 74.629C164.213 75.1335 164.036 75.6489 163.859 76.1754C163.681 76.6798 163.492 77.1852 163.292 77.6915C163.675 77.7469 164.005 77.718 164.284 77.6047C164.563 77.4914 164.866 77.3983 165.193 77.3252C165.823 77.159 166.424 77.0398 166.995 76.9676C167.302 76.9185 167.608 76.8584 167.913 76.7873C168.215 76.6942 168.528 76.589 168.851 76.4719C169.256 76.5254 169.717 76.4628 170.235 76.2842C170.444 76.1326 170.681 76.0452 170.945 76.0221C171.184 75.9567 171.383 75.9504 171.544 76.003C171.704 76.0557 171.903 76.0494 172.142 75.984C172.408 75.9829 172.607 75.9656 172.737 75.9319C172.866 75.8763 172.978 75.8887 173.074 75.9692C172.993 76.0651 172.917 76.2051 172.844 76.3892C172.771 76.5734 172.825 76.6798 173.005 76.7084C172.621 77.142 172.211 77.4112 171.776 77.5159C171.557 77.5572 171.34 77.6096 171.123 77.673C170.928 77.7345 170.723 77.7969 170.506 77.8603C170.437 78.0885 170.287 78.2794 170.056 78.4329C169.825 78.5865 169.561 78.7429 169.264 78.9022C169.007 79.0136 168.76 79.1129 168.524 79.2003C168.287 79.2877 168.03 79.2768 167.754 79.1676C167.431 79.2848 167.148 79.3539 166.906 79.3752C166.663 79.3964 166.38 79.4656 166.057 79.5827C165.885 79.6422 165.712 79.7018 165.54 79.7613C165.367 79.8209 165.239 79.8765 165.154 79.9284L164.427 79.992C163.699 80.0557 163.113 80.218 162.669 80.4791C162.46 80.6307 162.333 80.8196 162.286 81.0459C162.257 81.2262 162.177 81.4554 162.046 81.7335C161.857 83.1277 161.488 84.5042 160.941 85.8631C160.666 86.5315 160.402 87.199 160.149 87.8655C159.895 88.5099 159.65 89.1424 159.415 89.7628C159.161 90.4073 158.906 91.0517 158.651 91.6962C158.417 92.3166 158.182 92.9371 157.948 93.5575C157.498 94.7745 156.933 95.9349 156.252 97.0389C155.832 98.0755 155.271 98.9023 154.57 99.5192C154.22 99.8386 153.86 100.17 153.49 100.514C153.118 100.835 152.747 101.167 152.377 101.511C152.14 101.843 151.872 102.088 151.575 102.248C151.278 102.407 151.011 102.652 150.773 102.984C150.378 103.041 150.128 103.107 150.024 103.183C149.96 103.211 149.882 103.218 149.792 103.203C149.45 103.1 149.099 103.153 148.74 103.362C148.505 103.472 148.258 103.571 147.999 103.66C147.764 103.77 147.507 103.881 147.228 103.994C146.649 104.223 146.213 104.45 145.922 104.675C145.226 104.847 144.836 104.97 144.754 105.044C144.629 105.144 144.503 105.222 144.374 105.277C144.062 105.26 143.885 105.276 143.845 105.324C143.805 105.372 143.741 105.399 143.652 105.407C143.396 105.518 143.083 105.624 142.713 105.723C142.344 105.822 142.048 105.859 141.823 105.834C141.619 105.785 141.325 105.722 140.94 105.644C140.576 105.543 140.359 105.473 140.289 105.435C140.241 105.395 140.184 105.377 140.117 105.383C139.931 105.288 139.719 105.274 139.48 105.339C139.328 105.374 139.095 105.384 138.783 105.367C138.488 105.303 138.074 105.262 137.539 105.242C137.314 105.217 137.079 105.193 136.832 105.171C136.61 105.168 136.387 105.154 136.162 105.129C135.954 105.036 135.757 104.942 135.571 104.848C135.385 104.753 135.199 104.658 135.013 104.563C134.709 104.39 134.307 104.247 133.809 104.135C133.597 103.998 133.386 103.872 133.176 103.757C132.986 103.618 132.798 103.502 132.612 103.407C132.286 103.235 131.907 102.968 131.475 102.606C130.823 102.263 130.248 101.78 129.749 101.157C129.645 100.989 129.529 100.81 129.402 100.621C129.274 100.432 129.116 100.28 128.928 100.163C128.763 99.7994 128.596 99.5363 128.426 99.3733C128.28 99.2306 128.135 98.9655 127.99 98.5783C127.748 98.355 127.575 98.0257 127.47 97.5905C127.369 97.1994 127.154 96.896 126.824 96.6805C126.689 96.159 126.605 95.5775 126.571 94.9361C126.537 94.2947 126.516 93.6633 126.506 93.042C126.492 92.8877 126.452 92.6801 126.384 92.4194C126.317 92.1586 126.277 91.951 126.263 91.7967C126.229 91.3998 126.212 90.9568 126.214 90.4678C126.215 89.9788 126.433 89.6709 126.866 89.5442C127.517 88.5984 128.015 87.6883 128.36 86.8137C128.688 85.9851 129.283 85.422 130.146 85.1243C131.449 84.277 133.065 83.6913 134.992 83.3672C135.466 83.459 135.93 83.4295 136.384 83.2787C136.6 83.2153 136.817 83.1519 137.034 83.0885C137.272 83.0232 137.512 82.9689 137.753 82.9256C138.017 82.9025 138.279 82.8462 138.538 82.7569C138.797 82.6676 139.032 82.5692 139.245 82.4617C139.441 82.1558 139.553 81.7904 139.583 81.3657C139.612 80.9409 139.725 80.5755 139.92 80.2696C139.99 79.7969 140.098 79.3874 140.246 79.0412C140.413 78.671 140.526 78.3057 140.583 77.9451C140.616 77.809 140.648 77.6728 140.681 77.5366C140.735 77.3985 140.79 77.2604 140.845 77.1223C140.974 76.8222 141.079 76.5019 141.16 76.1615C141.883 74.7651 142.517 73.2542 143.064 71.6287C143.61 70.0033 144.147 68.3898 144.673 66.7884C144.73 66.6723 144.813 66.4762 144.922 66.2C145.015 65.9919 145.031 65.8016 144.972 65.6291C144.964 65.5408 144.907 65.4014 144.802 65.2106C144.696 65.0199 144.594 64.8622 144.494 64.7376C143.981 63.9603 143.645 63.1676 143.486 62.3594C143.355 61.882 143.284 61.4439 143.271 61.045C143.276 60.8446 143.269 60.6452 143.252 60.4467C143.233 60.2262 143.213 60.0057 143.194 59.7852C143.217 58.7832 143.267 57.8235 143.342 56.9059C143.613 56.7044 143.874 56.5039 144.123 56.3043C144.394 56.1028 144.654 55.9023 144.903 55.7027C145.38 55.3055 145.926 54.9467 146.542 54.6261C146.961 54.5894 147.3 54.6487 147.558 54.8039C147.78 54.8066 147.959 54.8133 148.093 54.8237C148.247 54.8102 148.368 54.7996 148.457 54.7919C148.633 54.7765 148.802 54.8061 148.964 54.8808C149.729 54.9916 150.319 55.3844 150.734 56.0592C151.171 56.732 151.495 57.5147 151.706 58.4072C151.937 59.2758 152.109 60.094 152.221 60.8619C152.296 61.2109 152.452 61.475 152.69 61.6541C152.928 61.8333 153.165 62.0015 153.401 62.1586C153.786 61.9915 154.182 61.8235 154.59 61.6546C154.997 61.4856 155.462 61.3339 155.983 61.1994C156.288 61.1283 156.547 61.039 156.76 60.9315C156.972 60.824 157.193 60.8047 157.421 60.8736C159.187 60.2303 160.883 59.5486 162.508 58.8287C164.134 58.1087 165.566 57.2057 166.804 56.1197C167.092 55.8502 167.38 55.5916 167.67 55.3441C167.981 55.0946 168.293 54.8452 168.604 54.5957C169.227 54.0968 169.779 53.5486 170.26 52.951C170.421 52.7592 170.571 52.5683 170.71 52.3784C170.871 52.1865 171.021 51.9957 171.16 51.8057C171.299 51.6158 171.438 51.4259 171.576 51.236C171.735 51.0221 171.895 50.8082 172.054 50.5943C172.149 50.1638 172.236 49.8895 172.315 49.7715C172.446 49.4934 172.586 49.3145 172.735 49.2349C172.883 49.1552 172.959 49.0042 172.962 48.7817C173.325 48.6166 173.586 48.5494 173.744 48.58L174.834 48.0847C175.074 48.2859 175.209 48.5629 175.24 48.9157ZM159.708 65.673C159.077 66.0837 158.389 66.4772 157.644 66.8534C156.9 67.2297 156.042 67.4602 155.072 67.5451C154.771 67.6603 154.464 67.7094 154.151 67.6923C153.905 67.6694 153.648 67.6475 153.379 67.6266C153.131 67.5816 152.87 67.5266 152.598 67.4616C152.326 67.3965 152.066 67.3526 151.82 67.3297C151.572 67.2848 151.335 67.2499 151.111 67.2251C150.95 66.9059 150.644 66.7104 150.193 66.6388C149.676 66.5729 149.27 66.4974 148.973 66.4122C148.846 66.7344 148.718 67.0456 148.588 67.3458C148.459 67.6459 148.33 67.9461 148.201 68.2463C148.071 68.5465 147.942 68.8466 147.813 69.1468C147.705 69.445 147.599 69.7543 147.494 70.0746C147.044 71.536 146.599 72.9303 146.16 74.2575C145.721 75.5847 145.204 76.9187 144.61 78.2594C144.388 78.7677 144.188 79.274 144.01 79.7784C143.832 80.2829 143.698 80.7834 143.608 81.2801C143.979 81.2032 144.35 81.1263 144.721 81.0494C145.09 80.9505 145.459 80.8515 145.828 80.7526C146.197 80.6536 146.567 80.5657 146.938 80.4888C147.33 80.3879 147.722 80.2981 148.115 80.2192C149.71 80.1685 151.391 79.9548 153.158 79.578C154.053 79.3887 154.927 79.2233 155.781 79.0819C156.633 78.9185 157.477 78.778 158.311 78.6606C158.442 78.3825 158.522 78.1533 158.551 77.973C158.597 77.7467 158.701 77.5377 158.862 77.3458C159.072 76.9497 159.191 76.6615 159.22 76.4813C159.247 76.279 159.289 76.1308 159.348 76.0368C159.443 75.8508 159.537 75.6647 159.632 75.4786C159.725 75.2705 159.808 75.0744 159.881 74.8903C159.975 74.7042 160.059 74.5191 160.132 74.335C160.225 74.1269 160.319 73.9298 160.414 73.7438L160.808 72.5427C160.881 72.3586 160.953 72.1634 161.024 71.9572C161.093 71.729 161.173 71.4998 161.264 71.2696C161.357 71.0615 161.45 70.8534 161.542 70.6453C161.657 70.4353 161.762 70.2372 161.857 70.0512C161.952 69.8651 162.046 69.6681 162.139 69.4599C162.254 69.2499 162.357 69.0408 162.45 68.8327C162.561 68.5786 162.673 68.3245 162.784 68.0703C162.895 67.8162 162.996 67.574 163.087 67.3439C163.271 66.9056 163.485 66.4314 163.729 65.9212C163.915 65.2605 164.145 64.8404 164.418 64.6609C164.399 64.4404 164.442 64.2923 164.546 64.2165C164.651 64.1407 164.693 63.9925 164.674 63.772C164.819 63.6483 164.907 63.5183 164.94 63.3821C164.993 63.222 165.059 63.0939 165.14 62.998C165.166 62.7957 165.253 62.6437 165.4 62.542C165.546 62.4403 165.613 62.3122 165.599 62.1579C164.519 62.7634 163.551 63.3814 162.695 64.0118C161.797 64.6681 160.801 65.2218 159.708 65.673ZM156.279 82.1047C155.627 82.2728 154.96 82.3978 154.279 82.4797C153.619 82.5596 153.046 82.743 152.56 83.03L149.359 83.7767C148.88 83.8853 148.402 84.0049 147.924 84.1355C147.469 84.2642 147.014 84.404 146.561 84.5548C145.959 84.7852 145.591 84.8952 145.457 84.8847C145.344 84.8723 145.169 84.8987 144.93 84.9641C144.387 85.1005 143.836 85.282 143.278 85.5086C142.74 85.7112 142.19 85.8927 141.626 86.0531C141.37 86.431 141.14 86.851 140.936 87.3133C140.732 87.7755 140.408 88.1372 139.965 88.3982C139.525 89.2144 139.119 90.0387 138.748 90.8711C138.564 91.3093 138.369 91.7486 138.163 92.1888C137.955 92.6069 137.748 93.0361 137.542 93.4763C137.16 93.4209 136.827 93.4278 136.544 93.4969C136.394 92.799 136.357 92.2468 136.433 91.8402C136.508 91.4336 136.613 90.9801 136.747 90.4795C136.781 90.3654 136.816 90.2513 136.85 90.1372C136.885 90.0231 136.92 89.92 136.957 89.8279C137.027 89.6217 137.077 89.4285 137.106 89.2482C137.106 88.7372 137.143 88.4006 137.218 88.2386C137.254 88.1465 137.29 88.0544 137.327 87.9624C137.361 87.8483 137.396 87.7342 137.43 87.62C136.953 87.7507 136.457 87.9274 135.943 88.1501C135.429 88.3728 134.99 88.6779 134.624 89.0655C134.278 89.1845 134.017 89.374 133.84 89.634C133.761 89.7519 133.673 89.8819 133.574 90.0238C133.474 90.1438 133.373 90.2637 133.272 90.3836C133.172 90.5035 133.059 90.6133 132.935 90.7131C132.83 90.7889 132.786 90.915 132.801 91.0914C132.947 91.7452 132.946 92.2452 132.799 92.5914C132.672 92.9136 132.535 93.2589 132.39 93.6271C132.264 93.9714 132.278 94.5146 132.432 95.2566C132.649 96.2153 133.007 97.0061 133.506 97.629C133.754 97.9184 133.99 98.2088 134.216 98.5002C134.463 98.7896 134.7 99.08 134.925 99.3714L135.308 99.9378C135.434 100.105 135.556 100.227 135.674 100.306C136.014 100.387 136.196 100.438 136.22 100.458C136.292 100.518 136.362 100.557 136.43 100.573C137.079 100.872 137.81 101.108 138.625 101.281C139.44 101.454 140.241 101.462 141.027 101.304C141.233 101.375 141.634 101.384 142.229 101.332C143.795 101.195 145.331 100.972 146.837 100.662C146.982 100.539 147.126 100.415 147.271 100.291C147.438 100.165 147.594 100.041 147.738 99.9168C148.028 99.6693 148.28 99.3806 148.496 99.0507C148.892 98.7494 149.2 98.4669 149.422 98.2031C149.643 97.9393 149.951 97.6568 150.347 97.3555L150.974 96.9007C151.308 96.6493 151.564 96.4047 151.743 96.1668C151.922 95.9289 152.129 95.622 152.363 95.2461L153.354 93.6261C153.725 93.0382 153.957 92.3957 154.052 91.6986C154.314 91.1424 154.527 90.5238 154.69 89.843C154.98 89.351 155.218 88.7746 155.405 88.1139C155.575 87.5213 155.792 86.9469 156.054 86.3906C156.235 85.6638 156.384 85.0841 156.502 84.6516C156.571 84.4234 156.64 84.1952 156.709 83.9669C156.777 83.7387 156.845 83.4994 156.912 83.2492C157.029 83.0612 157.154 82.8392 157.287 82.5831C157.42 82.327 157.475 82.0667 157.452 81.8021C157.026 81.7505 156.635 81.8514 156.279 82.1047ZM188.672 80.5372L188.652 81.0722C188.71 81.2227 188.689 81.4912 188.589 81.8777C188.392 82.1616 188.285 82.4598 188.267 82.7724C188.195 82.9565 188.131 83.1176 188.076 83.2557C188.022 83.3938 187.982 83.575 187.957 83.7994C187.892 84.0717 187.886 84.3834 187.939 84.7342C187.977 84.9087 187.992 85.0851 187.985 85.2635C187.999 85.4178 188.001 85.5732 187.993 85.7294C187.947 86.2223 187.922 86.7022 187.919 87.1691C187.915 87.636 187.913 88.114 187.911 88.603C187.953 89.0881 187.958 89.6433 187.923 90.2684C187.889 90.8936 187.849 91.4525 187.803 91.9454C188.033 92.2808 188.172 92.602 188.221 92.9088C188.272 93.2376 188.451 93.5108 188.759 93.7282C189.63 93.5188 190.317 93.2475 190.821 92.9146C191.325 92.5816 191.797 92.1293 192.236 91.5576C192.575 91.3724 192.837 91.1939 193.022 91.0222C193.185 90.8524 193.423 90.6538 193.737 90.4264L194.22 89.8509C194.724 89.5179 195.006 89.3155 195.066 89.2435C195.107 89.1956 195.158 89.1466 195.22 89.0967C195.304 89.0449 195.389 88.9931 195.473 88.9413C196.18 88.3906 196.709 87.8332 197.06 87.2693C197.368 86.9757 197.619 86.676 197.815 86.37C197.97 86.112 198.291 85.8506 198.779 85.5857C199.035 85.2078 199.329 84.8821 199.66 84.6087C199.992 84.3353 200.286 84.0096 200.541 83.6317C200.784 83.6105 200.964 83.6391 201.082 83.7177C201.152 83.756 201.222 83.7943 201.292 83.8326C201.384 83.869 201.476 83.9054 201.568 83.9418C201.732 84.283 201.785 84.645 201.73 85.0275C201.675 85.4101 201.55 85.7654 201.357 86.0934C201.161 86.3994 201.066 86.5855 201.072 86.6516C201.076 86.6957 201.058 86.7417 201.018 86.7897C200.899 86.9556 200.748 87.1355 200.565 87.3293C200.38 87.501 200.229 87.6808 200.112 87.8688C199.926 88.285 199.767 88.4989 199.635 88.5105C199.503 88.5221 199.396 88.5758 199.316 88.6717C198.94 88.949 198.68 89.1496 198.535 89.2733C198.372 89.4431 198.134 89.6417 197.821 89.8691C197.379 90.1522 197.108 90.3537 197.007 90.4736C196.906 90.5935 196.824 90.6674 196.76 90.6952C196.283 91.3369 195.808 91.8784 195.335 92.3197C194.903 92.713 194.45 93.2525 193.977 93.9383C193.812 94.0861 193.648 94.2338 193.483 94.3816C193.318 94.5293 193.179 94.7192 193.066 94.9513C192.692 95.2506 192.396 95.5432 192.176 95.8291C191.957 96.1149 191.708 96.4477 191.43 96.8276C191.177 96.983 190.907 97.1955 190.619 97.4651C190.27 97.7846 189.957 98.023 189.682 98.1804C189.578 98.2562 189.399 98.3718 189.146 98.5273C188.935 98.6568 188.73 98.7303 188.532 98.7476C188.032 98.8802 187.543 98.8785 187.065 98.7427C186.632 98.625 186.202 98.5293 185.773 98.4557C185.574 98.2065 185.334 98.0053 185.054 97.852C184.615 97.4016 184.278 96.8534 184.043 96.2073C183.809 95.5612 183.571 94.871 183.329 94.1367C182.955 94.436 182.65 94.7516 182.412 95.0835C182.176 95.4374 181.804 95.7588 181.296 96.0477C180.892 96.5052 180.477 96.9637 180.05 97.4232C179.622 97.8607 179.17 98.289 178.696 98.7082C178.244 99.1256 177.782 99.5659 177.312 100.029C176.839 100.471 176.368 100.923 175.897 101.386C175.575 101.77 175.344 101.923 175.204 101.847C174.85 102.367 174.158 102.583 173.128 102.495C172.76 102.35 172.349 102.23 171.897 102.136C171.58 102.075 171.216 101.974 170.804 101.832C170.042 101.765 169.385 101.489 168.831 101.004C168.278 100.52 167.794 99.9398 167.379 99.265C167.214 98.9018 167.086 98.5797 166.995 98.2988C166.959 98.1464 166.912 97.9839 166.852 97.8113C166.793 97.6388 166.732 97.4552 166.671 97.2606C166.616 96.8876 166.524 96.5957 166.394 96.3849C166.285 96.15 166.264 95.9185 166.333 95.6903C166.235 95.5877 166.201 95.4463 166.23 95.2661C166.254 95.0417 166.262 94.8744 166.252 94.7641C166.154 94.1505 166.151 93.4842 166.244 92.765C166.337 92.0459 166.49 91.3881 166.705 90.7916C166.818 90.5595 166.975 90.3236 167.176 90.0838C167.275 89.9418 167.329 89.8037 167.34 89.6695C167.352 89.5573 167.409 89.4413 167.509 89.3213C167.608 89.1794 167.729 89.0355 167.871 88.8897C168.077 88.694 168.219 88.5482 168.3 88.4523C168.397 88.2883 168.494 88.1353 168.593 87.9933C168.712 87.8274 168.843 87.6825 168.988 87.5588C169.133 87.435 169.266 87.3012 169.386 87.1573C169.507 87.0134 169.628 86.8696 169.749 86.7257C169.889 86.5578 169.997 86.3928 170.072 86.2308C170.167 86.0447 170.321 85.8979 170.533 85.7904C170.683 85.4663 170.859 85.1953 171.062 84.9776C171.265 84.7598 171.49 84.5291 171.735 84.2855C172.405 83.3158 173.264 82.463 174.311 81.727C175.379 80.9891 176.31 80.1967 177.102 79.3496C177.4 79.1903 177.651 79.0128 177.856 78.8171C178.061 78.6214 178.266 78.4257 178.471 78.23C178.98 77.6967 179.562 77.4902 180.217 77.6107L181.977 77.9233C182.453 78.2816 182.918 78.6409 183.371 79.0012C183.825 79.3614 184.227 79.7706 184.579 80.2287C184.731 80.1932 184.895 80.1677 185.072 80.1523C185.246 80.1148 185.434 80.0984 185.634 80.1031C186.035 80.1124 186.451 80.0427 186.882 79.8939C187.015 79.8823 187.144 79.8376 187.271 79.7599C187.397 79.6822 187.505 79.6395 187.593 79.6317C188.274 79.7944 188.633 80.0962 188.672 80.5372ZM180.026 82.2935C178.886 82.971 177.864 83.7381 176.961 84.5948C176.059 85.4515 175.205 86.3594 174.4 87.3186C174.299 87.4385 174.188 87.5594 174.065 87.6812C173.963 87.7791 173.861 87.888 173.76 88.0079C173.658 88.1057 173.556 88.2146 173.456 88.3345C173.355 88.4544 173.265 88.5733 173.187 88.6913C173.03 88.9272 172.888 89.2063 172.76 89.5286C172.633 89.8508 172.515 90.15 172.405 90.4262C172.369 90.5182 172.333 90.6103 172.296 90.7024C172.258 90.7724 172.219 90.8314 172.178 90.8793C172.138 90.9273 172.099 90.9863 172.061 91.0563C172.022 91.1263 171.984 91.1963 171.946 91.2663C171.877 91.4945 171.863 91.7179 171.904 91.9365C171.94 92.089 171.972 92.3306 172.001 92.6613L172.059 93.3229C172.07 93.4552 172.112 93.6737 172.183 93.9786C172.358 94.4522 172.466 94.9315 172.509 95.4166C172.54 95.7694 172.61 96.1965 172.721 96.6979C172.831 97.1993 173.027 97.5266 173.307 97.6799C173.609 97.8312 173.888 97.8512 174.145 97.7399C174.444 97.6026 174.692 97.5143 174.889 97.4749C176.328 96.149 177.674 94.7758 178.928 93.3552C180.181 91.9346 181.266 90.362 182.181 88.6377C181.999 87.5649 181.89 86.4522 181.856 85.2998C181.828 84.2135 181.641 83.2188 181.295 82.3159C181.109 82.221 180.896 82.2063 180.658 82.2716C180.483 82.3091 180.273 82.3164 180.026 82.2935ZM202.072 89.6972C202.405 89.4458 202.667 89.134 202.857 88.7619C202.952 88.5759 203.057 88.3888 203.174 88.2009C203.291 88.0129 203.419 87.8239 203.558 87.634C204.073 86.9223 204.643 86.317 205.266 85.8181C205.534 85.328 205.89 84.9525 206.334 84.6915C206.775 84.4084 207.107 84.0127 207.33 83.5044C207.388 83.4104 207.454 83.2714 207.526 83.0872C207.599 82.9031 207.665 82.7641 207.723 82.6701C208.459 81.428 209.278 80.3787 210.181 79.522C210.303 79.4002 210.426 79.2784 210.549 79.1565C210.671 79.0347 210.783 78.9138 210.884 78.7939C211.045 78.6021 211.323 78.3555 211.719 78.0543C211.908 77.9266 212.096 77.788 212.282 77.6383C212.467 77.4666 212.64 77.2848 212.801 77.093C213.123 76.7093 213.508 76.409 213.956 76.1921C214.231 76.0347 214.509 75.9104 214.79 75.8191C214.918 75.7634 215.048 75.7188 215.178 75.6852C215.328 75.6276 215.479 75.57 215.629 75.5124C215.93 75.3971 216.199 75.2958 216.436 75.2085C216.673 75.1211 216.949 75.108 217.266 75.1692C217.997 75.3941 218.578 75.9432 219.01 76.8164C219.171 77.1356 219.155 77.837 218.961 78.9205C218.789 80.0021 218.565 81.1327 218.291 82.3121C218.014 83.4695 217.826 84.3637 217.726 84.9946C217.666 85.3331 217.661 85.5225 217.709 85.5627C217.757 85.603 217.783 85.6562 217.789 85.7223C217.72 85.9506 217.672 86.1548 217.643 86.3351C217.614 86.5154 217.587 86.7177 217.563 86.942C217.505 87.3026 217.481 87.7825 217.489 88.3817C217.497 88.9809 217.56 89.4531 217.679 89.7982C218.118 89.7376 218.368 89.6713 218.428 89.5994C218.469 89.5514 218.522 89.5245 218.588 89.5187C218.761 89.4592 218.903 89.4356 219.015 89.448C219.127 89.4604 219.27 89.4369 219.442 89.3773C220.325 89.0557 221.099 88.4992 221.763 87.7078C222.144 87.4967 222.503 87.2875 222.841 87.0802C223.2 86.871 223.538 86.6637 223.853 86.4584C224.432 85.9633 224.9 85.6002 225.258 85.3689C225.615 85.1377 226.153 84.8128 226.872 84.3944C227.13 84.0386 227.492 83.7292 227.957 83.4662C228.381 83.2292 228.787 82.9159 229.175 82.5264C229.296 82.3825 229.395 82.2516 229.474 82.1336C229.591 81.9457 229.72 81.901 229.862 81.9997C230.102 82.2009 230.266 82.4199 230.353 82.6567C230.44 82.8935 230.466 83.0579 230.43 83.1499C230.128 83.5096 229.963 83.7907 229.937 83.993C229.91 84.1953 229.866 84.3324 229.806 84.4044C229.605 84.6442 229.291 84.8716 228.866 85.0866C228.504 85.2737 228.285 85.4373 228.209 85.5773C228.132 85.7174 228.064 85.8233 228.003 85.8953C227.883 86.0392 227.77 86.149 227.666 86.2248C227.561 86.3006 227.448 86.4104 227.328 86.5543C227.251 86.6944 227.137 86.7821 226.984 86.8177L226.563 86.9545C226.318 87.1982 226.114 87.416 225.953 87.6078C225.792 87.7996 225.611 88.0155 225.41 88.2553C225.108 88.615 224.91 88.8879 224.815 89.0739C224.74 89.236 224.516 89.4667 224.142 89.766L222.889 90.6756C222.298 91.0384 221.714 91.4673 221.135 91.9623C220.556 92.4573 219.977 92.9524 219.398 93.4474C219.023 93.7247 218.591 93.9958 218.103 94.2607C217.657 94.4997 217.248 94.7688 216.874 95.0682C216.675 95.0855 216.553 95.0851 216.507 95.0669C216.437 95.0286 216.319 95.0723 216.152 95.198C215.922 95.107 215.7 95.1153 215.487 95.2228C215.254 95.3543 215.035 95.3846 214.829 95.3137C214.593 95.1566 214.393 95.0297 214.229 94.9329C214.087 94.8343 213.97 94.7667 213.878 94.7303C213.738 94.6537 213.607 94.5541 213.485 94.4314C213.378 94.2186 213.323 93.9789 213.322 93.7124C213.321 93.4458 213.247 93.2302 213.099 93.0653C213.014 92.0951 212.966 91.166 212.955 90.2782C212.944 89.3904 213.006 88.4517 213.142 87.4621C213.159 87.1495 213.223 86.6107 213.334 85.8455C213.443 85.0583 213.521 84.307 213.57 83.5917C213.618 82.8765 213.55 82.4714 213.364 82.3766C212.902 82.6836 212.44 83.124 211.979 83.6976C211.76 83.9834 211.539 84.2472 211.315 84.4889C211.092 84.7307 210.878 84.9494 210.673 85.1451L209.711 85.9625C209.566 86.0862 209.412 86.222 209.247 86.3697C209.08 86.4954 208.914 86.6321 208.749 86.7799C208.46 87.0274 208.215 87.271 208.013 87.5109C207.812 87.7507 207.593 88.0365 207.355 88.3684C207.214 88.5362 207.073 88.7041 206.933 88.8719C206.812 89.0158 206.692 89.1707 206.573 89.3367C206.334 89.6465 206.049 89.9491 205.719 90.2446C205.518 90.4844 205.365 90.6422 205.261 90.718C205.156 90.7938 205.024 90.9276 204.863 91.1195L204.289 91.8029C204.108 92.0188 203.869 92.2063 203.572 92.3656C202.949 93.3756 202.235 94.3602 201.431 95.3194C200.648 96.2767 200.042 97.2295 199.614 98.178C199.124 98.6653 198.595 99.1004 198.029 99.4833C197.462 99.8661 196.748 99.9619 195.887 99.7706C195.423 99.5446 195.117 99.3492 194.969 99.1843C194.824 99.0415 194.658 98.9227 194.472 98.8279C194.473 98.3389 194.477 97.872 194.482 97.4271C194.488 96.9822 194.58 96.5076 194.758 96.0032L195.097 95.3069C195.285 94.9127 195.389 94.4592 195.411 93.9462C195.431 93.4112 195.534 92.9356 195.72 92.5194C195.946 92.0552 196.079 91.6769 196.12 91.3844C196.163 91.114 196.24 90.8517 196.351 90.5976C196.438 90.3233 196.541 90.1033 196.66 89.9373C196.779 89.7714 196.882 89.5513 196.969 89.277C197.058 89.0248 197.19 88.7577 197.366 88.4757C197.541 88.1938 197.673 87.9267 197.762 87.6745C197.944 86.7031 198.212 85.702 198.566 84.6711C198.627 84.3547 198.689 84.0493 198.752 83.7549C198.815 83.4605 198.902 83.1752 199.011 82.899C199.1 82.6468 199.189 82.3946 199.278 82.1424C199.367 81.8902 199.457 81.649 199.548 81.4188C199.637 81.1666 199.727 80.9255 199.818 80.6953C199.907 80.4431 199.996 80.1909 200.085 79.9387C200.194 79.6625 200.295 79.4203 200.388 79.2122C200.481 79.0041 200.606 78.7821 200.763 78.5461C200.82 78.4301 200.876 78.3141 200.933 78.198C200.989 78.082 201.035 77.9669 201.069 77.8528C201.103 77.7387 201.149 77.6236 201.205 77.5075C201.262 77.3915 201.318 77.2755 201.375 77.1594C201.432 77.0434 201.488 76.9273 201.545 76.8113C201.599 76.6732 201.642 76.525 201.672 76.3668C201.735 76.0724 201.877 75.7823 202.096 75.4965C202.235 75.3066 202.353 75.1296 202.45 74.9656C202.566 74.7776 202.662 74.6026 202.737 74.4405C202.866 74.1403 203.136 73.9168 203.545 73.7699C203.935 73.9135 204.315 73.8136 204.685 73.4702C205.075 73.1027 205.419 73.0949 205.716 73.4466C206.369 73.7895 206.815 74.0616 207.054 74.2628C207.34 74.4822 207.538 74.7093 207.647 74.9442C207.902 75.3218 207.96 75.7278 207.82 76.1622C207.681 76.5966 207.404 76.9875 206.99 77.3348C206.895 78.0319 206.648 78.7645 206.249 79.5327C206.057 79.8828 205.877 80.2319 205.707 80.58C205.536 80.9061 205.375 81.2312 205.226 81.5554L204.812 82.9247C204.602 83.5653 204.38 84.2069 204.148 84.8494C203.915 85.4919 203.647 86.1152 203.345 86.7194C203.11 87.3399 202.923 87.7451 202.784 87.935C202.667 88.123 202.562 88.31 202.467 88.4961C202.392 88.6581 202.26 89.0585 202.072 89.6972ZM244.204 77.5452C244.298 77.6037 244.413 77.5159 244.548 77.2819C244.627 77.1639 244.684 77.0589 244.72 76.9668C244.777 76.8508 244.824 76.7577 244.863 76.6877C244.933 76.4816 244.991 76.2543 245.036 76.0059C245.081 75.7576 245.139 75.5303 245.21 75.3241C245.43 74.7938 245.728 74.2567 246.102 73.7129C246.457 73.1931 246.732 72.6579 246.928 72.1075C246.989 72.0355 247.081 71.9496 247.206 71.8499C247.31 71.7741 247.401 71.6662 247.477 71.5261C247.826 71.4512 248.065 71.3858 248.194 71.3302C248.322 71.2745 248.449 71.1968 248.573 71.097C249.07 71.1868 249.411 71.5347 249.598 72.1406C249.605 72.4733 249.485 72.7614 249.24 73.0051C249.037 73.2229 248.894 73.4909 248.81 73.8093C248.716 73.9953 248.698 74.1746 248.757 74.3472C248.817 74.5197 248.799 74.699 248.705 74.8851C248.548 75.6321 248.312 76.3638 247.997 77.0801C247.663 77.8426 247.405 78.5762 247.223 79.281C247.041 79.7413 246.87 80.2006 246.71 80.659C246.55 81.1174 246.425 81.595 246.335 82.0917C245.927 83.0162 245.545 83.9828 245.189 84.9917C244.853 85.9765 244.477 87.0093 244.06 88.0901C244.47 87.9432 244.808 87.7469 245.075 87.5013C245.363 87.2318 245.673 86.9713 246.007 86.7199L246.582 86.4363C246.666 86.3845 246.752 86.3437 246.838 86.3139C246.944 86.2602 247.051 86.2064 247.157 86.1527L247.938 85.5511C248.022 85.4993 248.096 85.4484 248.158 85.3985C248.242 85.3467 248.327 85.2949 248.411 85.2431L248.782 84.9107C248.864 84.8368 249.01 84.724 249.219 84.5724C249.319 84.4525 249.435 84.3758 249.565 84.3422C249.696 84.3085 249.811 84.2318 249.912 84.1119C250.167 83.9785 250.356 83.8508 250.478 83.729C250.643 83.5813 250.83 83.4316 251.039 83.28C251.292 83.1245 251.512 82.972 251.699 82.8223C251.843 82.6985 252.087 82.5661 252.431 82.425C252.686 82.2916 252.939 82.1361 253.19 81.9586C253.318 81.9029 253.445 81.8252 253.569 81.7254C253.692 81.6036 253.796 81.5278 253.883 81.498C254.16 81.3627 254.308 81.283 254.328 81.259C254.389 81.1871 254.451 81.1372 254.515 81.1094C254.901 80.9423 255.146 80.8319 255.253 80.7782C255.295 80.7523 255.366 80.6794 255.467 80.5595C255.943 80.1623 256.322 79.9181 256.603 79.8268C256.904 79.7116 257.304 79.4655 257.805 79.0884C258.139 79.1036 258.383 79.0934 258.535 79.0578C258.754 79.0165 258.959 79.0763 259.151 79.2373C259.048 80.0907 258.777 80.6809 258.339 81.0081C257.901 81.3353 257.427 81.6323 256.917 81.8991C256.226 82.6262 255.631 83.2004 255.135 83.6216C254.639 84.0427 253.995 84.5546 253.203 85.1571C252.651 85.4498 252.209 85.7329 251.877 86.0064C251.48 86.0411 251.188 86.1333 251.002 86.2829C250.752 86.4825 250.555 86.6331 250.408 86.7349C250.261 86.8366 250.08 86.9191 249.863 86.9825C249.646 87.0459 249.465 87.1285 249.318 87.2302C248.9 87.5334 248.638 87.7118 248.532 87.7656C248.445 87.7954 248.352 87.8702 248.251 87.9901C247.862 88.6241 247.476 89.0356 247.093 89.2247C246.689 89.4377 246.36 89.7332 246.104 90.1111C245.373 90.3972 244.787 90.8041 244.344 91.3316C243.881 91.8832 243.343 92.3303 242.728 92.6729C242.446 93.7641 242.237 94.8045 242.101 95.7941C241.97 96.8277 241.759 97.8461 241.469 98.8491L240.643 101.988C240.511 102.51 240.379 103.033 240.247 103.556C240.139 104.098 240.042 104.64 239.956 105.181C239.541 106.017 239.223 106.956 239.003 107.997C238.891 108.496 238.757 108.996 238.601 109.499C238.467 110 238.311 110.502 238.133 111.006C237.823 111.278 237.602 111.675 237.47 112.198C237.338 112.72 237.097 113.141 236.748 113.461C236.57 113.965 236.297 114.4 235.929 114.766C235.561 115.131 235.216 115.506 234.894 115.889C234.713 116.105 234.555 116.341 234.422 116.597C233.96 117.149 233.433 117.739 232.844 118.368C232.275 118.974 231.775 119.606 231.344 120.266C230.886 120.617 230.473 120.987 230.107 121.374C229.741 121.762 229.377 122.171 229.015 122.603L228.473 122.884C228.324 122.963 228.156 122.945 227.968 122.828C227.539 122.999 227.078 123.061 226.585 123.016C226.092 122.97 225.868 122.701 225.914 122.208C225.606 121.99 225.435 121.816 225.402 121.686C225.364 121.511 225.284 121.352 225.16 121.207C225.283 120.841 225.256 120.521 225.076 120.248C224.873 119.955 224.762 119.709 224.745 119.51C224.695 118.937 224.713 118.38 224.799 117.839C224.857 117.234 224.957 116.725 225.098 116.313L225.608 114.902C225.819 114.261 225.999 113.657 226.149 113.088C226.3 112.519 226.458 111.917 226.625 111.28C226.907 110.7 227.071 110.163 227.117 109.67C227.157 109.111 227.275 108.557 227.471 108.006C227.544 107.822 227.617 107.638 227.69 107.454C227.785 107.268 227.869 107.094 227.944 106.932C228.134 106.56 228.225 106.207 228.218 105.874C228.366 105.528 228.514 105.193 228.663 104.869C228.837 104.565 229.022 104.271 229.22 103.987C229.614 103.419 229.926 102.792 230.155 102.105C231.159 100.373 232.357 98.8352 233.751 97.4912C235.144 96.1472 236.562 94.8344 238.006 93.5527C238.261 93.1748 238.41 92.9729 238.453 92.9469C238.495 92.921 238.537 92.8951 238.579 92.8692C238.643 92.8414 238.816 92.6596 239.098 92.3239C239.162 92.296 239.21 92.203 239.24 92.0448C239.271 91.8866 239.336 91.7475 239.437 91.6276C239.571 91.127 239.714 90.6035 239.866 90.0569C240.039 89.4863 240.219 88.8817 240.408 88.243C240.596 87.6044 240.757 87.0348 240.891 86.5342C241.023 86.0116 241.127 85.547 241.203 85.1405C240.97 85.2719 240.818 85.4408 240.747 85.6469C240.676 85.8531 240.57 86.0401 240.429 86.208C240.353 86.348 240.252 86.4679 240.128 86.5677C239.963 86.7154 239.86 86.8133 239.82 86.8613C239.699 87.0051 239.598 87.114 239.515 87.1879C239.433 87.2618 239.333 87.3927 239.216 87.5807C238.828 87.9701 238.435 88.4267 238.036 88.9504C237.658 89.4502 237.265 89.9068 236.856 90.3202C236.546 90.8362 236.222 91.3201 235.883 91.7719C235.545 92.2236 235.145 92.603 234.683 92.9101C234.064 93.4531 233.415 93.9098 232.737 94.2803C232.058 94.6507 231.42 94.9732 230.821 95.2478L229.954 95.6236C229.633 95.7628 229.384 95.8401 229.208 95.8555C229.08 95.9112 228.97 95.9319 228.88 95.9175C228.79 95.9032 228.657 95.9038 228.48 95.9192C227.819 95.9771 227.216 95.941 226.671 95.8108C226.531 95.7342 226.414 95.6667 226.32 95.6082C226.226 95.5498 226.127 95.4362 226.024 95.2676C225.928 95.1871 225.807 95.0754 225.661 94.9326C225.515 94.7899 225.392 94.6562 225.293 94.5316C225.187 94.3408 225.123 94.1132 225.1 93.8486C225.076 93.5839 225.012 93.3563 224.906 93.1655C224.843 92.9489 224.781 92.7432 224.719 92.5486C224.634 92.3339 224.55 92.1412 224.469 91.9706C224.302 91.5853 224.246 91.2013 224.301 90.8187C224.317 90.7506 224.334 90.6825 224.35 90.6145C224.366 90.5464 224.383 90.4893 224.402 90.4433C224.436 90.3292 224.425 90.2079 224.37 90.0794C224.34 89.9932 224.273 89.8657 224.17 89.697C224.066 89.5283 223.999 89.4008 223.97 89.3145C223.718 88.981 223.583 88.704 223.564 88.4835C223.52 88.2429 223.533 88.0084 223.602 87.7802C223.689 87.5059 223.682 87.2955 223.58 87.1488C223.706 86.8046 223.8 86.4852 223.863 86.1909C223.946 85.8725 224.087 85.5714 224.284 85.2875C224.572 84.7734 224.75 84.3912 224.817 84.1409C224.847 83.9827 224.902 83.8446 224.981 83.7267C225.035 83.5886 225.102 83.4605 225.18 83.3425C225.406 82.8784 225.607 82.5053 225.782 82.2233C225.998 81.8934 226.2 81.5424 226.39 81.1702C227.101 79.6416 227.911 78.2375 228.821 76.958C228.968 76.8562 229.116 76.7766 229.267 76.719C229.395 76.6633 229.474 76.5453 229.503 76.3651C230.475 75.7912 231.399 75.1771 232.274 74.5227C232.77 74.346 233.18 74.0769 233.504 73.7152C233.848 73.3296 234.256 73.0384 234.727 72.8416C235.089 72.6545 235.488 72.3973 235.926 72.0701C236.342 71.7449 236.792 71.55 237.275 71.4855C237.716 71.4469 238.041 71.3518 238.25 71.2002C238.459 71.0486 238.668 70.897 238.877 70.7454C239.463 70.3386 240.155 70.1225 240.953 70.0971C241.359 70.4172 241.746 70.6499 242.114 70.7955C242.48 70.919 242.803 71.1796 243.082 71.5774C243.158 71.6818 243.233 71.8975 243.306 72.2244L243.48 73.0757C243.588 73.2885 243.685 73.5133 243.772 73.7501C243.86 73.9869 243.935 74.2136 243.999 74.4302C244.095 75.0218 244.13 75.5519 244.104 76.0208C244.079 76.4897 244.112 76.9978 244.204 77.5452ZM240.521 75.0677L240.455 75.0735C240.312 75.2193 240.131 75.3019 239.91 75.3212C239.69 75.3405 239.506 75.401 239.36 75.5027C239.299 75.5746 239.207 75.6605 239.082 75.7603C238.958 75.8601 238.865 75.9459 238.805 76.0179C238.616 76.1455 238.415 76.263 238.202 76.3705C238.012 76.4761 237.799 76.5836 237.564 76.693C237.072 76.9138 236.681 77.1369 236.389 77.3624C236.202 77.5121 236.042 77.7149 235.909 77.971C235.794 78.181 235.632 78.3619 235.423 78.5135C235.299 78.6132 235.174 78.713 235.05 78.8128C234.923 78.8905 234.786 78.9692 234.637 79.0489C234.362 79.2063 234.124 79.4049 233.922 79.6447C233.802 79.7886 233.714 79.9295 233.66 80.0676C233.605 80.2057 233.467 80.2844 233.247 80.3037C232.841 81.2503 232.319 82.1403 231.681 82.9738C231.024 83.8534 230.526 84.7635 230.186 85.7043C229.974 85.8118 229.844 85.9787 229.797 86.205C229.768 86.3852 229.688 86.6144 229.557 86.8926C229.147 87.795 229.019 88.484 229.171 88.9594C229.235 89.1761 229.299 89.4038 229.364 89.6425C229.428 89.8591 229.48 90.0767 229.522 90.2953C229.817 90.625 230.19 90.6924 230.639 90.4975C231.089 90.3027 231.48 90.0795 231.814 89.8281C232.228 89.4808 232.628 89.1014 233.014 88.6899C233.4 88.2784 233.796 87.8549 234.203 87.4194C234.613 87.028 234.987 86.6064 235.325 86.1546C235.663 85.7028 235.992 85.2631 236.31 84.8353C236.406 84.6713 236.567 84.4794 236.793 84.2597C237.018 84.0401 237.179 83.8482 237.276 83.6842C237.537 83.3725 237.717 83.1456 237.816 83.0037C237.975 82.7898 238.159 82.607 238.368 82.4554C238.523 82.1974 238.668 81.9514 238.803 81.7174C238.936 81.4613 239.071 81.2163 239.206 80.9823C239.341 80.7483 239.477 80.5253 239.614 80.3133C239.749 80.0793 239.896 79.8553 240.055 79.6414C240.247 79.0469 240.433 78.4974 240.611 77.993C240.7 77.7408 240.789 77.4886 240.878 77.2363C240.965 76.9621 241.041 76.6888 241.106 76.4165C241 76.2257 240.934 75.976 240.907 75.6673C240.882 75.3806 240.753 75.1808 240.521 75.0677ZM237.192 99.4899C237.084 99.5216 236.969 99.6094 236.848 99.7533C236.788 99.8252 236.655 99.9591 236.45 100.155C236.048 100.634 235.657 101.124 235.279 101.624C234.9 102.123 234.56 102.675 234.257 103.28C233.908 103.866 233.505 104.456 233.046 105.052C232.565 105.65 232.275 106.275 232.177 106.928C231.757 107.72 231.395 108.53 231.089 109.356C230.784 110.183 230.563 111.091 230.428 112.081C230.407 112.349 230.383 112.584 230.356 112.787C230.331 113.011 230.304 113.202 230.273 113.361C230.21 113.655 230.171 113.969 230.155 114.304C230.397 114.016 230.648 113.717 230.91 113.405C231.172 113.093 231.401 112.795 231.598 112.511C231.679 112.415 231.746 112.298 231.801 112.16C231.856 112.022 231.923 111.905 232.004 111.809C232.235 111.411 232.467 111.013 232.699 110.615C232.955 110.237 233.211 109.859 233.467 109.482C233.978 108.726 234.444 107.952 234.863 107.16C235.061 106.876 235.237 106.605 235.392 106.347C235.547 106.089 235.701 105.82 235.855 105.54C236.574 104.366 237.088 103.132 237.397 101.838C237.728 100.543 238.079 99.2124 238.448 97.8469C238.327 97.9907 238.206 98.1236 238.083 98.2454C237.96 98.3673 237.849 98.4881 237.748 98.608C237.483 98.8757 237.297 99.1696 237.192 99.4899ZM322.43 38.3047C322.846 38.4905 323.136 38.754 323.299 39.0952C323.462 39.4365 323.589 39.8698 323.679 40.3952C323.718 40.8362 323.735 41.1569 323.73 41.3573C323.733 41.6459 323.794 41.9627 323.913 42.3078C323.786 42.63 323.632 42.8991 323.45 43.1149C323.269 43.3307 323.141 43.6419 323.066 44.0485C322.733 45.0774 322.335 45.9789 321.869 46.7529C321.363 47.5749 320.894 48.438 320.462 49.3424C320.016 49.8258 319.677 50.3999 319.446 51.0644C319.216 51.729 318.999 52.4257 318.796 53.1545C318.041 54.687 317.322 56.2387 316.637 57.8096C315.952 59.3804 315.303 60.9705 314.688 62.5796L316.608 62.8116C317.259 62.888 317.861 63.0353 318.413 63.2536C318.663 63.5651 318.844 63.7381 318.958 63.7725C319.073 63.807 319.09 63.8832 319.012 64.0012C319.302 65.2867 319.032 65.7548 318.201 65.4053C317.902 65.5425 317.66 65.5637 317.474 65.4689C316.783 65.7071 316.134 65.8972 315.524 66.0395C314.914 66.1817 314.216 66.3316 313.43 66.4893L312.781 68.2126C312.672 68.4888 312.564 68.776 312.456 69.0742C312.347 69.3504 312.239 69.6376 312.132 69.9359C311.013 72.389 310.017 74.8426 309.143 77.2967C308.269 79.7507 307.479 82.2751 306.772 84.87C306.719 85.2746 306.663 85.6572 306.606 86.0177C306.549 86.3783 306.445 86.7206 306.296 87.0448C306.254 87.5817 306.162 88.0563 306.021 88.4687C305.932 88.7209 305.884 88.9362 305.877 89.1145C305.871 89.2929 305.823 89.5081 305.734 89.7603C305.632 90.1247 305.468 90.4058 305.241 90.6034C305.014 90.801 304.847 91.06 304.742 91.3803C304.454 91.1388 304.244 91.1461 304.111 91.4022C303.978 91.6582 303.877 91.9004 303.808 92.1286C303.33 92.2593 302.979 92.1789 302.753 91.8876C302.528 91.5962 302.4 91.2741 302.369 90.9213C302.171 90.6942 301.953 90.6133 301.714 90.6786C301.496 90.7199 301.256 90.641 300.994 90.4417C300.529 89.1936 300.108 88.1861 299.729 87.4193C299.351 86.6524 298.955 85.9316 298.54 85.2569C298.481 85.0843 298.422 84.9228 298.365 84.7723C298.307 84.6218 298.249 84.4713 298.192 84.3208C298.134 84.1703 298.078 84.0308 298.022 83.9024C297.964 83.7519 297.907 83.6014 297.849 83.4509L297.493 82.8154C297.44 82.709 297.375 82.6035 297.299 82.4991C297.245 82.3927 297.192 82.2863 297.138 82.1799C297.04 82.0773 296.984 81.9489 296.971 81.7945C296.957 81.6402 296.902 81.5117 296.804 81.4092C296.672 81.1763 296.53 80.9443 296.376 80.7133C296.223 80.4823 296.058 80.2523 295.883 80.0233L294.901 78.7093C294.56 78.3614 294.31 78.0499 294.153 77.7749C294.019 77.5199 293.848 77.3349 293.638 77.22C293.327 76.7139 293.166 76.4057 293.157 76.2955C293.147 76.1852 293.094 76.0899 292.998 76.0094L292.267 75.2734C292.122 75.1306 291.956 75.0118 291.77 74.917C291.562 74.8241 291.309 74.7351 291.013 74.6499C290.717 74.5647 290.464 74.4757 290.256 74.3828L289.536 74.1459C289.422 74.1114 289.285 74.0789 289.127 74.0483C288.989 73.9937 288.841 73.9511 288.683 73.9205C288.357 74.7711 288.1 75.638 287.91 76.5212C287.723 77.4264 287.395 78.2549 286.928 79.0069C286.736 79.6014 286.491 80.2339 286.194 80.9042C285.897 81.5746 285.653 82.207 285.46 82.8016C285.283 83.0615 285.158 83.4168 285.087 83.8675C285.029 84.228 284.929 84.6034 284.785 84.9938C284.731 85.1318 284.665 85.2709 284.589 85.4109C284.534 85.549 284.468 85.6881 284.392 85.8281L283.932 86.6683C283.476 87.5525 282.929 88.2891 282.292 88.8782C281.964 89.1957 281.639 89.5353 281.315 89.8969C281.011 90.2346 280.72 90.5933 280.442 90.9731C279.582 91.8039 278.849 92.068 278.245 91.7653C278.075 91.6024 277.953 91.602 277.878 91.7641C277.822 91.8801 277.733 92.0101 277.613 92.154C277.304 92.181 277.09 92.1442 276.97 92.0436L276.502 91.6512C276.574 91.2005 276.686 90.8352 276.839 90.5551C277.051 90.1811 277.21 89.8339 277.315 89.5136C277.548 89.3821 277.665 89.1941 277.666 88.9496C277.666 88.7052 277.759 88.497 277.944 88.3253C278.101 87.0673 278.453 86.0144 279.001 85.1665C279.036 85.0524 279.07 84.9383 279.104 84.8242C279.137 84.688 279.17 84.5629 279.205 84.4487C279.239 84.3346 279.273 84.2095 279.305 84.0733C279.36 83.9352 279.415 83.7971 279.469 83.659C279.58 83.4049 279.728 83.192 279.913 83.0203C280.076 82.8505 280.202 82.6395 280.291 82.3873C280.403 81.8886 280.52 81.4451 280.641 81.0567C280.763 80.6684 280.888 80.3241 281.018 80.0239L281.796 78.256C282.024 77.3028 282.3 76.4009 282.626 75.5503C282.952 74.6997 283.298 73.8361 283.666 72.9596C283.438 72.8907 283.309 72.6908 283.28 72.3601C283.251 72.0293 283.121 71.8074 282.889 71.6944C282.691 70.7117 282.299 70.035 281.711 69.6643C281.906 69.3583 281.992 69.062 281.967 68.7754C282.148 68.5595 282.441 68.3561 282.846 68.1651C282.931 68.1133 283.004 68.0624 283.066 68.0125C283.151 67.9607 283.225 67.9209 283.289 67.8931C283.458 67.7894 283.63 67.7189 283.804 67.6814L284.821 67.4924C284.995 67.4549 285.159 67.4184 285.311 67.3829C285.486 67.3454 285.659 67.2969 285.832 67.2373C285.965 66.9813 286.076 66.7271 286.165 66.4749C286.274 66.1987 286.361 65.9245 286.426 65.6521C286.556 65.1075 286.78 64.6213 287.098 64.1935C287.131 64.0573 287.186 63.9192 287.262 63.7792C287.341 63.6612 287.351 63.527 287.294 63.3765C287.592 62.9727 287.858 62.4605 288.092 61.8401C288.309 61.2656 288.573 60.7314 288.886 60.2375C289.131 59.4828 289.437 58.8005 289.806 58.1905C290.135 57.6285 290.462 56.9221 290.787 56.0715C291.142 55.5517 291.428 54.8823 291.645 54.0633C291.862 53.2444 292.052 52.4946 292.215 51.8137C292.286 51.6075 292.313 51.4163 292.298 51.2398C292.282 51.0634 292.312 50.8942 292.387 50.7321C292.458 50.5259 292.569 50.2718 292.72 49.9697C292.797 49.8297 292.862 49.6906 292.917 49.5525C292.993 49.4125 293.059 49.2734 293.114 49.1353C293.263 48.8112 293.392 48.511 293.502 48.2348C293.611 47.9586 293.694 47.6403 293.751 47.2797C293.596 47.0267 293.381 46.9899 293.108 47.1693C292.962 47.2711 292.815 47.3728 292.668 47.4745C292.52 47.5541 292.361 47.6458 292.192 47.7494C291.624 48.1102 291.039 48.5391 290.439 49.0361C289.511 49.6061 288.641 50.2044 287.829 50.8309C287.04 51.4555 286.308 52.1083 285.634 52.7894C285.438 52.8288 285.223 52.9143 284.99 53.0458C284.777 53.1532 284.518 53.2426 284.213 53.3137L283.683 52.9602C283.657 52.918 283.618 52.8547 283.566 52.7704C283.687 52.6265 283.896 52.4749 284.193 52.3156C284.49 52.1563 284.629 51.9663 284.61 51.7458C284.492 50.9117 284.667 50.241 285.133 49.7335C285.6 49.2261 286.057 48.7306 286.503 48.2472C286.817 48.0198 287.11 47.8163 287.383 47.6369C287.654 47.4354 287.906 47.2689 288.139 47.1375C288.625 46.8505 289.062 46.5123 289.45 46.1228C289.727 45.9875 289.993 45.8531 290.248 45.7197C290.524 45.5623 290.798 45.3939 291.071 45.2145C291.344 45.035 291.607 44.8676 291.86 44.7121C292.135 44.5548 292.41 44.3974 292.685 44.24C292.876 44.1344 293.074 43.9838 293.279 43.7881C293.382 43.6902 293.473 43.5933 293.554 43.4974C293.656 43.3996 293.759 43.3017 293.861 43.2039C294.36 42.8047 294.891 42.4027 295.456 41.9978C296.02 41.5929 296.596 41.187 297.182 40.7802C297.505 40.6631 297.687 40.5805 297.727 40.5325C297.808 40.4366 297.859 40.3877 297.881 40.3858C298.545 40.1055 299.075 39.8147 299.471 39.5134C299.642 39.4318 299.812 39.3502 299.983 39.2686C300.152 39.165 300.309 39.0623 300.456 38.9606C300.771 38.7553 301.129 38.6573 301.53 38.6666C301.883 38.6358 302.227 38.7612 302.563 39.0429C302.899 39.3246 302.904 39.6353 302.578 39.9748C302.962 40.2968 303.18 40.7665 303.234 41.3839C303.294 42.0675 303.392 42.6811 303.529 43.2246C303.542 43.379 303.583 43.5866 303.65 43.8473C303.711 44.0419 303.728 44.2294 303.699 44.4096C303.691 44.5659 303.632 44.7821 303.523 45.0583C303.432 45.2885 303.393 45.4808 303.406 45.6351C303.271 45.8691 303.159 46.1122 303.07 46.3645C303.001 46.5927 302.889 46.8358 302.734 47.0938C302.66 47.5224 302.533 47.8446 302.352 48.0605C302.151 48.3003 301.996 48.5583 301.886 48.8344C301.577 49.1059 301.293 49.4196 301.036 49.7755C300.859 49.7909 300.767 49.8768 300.758 50.0331C300.75 50.1893 300.705 50.3154 300.625 50.4114C299.762 50.709 299.066 51.2698 298.539 52.0937C298.011 52.9176 297.497 53.7736 296.997 54.6617C296.332 55.1865 295.761 55.7697 295.283 56.4114C295.205 56.5294 295.127 56.6584 295.051 56.7984C294.994 56.9145 294.951 57.0516 294.92 57.2098C294.889 57.368 294.836 57.5171 294.759 57.6572C294.705 57.7953 294.639 57.9343 294.562 58.0744C294.411 58.3765 294.251 58.7016 294.081 59.0497C293.932 59.3738 293.774 59.732 293.608 60.1243C293.441 60.4945 293.273 60.8646 293.106 61.2348C292.958 61.581 292.81 61.9162 292.66 62.2403C292.575 62.5367 292.486 62.7889 292.393 62.997C292.298 63.183 292.211 63.4573 292.132 63.8198L291.69 64.8584C291.577 65.0904 291.491 65.3868 291.434 65.7473C292.184 65.6817 292.93 65.572 293.672 65.4182C294.414 65.2644 295.156 65.1106 295.898 64.9568C297.03 64.9466 298.089 64.7318 299.074 64.3123C300.08 63.8688 301.089 63.5916 302.101 63.4808C302.268 63.3551 302.42 63.3086 302.556 63.3411C302.646 63.3554 302.799 63.3309 303.016 63.2675C303.982 63.1385 304.961 63.0196 305.951 62.9107C306.941 62.8018 307.97 62.7452 309.036 62.7408C309.205 62.6372 309.336 62.4923 309.431 62.3063C309.526 62.1202 309.61 61.9351 309.682 61.751C309.77 61.4767 309.874 61.2677 309.994 61.1238C310.075 61.0279 310.133 60.9339 310.17 60.8418C310.228 60.7478 310.275 60.6548 310.312 60.5627C310.413 60.1983 310.524 59.9442 310.645 59.8003C310.766 59.6564 310.861 59.4704 310.93 59.2421C311.166 58.6437 311.303 58.3095 311.342 58.2395C311.382 58.1915 311.41 58.1335 311.427 58.0654C311.463 57.9734 311.499 57.8813 311.536 57.7893L313.171 54.3799C313.249 54.2619 313.314 54.1118 313.364 53.9296C313.433 53.7014 313.496 53.5293 313.553 53.4132C313.609 53.2972 313.647 53.0939 313.666 52.8034C313.689 52.557 313.793 52.3479 313.978 52.1762C314.047 51.9479 314.126 51.7187 314.217 51.4886C314.306 51.2364 314.396 50.9842 314.485 50.732L315.052 49.2158C315.143 48.9856 315.235 48.7665 315.328 48.5584C315.419 48.3282 315.51 48.0981 315.6 47.8679L316.149 46.5201C316.184 46.4059 316.218 46.2918 316.253 46.1777C316.287 46.0636 316.322 45.9605 316.359 45.8685C316.393 45.7543 316.429 45.6512 316.465 45.5592C316.5 45.4451 316.534 45.331 316.568 45.2168C316.859 44.7248 317.103 44.2146 317.301 43.6862C317.454 43.4062 317.608 43.1261 317.761 42.8461C317.914 42.566 318.065 42.2639 318.215 41.9398C318.3 41.6435 318.387 41.3692 318.476 41.117C318.585 40.8408 318.696 40.5867 318.809 40.3546L319.031 39.8353C319.124 39.6272 319.179 39.5001 319.197 39.4541C319.276 39.3361 319.285 39.1908 319.226 39.0183C319.19 38.8659 319.178 38.7225 319.188 38.5883L319.481 38.1294C319.56 38.0114 319.658 37.8584 319.774 37.6704C319.895 37.5265 319.995 37.3956 320.073 37.2776C320.192 37.1117 320.368 37.0852 320.6 37.1983C320.801 36.9585 321.092 36.733 321.474 36.5218C321.652 36.5285 321.813 36.5921 321.957 36.7129C322.075 36.7914 322.216 36.8791 322.38 36.9758C322.488 37.1886 322.575 37.4254 322.642 37.6862C322.709 37.9469 322.639 38.1531 322.43 38.3047ZM305.207 67.742C305.027 67.7133 304.883 67.7148 304.774 67.7465C304.666 67.7782 304.522 67.7797 304.341 67.7511C304.033 67.7781 303.718 67.7389 303.398 67.6336C302.402 67.6763 301.49 67.8005 300.664 68.0061C299.727 68.2214 298.924 68.3139 298.255 68.2835C297.668 68.4238 297.08 68.5641 296.492 68.7044C295.903 68.8227 295.301 68.9308 294.687 69.029C293.504 69.2213 292.339 69.4899 291.192 69.8347C290.65 69.9932 290.176 70.168 289.771 70.359C289.696 70.5211 289.645 70.6922 289.616 70.8725C289.605 71.0068 289.556 71.2 289.467 71.4522C289.806 71.778 290.167 72.0908 290.549 72.3907C290.929 72.6686 291.329 72.9335 291.751 73.1854C292.387 73.8409 293.029 74.4513 293.678 75.0167C294.328 75.582 294.988 76.1464 295.659 76.7098C296.032 76.8994 296.303 77.209 296.474 77.6384C296.736 77.8377 296.968 78.084 297.172 78.3773C297.274 78.5239 297.375 78.6706 297.477 78.8172C297.579 78.9639 297.691 79.1095 297.815 79.2543C298.26 79.2598 298.562 79.4111 298.721 79.7082C298.907 80.0476 299.108 80.3188 299.326 80.5219C299.527 80.7932 299.74 81.0634 299.964 81.3327C300.209 81.6001 300.455 81.8675 300.7 82.1349C301.212 82.6456 301.628 83.2092 301.948 83.8255C302.112 83.9223 302.209 84.0138 302.239 84.1C302.269 84.1863 302.365 84.2778 302.529 84.3746L303.351 80.4364C303.48 79.8697 303.62 79.313 303.772 78.7664C303.922 78.1978 304.095 77.6383 304.292 77.0878C304.309 76.7752 304.403 76.4559 304.574 76.1298C304.748 75.8258 304.796 75.4883 304.719 75.1173C304.912 74.5227 305.105 73.9392 305.299 73.3667C305.514 72.7702 305.729 72.1847 305.946 71.6103C306.162 71.0359 306.366 70.4514 306.559 69.8568C306.773 69.2604 306.976 68.6538 307.166 68.0372C306.833 68.0441 306.508 68.0059 306.19 67.9227C306.031 67.8921 305.873 67.8615 305.715 67.8309C305.557 67.8003 305.387 67.7706 305.207 67.742ZM336.572 85.6625L336.048 84.2418C335.735 83.7137 335.616 82.8576 335.69 81.6734L335.82 80.4955C335.851 80.3373 335.866 80.1359 335.867 79.8914C335.89 79.645 335.908 79.3434 335.921 78.9868C335.936 78.6521 335.952 78.3175 335.967 77.9829C336.002 77.6243 336.048 77.2647 336.106 76.9042C336.163 76.5436 336.198 76.185 336.212 75.8283C336.247 75.4697 336.271 75.1121 336.284 74.7554C335.998 75.2915 335.724 75.8377 335.461 76.394C335.199 76.9502 334.949 77.5275 334.713 78.1259C334.256 79.2547 333.654 80.2516 332.908 81.1169C332.778 81.6615 332.587 82.0226 332.336 82.2001C332.083 82.3556 331.83 82.511 331.577 82.6665C331.324 82.822 331.131 83.161 330.999 83.6836C330.798 83.9234 330.609 84.1733 330.432 84.4332C330.254 84.6931 330.137 85.0034 330.08 85.3639C329.867 85.4714 329.662 85.6671 329.465 85.951C329.082 86.4066 328.837 86.6503 328.729 86.682C328.62 86.7137 328.516 86.7895 328.415 86.9094C328.005 87.3008 327.642 87.5992 327.327 87.8045C327.012 88.0099 326.635 88.1539 326.198 88.2366C325.721 88.3672 325.098 88.4883 324.33 88.6C323.957 88.6548 323.617 88.7068 323.311 88.7558C323.004 88.8049 322.741 88.8501 322.523 88.8914C322.217 88.696 321.985 88.583 321.826 88.5524C321.758 88.5361 321.656 88.5117 321.52 88.4792C321.406 88.4448 321.258 88.4022 321.075 88.3514C320.413 88.1428 320.094 88.0485 320.117 88.0686C320.094 88.0485 320.059 88.0294 320.012 88.0112C319.944 87.9949 319.864 87.9686 319.772 87.9322C319.396 87.6984 319.135 87.5102 318.99 87.3674C318.892 87.2649 318.723 87.113 318.483 86.9118C317.657 85.8508 317.111 84.4321 316.844 82.6556C316.746 82.042 316.802 81.4149 317.013 80.7743C317.224 80.1338 317.418 79.5613 317.596 79.0568C317.812 78.4824 318.055 77.9502 318.323 77.4601C318.476 77.18 318.619 76.912 318.752 76.6559C318.863 76.4018 318.964 76.1596 319.055 75.9295C319.274 75.3771 319.288 75.0314 319.098 74.8925C318.928 74.7296 318.942 74.3839 319.141 73.8555C319.22 73.4931 319.325 73.1728 319.457 72.8947L319.959 71.7841C320.295 71.0438 320.659 70.3786 321.051 69.7888C321.406 69.2689 321.68 68.5895 321.873 67.7504C322.039 67.1137 322.296 66.6136 322.642 66.25C322.987 65.8864 323.413 65.5492 323.92 65.2383C324.148 65.3072 324.465 65.2461 324.87 65.0551C325.276 64.8641 325.581 64.6708 325.786 64.4751C326.095 64.448 326.329 64.3386 326.49 64.1468C326.968 64.0161 327.221 63.9939 327.251 64.0802C327.281 64.1665 327.34 64.2058 327.428 64.1981C327.518 64.2124 327.64 64.2018 327.792 64.1662C327.944 64.1307 328.066 64.1201 328.156 64.1344C328.351 64.584 328.486 64.861 328.562 64.9654C328.66 65.068 328.713 65.1744 328.723 65.2846C328.735 65.4169 328.739 65.5943 328.736 65.8168C328.734 66.0392 328.714 66.1965 328.678 66.2885C328.464 66.6405 328.339 66.8625 328.303 66.9546L328.224 67.1948C328.107 67.3828 327.971 67.6058 327.816 67.8638C327.68 68.0978 327.527 68.3779 327.356 68.7039L326.433 70.3511C326.224 70.7472 326.024 71.0091 325.835 71.1367C325.604 71.2902 325.427 71.5502 325.304 71.9165C325.229 72.0786 325.177 72.2497 325.149 72.43C325.14 72.5863 325.088 72.7575 324.994 72.9435C324.579 74.0463 324.099 75.166 323.554 76.3024C323.272 76.8827 323 77.4619 322.74 78.0402C322.499 78.5945 322.269 79.1368 322.049 79.6672C322.042 79.8455 322.025 80.0248 321.996 80.2051C321.965 80.3633 321.936 80.5325 321.907 80.7128C321.83 81.0973 321.802 81.4219 321.826 81.6865C321.831 81.7526 321.839 82.0964 321.849 82.7177C321.859 83.339 321.913 83.7009 322.011 83.8034C322.308 84.1551 322.477 84.307 322.517 84.259C322.558 84.2111 322.603 84.2183 322.652 84.2805C322.867 84.7061 323.011 84.9491 323.083 85.0095C323.155 85.0698 323.305 85.1345 323.533 85.2034C323.713 85.2321 323.964 85.1768 324.285 85.0376C324.606 84.8984 324.851 84.777 325.02 84.6734C325.526 84.3624 325.899 84.0521 326.138 83.7423C326.378 83.4324 326.616 83.1116 326.854 82.7797C327.446 81.928 328.071 80.9401 328.728 79.8161C329.385 78.692 330.01 77.7041 330.602 76.8524C330.798 76.302 331.071 75.7448 331.422 75.1808C331.791 74.5708 332.066 74.0357 332.248 73.5754L333.018 71.7082C333.129 71.4541 333.249 71.1769 333.379 70.8767C333.508 70.5766 333.646 70.2534 333.794 69.9072C334.026 69.5092 334.271 69.1432 334.531 68.8094C334.791 68.4756 334.961 68.0053 335.041 67.3983C335.124 67.08 335.263 66.7678 335.459 66.4618C335.555 66.2978 335.643 66.1568 335.722 66.0389C335.82 65.8969 335.898 65.7679 335.954 65.6519C336.258 65.3142 336.447 65.0533 336.519 64.8692C336.592 64.6851 336.722 64.5182 336.909 64.3685C337.382 64.1938 337.749 64.0617 338.007 63.9724C338.266 63.8831 338.598 63.8652 339.003 63.9187C339.336 63.6673 339.701 63.5243 340.098 63.4895C340.297 63.4722 340.485 63.4668 340.663 63.4734C340.862 63.456 341.05 63.4507 341.229 63.4573C341.248 63.6778 341.316 63.8163 341.432 63.8728C341.548 63.9293 341.613 64.0458 341.629 64.2222C341.84 64.6037 341.882 65.0888 341.756 65.6776C341.614 66.3344 341.554 66.9174 341.576 67.4265C341.506 67.8992 341.376 68.3216 341.187 68.6938C340.979 69.1119 340.829 69.5583 340.737 70.0329C340.678 70.3714 340.624 70.6428 340.575 70.847C340.549 71.0494 340.527 71.1846 340.511 71.2526L340.376 71.9977C340.322 72.4023 340.268 72.7959 340.213 73.1785C340.155 73.5391 340.098 73.8996 340.041 74.2601C339.926 74.9812 339.862 75.7756 339.849 76.6433C339.868 76.8638 339.856 77.0983 339.811 77.3466C339.764 77.5729 339.749 77.7853 339.766 77.9838C339.786 78.2043 339.82 78.4679 339.869 78.7747C339.918 79.0815 340.057 79.2693 340.285 79.3383C340.535 79.4052 340.743 79.3649 340.908 79.2171C341.113 79.0214 341.331 78.8468 341.562 78.6933C341.706 78.5695 341.91 78.3518 342.171 78.04C342.433 77.7283 342.636 77.5105 342.781 77.3868C342.982 77.1469 343.209 76.9493 343.462 76.7939C343.715 76.6384 343.942 76.4408 344.143 76.201C344.469 75.8614 344.784 75.5228 345.088 75.1851C345.412 74.8235 345.713 74.4638 345.993 74.106C346.595 73.3645 347.241 72.7525 347.932 72.2698C348.572 71.4584 349.228 70.701 349.9 69.9979C350.572 69.2948 351.351 68.6822 352.239 68.1601C352.642 68.7026 352.772 69.1689 352.628 69.5593C352.484 69.9496 352.296 70.3327 352.062 70.7087C351.961 70.8286 351.817 70.9523 351.628 71.0799C351.397 71.2335 351.23 71.3592 351.128 71.457L350.826 71.8167C350.705 71.9606 350.601 72.0364 350.512 72.0441C350.528 72.2205 350.485 72.3687 350.385 72.4886L350.113 72.8123C349.865 73.2784 349.593 73.7244 349.297 74.1503C349.021 74.5521 348.722 74.9449 348.4 75.3286C348.078 75.7123 347.756 76.096 347.434 76.4797C347.132 76.8394 346.831 77.2101 346.531 77.5919C346.232 77.7291 346.057 77.8889 346.007 78.0711C345.96 78.2974 345.833 78.4973 345.626 78.671C345.547 78.789 345.468 78.8959 345.387 78.9918C345.307 79.0878 345.226 79.1837 345.146 79.2796C345.065 79.3755 344.985 79.4714 344.904 79.5674C344.824 79.6633 344.744 79.7702 344.666 79.8882C344.426 80.198 344.221 80.516 344.049 80.842C343.876 81.1461 343.625 81.4458 343.295 81.7413C343.094 81.9811 342.949 82.2271 342.859 82.4793C342.791 82.7076 342.645 82.9536 342.424 83.2174C342.102 83.601 341.863 83.7886 341.707 83.7801C341.573 83.7696 341.47 83.9897 341.398 84.4404C341.068 84.7358 340.886 84.9406 340.852 85.0547C340.837 85.1449 340.774 85.1837 340.662 85.1713C340.556 85.2251 340.404 85.2717 340.208 85.3111C339.989 85.3524 339.884 85.4172 339.891 85.5054C339.616 85.6628 339.396 85.8154 339.231 85.9631C339.068 86.1329 338.867 86.2394 338.626 86.2827C338.06 86.4211 337.65 86.4237 337.394 86.2905C337.137 86.1574 336.864 85.948 336.572 85.6625ZM361.034 50.5923L361.713 50.7329C361.811 50.8354 361.867 50.9639 361.88 51.1182C361.89 51.2285 361.966 51.333 362.108 51.4316C362.054 51.8363 362.013 52.251 361.983 52.6757C361.954 53.1005 361.956 53.5113 361.991 53.9083C362.004 54.0626 362.073 54.2122 362.197 54.3569C362.321 54.5016 362.387 54.6291 362.397 54.7393C362.221 55.2658 362.082 55.589 361.982 55.7089C361.881 55.8288 361.836 55.9439 361.845 56.0541C361.633 56.1616 361.479 56.3084 361.384 56.4944C361.289 56.6805 361.109 56.7851 360.845 56.8083C360.768 56.9483 360.678 57.0562 360.573 57.132C360.449 57.2318 360.382 57.3598 360.373 57.5161C359.673 57.8885 358.877 57.9359 357.986 57.6583C357.707 57.2605 357.373 57.0009 356.985 56.8793C356.338 56.0915 356.229 55.1012 356.658 53.9082C356.727 53.68 356.806 53.4398 356.895 53.1875C356.984 52.9353 357.069 52.7613 357.149 52.6654C357.584 52.2941 357.917 52.0427 358.15 51.9112C358.234 51.8594 358.319 51.8076 358.403 51.7558C358.507 51.68 358.601 51.6051 358.683 51.5313C358.828 51.4075 359.05 51.277 359.349 51.1397C359.477 51.084 359.597 51.0514 359.707 51.0417C359.883 51.0263 360.045 50.9677 360.192 50.866C360.278 50.8362 360.353 50.8074 360.417 50.7796C360.504 50.7498 360.579 50.721 360.643 50.6932C360.816 50.6337 360.946 50.6 361.034 50.5923ZM353.675 80.7665L354.018 80.8699C354.399 80.6587 354.878 80.5501 355.456 80.5441C356.055 80.5361 356.51 80.4074 356.822 80.1579C357.027 79.9622 357.169 79.8164 357.25 79.7205C357.371 79.5766 357.521 79.519 357.701 79.5477C358.384 79.2213 358.956 78.9046 359.418 78.5975C359.902 78.2886 360.414 78.0438 360.954 77.8633C361.295 77.7001 361.586 77.4746 361.828 77.1869C362.707 76.8211 363.432 76.3466 364.003 75.7633C364.596 75.1782 365.242 74.5551 365.939 73.8941C366.526 73.4873 367.017 73.1332 367.413 72.8319C367.809 72.5307 368.232 72.1604 368.682 71.721C368.771 71.4688 368.878 71.2928 369.003 71.193C369.107 71.1172 369.216 70.9633 369.329 70.7312C370.123 70.6617 370.591 70.9319 370.733 71.5416C370.555 72.046 370.292 72.469 369.944 72.8105C369.576 73.176 369.265 73.5587 369.011 73.9586C368.678 74.21 368.408 74.4336 368.203 74.6293C367.998 74.825 367.801 75.1089 367.611 75.481C367.589 75.4829 367.466 75.5937 367.24 75.8134C367.037 76.0312 366.914 76.142 366.87 76.1458C366.553 76.5957 366.311 76.8724 366.142 76.976C365.974 77.0797 365.685 77.3382 365.277 77.7517C365.033 78.2619 364.67 78.6935 364.19 79.0466C363.321 80.0337 362.384 80.8822 361.38 81.5923C360.856 81.9492 360.365 82.3143 359.909 82.6875C359.451 83.0387 359.015 83.3879 358.601 83.7352C358.392 83.8868 358.248 84.0216 358.17 84.1395C358.091 84.2575 357.949 84.4144 357.744 84.6101C357.539 84.8058 357.213 85.0121 356.765 85.229C356.318 85.4459 355.923 85.636 355.582 85.7991C355.311 86.0006 355.08 86.1542 354.889 86.2597C353.901 86.3906 353.137 86.3019 352.599 85.9934C351.999 85.7349 351.537 85.5309 351.213 85.3815C350.888 85.2321 350.599 84.9686 350.343 84.591C349.815 84.3928 349.482 84.0109 349.343 83.4452C349.272 83.1404 349.191 82.8475 349.1 82.5666C349.009 82.2858 348.917 82.0049 348.826 81.724C348.763 81.5074 348.696 81.2576 348.627 80.9748C348.558 80.692 348.532 80.3943 348.549 80.0817C348.615 79.5649 348.636 79.0409 348.612 78.5098C348.591 78.0227 348.66 77.539 348.818 77.0585C348.978 76.6001 349.057 76.1044 349.054 75.5713C349.052 75.0382 349.131 74.5425 349.291 74.0841C349.539 73.618 349.639 73.3648 349.591 73.3246C349.567 73.3045 349.572 73.2373 349.607 73.1232L349.87 72.7003C349.928 72.6063 350.014 72.4432 350.127 72.2112L350.437 71.1841C350.603 70.7919 350.774 70.4658 350.951 70.2059C351.127 69.9239 351.27 69.5336 351.382 69.035C351.466 68.7166 351.566 68.4634 351.682 68.2754C351.761 68.1575 351.829 68.0405 351.885 67.9244C351.962 67.7844 352.038 67.6444 352.115 67.5044C352.206 67.2742 352.292 66.9889 352.373 66.6485C352.404 66.4903 352.436 66.3431 352.468 66.2069C352.521 66.0468 352.573 65.8866 352.626 65.7265C352.727 65.3621 352.862 64.9948 353.03 64.6246C353.197 64.2544 353.376 63.8833 353.565 63.5112C353.711 63.1429 353.842 62.8648 353.959 62.6768C354.076 62.4888 354.331 62.3554 354.724 62.2766C354.919 62.2151 355.118 62.2088 355.322 62.2576C355.571 62.3025 355.79 62.2722 355.981 62.1666C356.531 61.8519 356.916 61.6848 357.137 61.6655C357.357 61.6462 357.506 61.5666 357.583 61.4266C358.048 61.4081 358.414 61.5316 358.682 61.797C358.947 62.0404 359.235 62.2819 359.545 62.5214C359.392 63.8235 359.18 64.8309 358.909 65.5434C358.638 66.2559 358.337 67.0044 358.006 67.7889C357.816 68.161 357.63 68.5772 357.449 69.0375C357.267 69.4978 357.103 69.9121 356.957 70.2804C356.779 70.7848 356.585 71.235 356.376 71.6311C356.128 72.0972 355.956 72.5456 355.86 72.9761L355.617 73.6306C355.508 73.9068 355.427 74.125 355.375 74.2851C355.344 74.4433 355.302 74.6025 355.25 74.7627C355.217 74.8988 355.162 75.0259 355.083 75.1439C355.005 75.2618 354.938 75.3899 354.883 75.528C354.827 75.644 354.77 75.7601 354.714 75.8761C354.605 76.1523 354.496 76.4285 354.386 76.7047C354.277 76.9809 354.192 77.2772 354.131 77.5936C353.953 78.098 353.848 78.4293 353.818 78.5876C353.8 78.6336 353.782 78.6907 353.766 78.7587C353.748 78.8048 353.73 78.8508 353.712 78.8968C353.666 79.3897 353.568 79.7982 353.419 80.1223C353.269 80.4465 353.355 80.6612 353.675 80.7665Z" fill="#ED6A00"/>
</svg>
