<svg width="226" height="39" viewBox="0 0 226 39" fill="none" xmlns="http://www.w3.org/2000/svg">
<path d="M4.00006 28.6759C4.00006 28.3973 4.1394 28.1313 4.41806 27.8779C4.72206 27.6246 4.9374 27.3966 5.06406 27.1939C5.36806 26.7633 5.60873 26.3706 5.78606 26.0159C5.98873 25.6613 6.1534 25.3066 6.28006 24.9519C6.43206 24.5719 6.5714 24.1793 6.69806 23.7739C6.82473 23.3686 6.97673 22.8999 7.15406 22.3679C7.23006 22.1399 7.3314 21.8106 7.45806 21.3799C7.61006 20.9239 7.7494 20.4553 7.87606 19.9739C8.00273 19.4926 8.11673 19.0366 8.21806 18.6059C8.34473 18.1499 8.4334 17.7953 8.48406 17.5419C8.53473 17.1873 8.6994 16.9719 8.97806 16.8959C9.28206 16.7946 9.5734 16.7693 9.85206 16.8199C10.1814 16.8706 10.3967 16.9719 10.4981 17.1239C10.6247 17.2759 10.6881 17.4913 10.6881 17.7699C10.6881 18.0233 10.6501 18.2639 10.5741 18.4919C10.4981 18.7199 10.4347 18.9733 10.3841 19.2519C10.3081 19.6826 10.1814 20.1766 10.0041 20.7339C9.85206 21.2659 9.67473 21.8106 9.47206 22.3679C9.29473 22.9253 9.09206 23.4826 8.86406 24.0399C8.6614 24.5973 8.4714 25.1039 8.29406 25.5599C8.1674 25.9146 8.04073 26.2059 7.91406 26.4339C7.7874 26.6619 7.62273 26.9786 7.42006 27.3839C7.57206 27.3586 7.7874 27.3333 8.06606 27.3079C8.37006 27.2826 8.67406 27.2573 8.97806 27.2319C9.3074 27.1813 9.62406 27.1433 9.92806 27.1179C10.2321 27.0673 10.4601 27.0293 10.6121 27.0039C11.1947 26.9026 11.7774 26.8393 12.3601 26.8139C12.9427 26.7633 13.5634 26.7379 14.2221 26.7379H16.0461C16.2487 26.7379 16.4007 26.8393 16.5021 27.0419C16.6034 27.2446 16.6541 27.4346 16.6541 27.6119C16.6541 27.7386 16.6161 27.8653 16.5401 27.9919C16.4641 28.0933 16.3881 28.1566 16.3121 28.1819C15.0201 28.4353 13.7281 28.6379 12.4361 28.7899C11.1694 28.9166 9.89006 29.0939 8.59806 29.3219C8.3194 29.3726 8.0154 29.4486 7.68606 29.5499C7.35673 29.6259 7.0274 29.7019 6.69806 29.7779C6.39406 29.8539 6.0774 29.9173 5.74806 29.9679C5.44406 30.0439 5.15273 30.0693 4.87406 30.0439C4.2154 29.9933 3.92406 29.5373 4.00006 28.6759ZM0.542064 18.9479C0.66873 18.2133 0.85873 17.5799 1.11206 17.0479C1.39073 16.4906 1.7074 15.9459 2.06206 15.4139C2.4674 14.8313 2.9234 14.2613 3.43006 13.7039C3.93673 13.1466 4.4814 12.6146 5.06406 12.1079C5.52006 11.7279 6.02673 11.2846 6.58406 10.7779C7.1414 10.2713 7.6354 9.84061 8.06606 9.48594C8.29406 9.30861 8.5094 9.15661 8.71206 9.02994C8.94006 8.87794 9.21873 8.77661 9.54806 8.72594C9.75073 8.67527 9.9914 8.71328 10.2701 8.83994C10.5741 8.94128 10.7387 9.11861 10.7641 9.37194C10.7894 9.54928 10.7387 9.72661 10.6121 9.90394C10.5107 10.0813 10.3714 10.2586 10.1941 10.4359C10.0167 10.5879 9.82673 10.7526 9.62406 10.9299C9.4214 11.0819 9.24406 11.2339 9.09206 11.3859C9.90273 11.5126 10.6627 11.6266 11.3721 11.7279C12.1067 11.8039 12.7654 11.8799 13.3481 11.9559C14.6147 12.1333 15.8941 12.3993 17.1861 12.7539C17.4901 12.8299 17.8067 12.9566 18.1361 13.1339C18.4907 13.2859 18.6681 13.5013 18.6681 13.7799C18.6681 14.1346 18.5414 14.3626 18.2881 14.4639C18.0347 14.5399 17.7307 14.5526 17.3761 14.5019C16.8187 14.4259 16.2741 14.3499 15.7421 14.2739C15.2101 14.1726 14.6654 14.0966 14.1081 14.0459C13.6267 13.9953 13.1201 13.9319 12.5881 13.8559C12.0814 13.7546 11.6127 13.6786 11.1821 13.6279C10.9287 13.6026 10.5994 13.5646 10.1941 13.5139C9.81406 13.4633 9.40873 13.4253 8.97806 13.3999C8.57273 13.3746 8.1674 13.3746 7.76206 13.3999C7.38206 13.4253 7.0654 13.5013 6.81206 13.6279C6.6094 13.7293 6.39406 13.8686 6.16606 14.0459C5.93806 14.2233 5.76073 14.3753 5.63406 14.5019C5.2034 14.9073 4.8234 15.3379 4.49406 15.7939C4.16473 16.2246 3.84806 16.6806 3.54406 17.1619C3.2654 17.5926 3.05006 17.9599 2.89806 18.2639C2.74606 18.5679 2.60673 18.8846 2.48006 19.2139C2.37873 19.4926 2.25206 19.7333 2.10006 19.9359C1.94806 20.1133 1.6314 20.1766 1.15006 20.1259C0.871397 20.1006 0.681397 19.9866 0.580064 19.7839C0.504064 19.5813 0.491397 19.3026 0.542064 18.9479ZM23.25 25.9779C23.1994 25.7246 23.2754 25.5093 23.478 25.3319C23.6807 25.1546 23.8834 24.9899 24.086 24.8379C24.5674 24.4833 24.998 23.9766 25.378 23.3179C25.758 22.6593 26.0494 22.0766 26.252 21.5699C26.48 20.9873 26.67 20.5059 26.822 20.1259C26.974 19.7459 27.1514 19.3533 27.354 18.9479C27.43 18.7959 27.5694 18.6946 27.772 18.6439C28 18.5679 28.2154 18.5426 28.418 18.5679C28.7474 18.5933 28.9627 18.7199 29.064 18.9479C29.1907 19.1506 29.2287 19.3533 29.178 19.5559C29.1274 19.8346 29.0514 20.1006 28.95 20.3539C28.874 20.6073 28.7727 20.8733 28.646 21.1519C28.4434 21.5573 28.266 21.9119 28.114 22.2159C27.9874 22.4946 27.848 22.8113 27.696 23.1659C27.5947 23.3686 27.468 23.6093 27.316 23.8879C27.164 24.1666 26.9994 24.4199 26.822 24.6479C27.278 24.5466 27.696 24.4706 28.076 24.4199C28.4814 24.3439 28.874 24.2806 29.254 24.2299C29.634 24.1793 30.014 24.1413 30.394 24.1159C30.7994 24.0653 31.2427 24.0273 31.724 24.0019C32.4587 23.9513 33.1174 23.9386 33.7 23.9639C34.308 23.9893 34.9034 24.0779 35.486 24.2299C35.6887 24.3313 35.7647 24.5593 35.714 24.9139C35.6887 25.2433 35.5747 25.4333 35.372 25.4839C35.2454 25.4839 35.0427 25.4966 34.764 25.5219C34.5107 25.5473 34.232 25.5726 33.928 25.5979C33.624 25.6233 33.3327 25.6486 33.054 25.6739C32.8007 25.6993 32.6234 25.7119 32.522 25.7119C32.2434 25.7626 31.8634 25.8259 31.382 25.9019C30.9007 25.9526 30.4954 26.0033 30.166 26.0539C29.0514 26.2313 28.076 26.4086 27.24 26.5859C26.4294 26.7633 25.4667 26.9533 24.352 27.1559C24.0734 27.2066 23.8327 27.1306 23.63 26.9279C23.4274 26.6999 23.3007 26.3833 23.25 25.9779ZM25.682 34.7559C25.7074 34.3506 25.7707 33.9833 25.872 33.6539C25.9734 33.3499 26.0874 33.0713 26.214 32.8179C26.2647 32.7166 26.3534 32.5393 26.48 32.2859C26.6067 32.0579 26.7334 31.8046 26.86 31.5259C26.9867 31.2726 27.1134 31.0319 27.24 30.8039C27.3667 30.5759 27.4554 30.4239 27.506 30.3479C27.6327 30.1706 27.772 29.9553 27.924 29.7019C28.1014 29.4486 28.2787 29.2079 28.456 28.9799C28.6587 28.7519 28.8487 28.5619 29.026 28.4099C29.2287 28.2579 29.4187 28.1819 29.596 28.1819C29.8747 28.1819 30.1534 28.3086 30.432 28.5619C30.7107 28.7899 30.7867 29.0686 30.66 29.3979C30.6094 29.5246 30.508 29.7273 30.356 30.0059C30.6094 30.1326 30.85 30.3733 31.078 30.7279C31.3314 31.0826 31.4834 31.3993 31.534 31.6779C31.6607 32.4126 31.5214 33.1473 31.116 33.8819C30.736 34.6419 30.2167 35.2753 29.558 35.7819C28.8487 36.3393 27.9747 36.5166 26.936 36.3139C26.556 36.2379 26.2394 36.0859 25.986 35.8579C25.758 35.6299 25.6567 35.2626 25.682 34.7559ZM29.368 31.2219C29.2667 31.2979 29.1147 31.4753 28.912 31.7539C28.7347 32.0326 28.5574 32.3493 28.38 32.7039C28.2027 33.0586 28.0507 33.4006 27.924 33.7299C27.7974 34.0846 27.734 34.3506 27.734 34.5279C28.3167 34.4773 28.7727 34.1733 29.102 33.6159C29.4567 33.0586 29.6467 32.5266 29.672 32.0199C29.672 31.8679 29.6467 31.7159 29.596 31.5639C29.5707 31.4373 29.4947 31.3233 29.368 31.2219ZM22.11 16.5539C21.9327 15.6673 21.958 14.6666 22.186 13.5519C22.2367 13.2479 22.3127 12.9059 22.414 12.5259C22.5154 12.1206 22.6167 11.7153 22.718 11.3099C22.8447 10.8793 22.984 10.4613 23.136 10.0559C23.288 9.65061 23.44 9.28328 23.592 8.95394C23.7947 8.57394 24.01 8.26994 24.238 8.04194C24.4914 7.78861 24.8334 7.67461 25.264 7.69994C25.6187 7.72528 25.8467 7.81394 25.948 7.96594C26.0494 8.11794 26.0494 8.29527 25.948 8.49794C25.7454 8.95394 25.568 9.38461 25.416 9.78994C25.2894 10.1699 25.1247 10.6259 24.922 11.1579C25.226 11.0566 25.5934 10.9426 26.024 10.8159C26.48 10.6639 26.8474 10.5499 27.126 10.4739C27.582 10.3219 28.0887 10.1699 28.646 10.0179C29.2034 9.86594 29.7607 9.72661 30.318 9.59994C30.9007 9.47327 31.458 9.35927 31.99 9.25794C32.522 9.15661 33.0034 9.09328 33.434 9.06794C33.6874 9.04261 34.004 9.04261 34.384 9.06794C34.764 9.09328 34.9794 9.24528 35.03 9.52394C35.0807 9.87861 34.992 10.1446 34.764 10.3219C34.536 10.4739 34.2447 10.5879 33.89 10.6639C33.1554 10.8413 32.3574 11.0566 31.496 11.3099C30.6347 11.5379 29.7607 11.7913 28.874 12.0699C28.0127 12.3233 27.1894 12.5893 26.404 12.8679C25.6187 13.1466 24.96 13.4379 24.428 13.7419C24.3014 14.0459 24.2127 14.3626 24.162 14.6919C24.1367 14.9959 24.1494 15.2746 24.2 15.5279C24.2507 15.6799 24.3647 15.7813 24.542 15.8319C24.7194 15.8573 24.9094 15.8573 25.112 15.8319C25.5174 15.7813 25.8467 15.7306 26.1 15.6799C26.3787 15.6039 26.632 15.5279 26.86 15.4519C27.1134 15.3759 27.3794 15.2873 27.658 15.1859C27.9367 15.0846 28.2787 14.9706 28.684 14.8439C28.8867 14.7679 29.0894 14.7173 29.292 14.6919C29.4947 14.6413 29.6847 14.6033 29.862 14.5779C30.09 14.5526 30.242 14.6413 30.318 14.8439C30.4194 15.0213 30.47 15.1859 30.47 15.3379C30.47 15.7433 30.1027 16.1233 29.368 16.4779C28.912 16.7059 28.4307 16.9213 27.924 17.1239C27.4427 17.3013 26.9614 17.4659 26.48 17.6179C26.024 17.7446 25.606 17.8459 25.226 17.9219C24.846 17.9726 24.542 17.9979 24.314 17.9979C23.782 17.9979 23.3134 17.9093 22.908 17.7319C22.5027 17.5293 22.2367 17.1366 22.11 16.5539ZM20.704 6.29394C20.704 6.11661 20.7674 5.95194 20.894 5.79994C21.0207 5.64794 21.1727 5.52127 21.35 5.41994C21.5274 5.29328 21.7047 5.19194 21.882 5.11594C22.0594 5.03994 22.1987 4.97661 22.3 4.92594C22.6294 4.79928 23.06 4.64728 23.592 4.46994C24.124 4.29261 24.7067 4.12794 25.34 3.97594C25.9987 3.79861 26.6827 3.65928 27.392 3.55794C28.1014 3.43128 28.7854 3.36794 29.444 3.36794C30.1534 3.36794 30.508 3.67194 30.508 4.27994C30.508 4.40661 30.47 4.54594 30.394 4.69794C30.318 4.82461 30.1914 4.90061 30.014 4.92594C29.406 5.00194 28.7474 5.11594 28.038 5.26794C27.354 5.39461 26.6827 5.55928 26.024 5.76194C25.3654 5.93928 24.7194 6.15461 24.086 6.40794C23.478 6.63594 22.946 6.88928 22.49 7.16794C22.4394 7.21861 22.3507 7.28194 22.224 7.35794C22.1227 7.40861 21.9707 7.43394 21.768 7.43394C21.4387 7.43394 21.1727 7.33261 20.97 7.12994C20.7927 6.90194 20.704 6.62327 20.704 6.29394ZM54.4068 20.5059C54.4068 20.3286 54.4068 20.1006 54.4068 19.8219C54.4068 19.5179 54.4068 19.2266 54.4068 18.9479C54.4321 18.6693 54.4448 18.4159 54.4448 18.1879C54.4448 17.9599 54.4448 17.8333 54.4448 17.8079C54.4448 17.5546 54.4574 17.1619 54.4828 16.6299C54.5081 16.0726 54.5461 15.4899 54.5968 14.8819C54.6474 14.2486 54.6854 13.6659 54.7108 13.1339C54.7614 12.5766 54.8121 12.1713 54.8628 11.9179C54.9894 11.0566 55.1414 10.1826 55.3188 9.29594C55.4961 8.40928 55.7241 7.56061 56.0028 6.74994C56.0534 6.62327 56.1674 6.54728 56.3448 6.52194C56.5221 6.47127 56.7374 6.44594 56.9908 6.44594C57.2948 6.44594 57.5354 6.53461 57.7128 6.71194C57.9154 6.88927 58.0168 7.12994 58.0168 7.43394C58.0168 7.63661 57.9914 7.85194 57.9408 8.07994C57.9154 8.30794 57.8774 8.52328 57.8268 8.72594C57.5734 9.73927 57.3581 10.7399 57.1808 11.7279C57.0288 12.7159 56.9148 13.7293 56.8388 14.7679C56.7881 15.1733 56.7501 15.5153 56.7248 15.7939C56.6994 16.0473 56.6741 16.3006 56.6488 16.5539C56.6488 16.8073 56.6361 17.0733 56.6108 17.3519C56.5854 17.6053 56.5601 17.9346 56.5348 18.3399V19.6319C57.1174 19.3786 57.5988 19.1886 57.9788 19.0619C58.3841 18.9099 58.7641 18.7833 59.1188 18.6819C59.5241 18.5553 60.0561 18.4033 60.7148 18.2259C61.3988 18.0233 62.0954 17.8966 62.8048 17.8459C63.2354 17.7953 63.4888 17.8839 63.5648 18.1119C63.6408 18.3146 63.6154 18.5173 63.4888 18.7199C63.4381 18.7959 63.3621 18.8593 63.2608 18.9099C63.1848 18.9606 63.1214 19.0113 63.0708 19.0619C62.7414 19.2139 62.4374 19.3533 62.1588 19.4799C61.8801 19.6066 61.5634 19.7459 61.2088 19.8979C60.4488 20.2273 59.6381 20.5819 58.7768 20.9619C57.9408 21.3166 57.1934 21.7219 56.5348 22.1779C56.5348 22.3046 56.5221 22.5706 56.4968 22.9759C56.4714 23.3559 56.4588 23.6093 56.4588 23.7359V24.7239C56.4588 24.7999 56.4588 24.9266 56.4588 25.1039C56.4588 25.2813 56.4588 25.4713 56.4588 25.6739C56.4841 25.8513 56.4968 26.0286 56.4968 26.2059C56.5221 26.3579 56.5348 26.4466 56.5348 26.4719C56.5601 26.6239 56.5854 26.8013 56.6108 27.0039C56.6614 27.1813 56.6868 27.3586 56.6868 27.5359C56.6868 27.6879 56.6488 27.8273 56.5728 27.9539C56.5221 28.0806 56.3954 28.1566 56.1928 28.1819C55.9901 28.2326 55.7494 28.2199 55.4708 28.1439C55.2174 28.0679 55.0274 27.8526 54.9008 27.4979C54.7741 27.1433 54.6728 26.7126 54.5968 26.2059C54.5461 25.8513 54.5081 25.4966 54.4828 25.1419C54.4574 24.7873 54.4448 24.4073 54.4448 24.0019C54.4448 23.9513 54.4448 23.7866 54.4448 23.5079C54.4448 23.2039 54.4321 22.8746 54.4068 22.5199C54.4068 22.1399 54.4068 21.7726 54.4068 21.4179C54.4068 21.0379 54.4068 20.7339 54.4068 20.5059ZM42.3988 24.6099C42.4241 24.1793 42.4874 23.7739 42.5888 23.3939C42.6901 22.9886 42.8168 22.5706 42.9688 22.1399C43.0448 21.9626 43.1334 21.7473 43.2348 21.4939C43.3361 21.2406 43.4501 20.9999 43.5768 20.7719C43.7034 20.5186 43.8174 20.2906 43.9188 20.0879C44.0201 19.8599 44.1088 19.6953 44.1848 19.5939C44.3368 19.3406 44.5394 18.9986 44.7928 18.5679C45.0714 18.1373 45.3754 17.8586 45.7048 17.7319C45.8314 17.6813 45.9581 17.6686 46.0848 17.6939C46.2114 17.6939 46.3001 17.7066 46.3508 17.7319C46.6294 17.7826 46.8448 17.8839 46.9968 18.0359C47.1741 18.1879 47.1994 18.4413 47.0728 18.7959C46.9968 18.9986 46.9208 19.2139 46.8448 19.4419C46.7688 19.6446 46.6801 19.8853 46.5788 20.1639C46.6801 20.2146 46.7688 20.2906 46.8448 20.3919C46.9208 20.4679 46.9968 20.5439 47.0728 20.6199C47.3768 20.9746 47.5794 21.3293 47.6808 21.6839C47.8074 22.0133 47.8454 22.4059 47.7948 22.8619C47.7188 23.7739 47.5161 24.5593 47.1868 25.2179C46.8574 25.8766 46.3128 26.4466 45.5528 26.9279C45.3501 27.0546 45.0714 27.1433 44.7168 27.1939C44.3621 27.2446 44.0708 27.2193 43.8428 27.1179C43.2854 26.9153 42.8928 26.5606 42.6648 26.0539C42.4621 25.5473 42.3734 25.0659 42.3988 24.6099ZM38.5608 18.4159C38.3834 18.2386 38.2948 18.0233 38.2948 17.7699C38.2948 17.4913 38.3581 17.2506 38.4848 17.0479C38.5354 16.9719 38.6241 16.8706 38.7508 16.7439C38.9028 16.6173 39.0548 16.4906 39.2068 16.3639C39.3588 16.2373 39.4981 16.1233 39.6248 16.0219C39.7768 15.8953 39.8781 15.8066 39.9288 15.7559C40.4354 15.4266 40.9294 15.1733 41.4108 14.9959C41.8921 14.7933 42.3861 14.6033 42.8928 14.4259C43.6021 14.1726 44.2734 13.9826 44.9068 13.8559C45.5654 13.7039 46.2368 13.5773 46.9208 13.4759C47.1741 13.4759 47.4654 13.4633 47.7948 13.4379C48.1494 13.4126 48.5041 13.3999 48.8588 13.3999C49.2388 13.3746 49.6061 13.3746 49.9608 13.3999C50.3154 13.3999 50.6448 13.4253 50.9488 13.4759C51.1261 13.5013 51.2654 13.5899 51.3668 13.7419C51.4934 13.8686 51.5441 14.0206 51.5188 14.1979C51.5188 14.3499 51.4428 14.5019 51.2908 14.6539C51.1641 14.8059 50.9361 14.8946 50.6068 14.9199C50.3281 14.9453 49.9734 14.9833 49.5428 15.0339C49.1374 15.0593 48.7068 15.0973 48.2508 15.1479C47.7948 15.1986 47.3261 15.2619 46.8448 15.3379C46.3888 15.3886 45.9961 15.4646 45.6668 15.5659C45.3374 15.6419 45.0461 15.7179 44.7928 15.7939C44.5394 15.8699 44.2861 15.9713 44.0328 16.0979C43.7794 16.1993 43.5134 16.3133 43.2348 16.4399C42.9561 16.5666 42.6394 16.7186 42.2848 16.8959C42.0314 17.0226 41.7654 17.1619 41.4868 17.3139C41.2081 17.4406 40.9674 17.6053 40.7648 17.8079C40.4608 18.0866 40.2074 18.3146 40.0048 18.4919C39.8274 18.6439 39.5488 18.6946 39.1688 18.6439C38.9661 18.6439 38.7634 18.5679 38.5608 18.4159ZM42.3608 9.25794C42.3608 8.11794 42.4874 7.04128 42.7408 6.02794C43.0194 5.01461 43.3361 4.01394 43.6908 3.02594C43.8681 2.54461 44.2734 2.30394 44.9068 2.30394C45.0081 2.30394 45.1728 2.35461 45.4008 2.45594C45.6288 2.53194 45.7428 2.68394 45.7428 2.91194C45.7428 3.21594 45.7301 3.48194 45.7048 3.70994C45.6794 3.93794 45.6034 4.21661 45.4768 4.54594C45.4008 4.82461 45.3121 5.11594 45.2108 5.41994C45.1348 5.69861 45.0334 5.97727 44.9068 6.25594C44.6281 6.91461 44.4508 7.59861 44.3748 8.30794C44.2988 8.99194 44.2354 9.68861 44.1848 10.3979C44.1341 11.0059 44.0834 11.5379 44.0328 11.9939C43.9821 12.4499 43.7668 12.6779 43.3868 12.6779C43.2601 12.6779 43.1208 12.5893 42.9688 12.4119C42.8168 12.2346 42.7154 12.0573 42.6648 11.8799C42.5381 11.4493 42.4494 11.0186 42.3988 10.5879C42.3734 10.1319 42.3608 9.68861 42.3608 9.25794ZM44.5648 24.5339C44.5648 24.5846 44.5521 24.6986 44.5268 24.8759C44.5268 25.0279 44.5521 25.1546 44.6028 25.2559C44.7041 25.2559 44.8181 25.2306 44.9448 25.1799C45.0714 25.1293 45.1728 25.0533 45.2488 24.9519C45.6034 24.5719 45.8314 24.2426 45.9328 23.9639C46.0341 23.6599 46.1228 23.2419 46.1988 22.7099C46.2494 22.4313 46.2494 22.1906 46.1988 21.9879C46.1481 21.7853 46.0721 21.5953 45.9708 21.4179C45.6668 21.7219 45.3628 22.1906 45.0588 22.8239C44.7801 23.4319 44.6154 24.0019 44.5648 24.5339ZM71.296 27.2699C71.296 26.1046 71.524 25.0659 71.98 24.1539C72.4613 23.2419 72.968 22.2919 73.5 21.3039C73.5507 21.2279 73.6393 21.1393 73.766 21.0379C73.8927 20.9366 74.0193 20.8733 74.146 20.8479C74.3487 20.7973 74.6273 20.7846 74.982 20.8099C75.362 20.8353 75.59 20.9619 75.666 21.1899C75.7673 21.4433 75.7167 21.7219 75.514 22.0259C75.3367 22.3046 75.1847 22.5453 75.058 22.7479C74.982 22.8746 74.8933 23.0013 74.792 23.1279C74.6907 23.2546 74.5893 23.4319 74.488 23.6599C74.3867 23.8879 74.26 24.1413 74.108 24.4199C73.956 24.6986 73.8167 25.0153 73.69 25.3699C73.614 25.5726 73.538 25.7753 73.462 25.9779C73.4113 26.1806 73.386 26.3959 73.386 26.6239C73.386 26.9279 73.4873 27.1179 73.69 27.1939C73.8927 27.2446 74.1587 27.2446 74.488 27.1939C75.1213 27.0673 75.7167 26.9153 76.274 26.7379C76.8567 26.5606 77.4267 26.3833 77.984 26.2059C78.5667 26.0033 79.1367 25.8259 79.694 25.6739C80.2767 25.5219 80.872 25.4079 81.48 25.3319C81.6827 25.3066 81.8347 25.3699 81.936 25.5219C82.0627 25.6486 82.126 25.8133 82.126 26.0159C82.126 26.2186 82.0627 26.4086 81.936 26.5859C81.8093 26.7633 81.632 26.8773 81.404 26.9279C81.176 26.9786 80.72 27.1179 80.036 27.3459C79.352 27.5739 78.63 27.8273 77.87 28.1059C77.11 28.3846 76.388 28.6379 75.704 28.8659C75.0453 29.0939 74.602 29.2333 74.374 29.2839C74.2727 29.3093 74.108 29.3473 73.88 29.3979C73.652 29.4233 73.462 29.4359 73.31 29.4359H73.12C72.512 29.4359 72.056 29.2206 71.752 28.7899C71.448 28.3339 71.296 27.8273 71.296 27.2699ZM66.736 12.5639C66.736 12.0573 66.7993 11.5253 66.926 10.9679C67.0527 10.4106 67.1793 9.92927 67.306 9.52394C67.3567 9.37194 67.4453 9.11861 67.572 8.76394C67.724 8.40928 67.876 8.04194 68.028 7.66194C68.2053 7.25661 68.37 6.88928 68.522 6.55994C68.6993 6.20527 68.826 5.95194 68.902 5.79994C69.0287 5.59728 69.206 5.48328 69.434 5.45794C69.662 5.40727 69.8647 5.38194 70.042 5.38194C70.3713 5.38194 70.5993 5.45794 70.726 5.60994C70.878 5.76194 70.954 5.93928 70.954 6.14194C70.954 6.24328 70.9287 6.36994 70.878 6.52194L70.802 6.74994C70.346 7.63661 69.9153 8.57394 69.51 9.56194C69.1047 10.5499 68.864 11.4113 68.788 12.1459C69.1173 12.0953 69.4593 12.0319 69.814 11.9559C70.194 11.8799 70.5613 11.8039 70.916 11.7279C71.5747 11.5759 72.17 11.4366 72.702 11.3099C73.234 11.1579 73.766 11.0186 74.298 10.8919C74.678 10.8159 74.9693 10.8539 75.172 11.0059C75.3747 11.1579 75.5013 11.3353 75.552 11.5379C75.6027 11.8166 75.5647 12.0193 75.438 12.1459C75.3367 12.2473 75.2227 12.3359 75.096 12.4119C74.9947 12.4626 74.8427 12.5259 74.64 12.6019C74.4627 12.6779 74.26 12.7666 74.032 12.8679C73.804 12.9439 73.576 13.0199 73.348 13.0959C73.1453 13.1719 72.968 13.2353 72.816 13.2859C72.056 13.5139 71.258 13.7546 70.422 14.0079C69.6113 14.2359 68.9147 14.3499 68.332 14.3499C67.6227 14.3499 67.1793 14.1853 67.002 13.8559C66.8247 13.5013 66.736 13.0706 66.736 12.5639ZM64.266 19.4799C64.266 19.2773 64.342 19.1126 64.494 18.9859C64.646 18.8339 64.7727 18.7326 64.874 18.6819C66.622 17.9473 68.484 17.4659 70.46 17.2379C72.4613 16.9846 74.45 16.8579 76.426 16.8579H78.44C79.276 16.8579 80.0107 16.8959 80.644 16.9719C81.3027 17.0479 81.8727 17.1493 82.354 17.2759C82.7847 17.3773 83.1773 17.5419 83.532 17.7699C83.912 17.9726 84.0133 18.2893 83.836 18.7199C83.7853 18.8213 83.6967 18.8846 83.57 18.9099C83.4687 18.9099 83.3547 18.9099 83.228 18.9099C82.924 18.9099 82.468 18.8846 81.86 18.8339C81.2773 18.7579 80.7327 18.6946 80.226 18.6439C79.4913 18.5679 78.7693 18.5299 78.06 18.5299C77.3253 18.5299 76.5273 18.5553 75.666 18.6059C74.8047 18.6313 73.9307 18.6946 73.044 18.7959C72.1573 18.8719 71.296 18.9859 70.46 19.1379C69.624 19.2646 68.864 19.4293 68.18 19.6319C67.7747 19.7586 67.2933 19.9613 66.736 20.2399C66.1787 20.4933 65.7227 20.6453 65.368 20.6959C64.9627 20.7466 64.6713 20.6326 64.494 20.3539C64.342 20.0753 64.266 19.7839 64.266 19.4799ZM109.997 27.6879C109.997 26.8773 110.01 26.1173 110.035 25.4079C110.061 24.6986 110.124 23.9513 110.225 23.1659C110.276 23.0393 110.365 22.9126 110.491 22.7859C110.618 22.6593 110.77 22.5833 110.947 22.5579C111.15 22.5326 111.327 22.5453 111.479 22.5959C111.657 22.6213 111.834 22.6973 112.011 22.8239C112.138 22.9253 112.201 23.0773 112.201 23.2799C112.201 23.4826 112.214 23.6093 112.239 23.6599C112.189 24.3439 112.138 24.9646 112.087 25.5219C112.062 26.0793 112.049 26.6873 112.049 27.3459C112.049 27.9033 112.049 28.3593 112.049 28.7139C112.049 29.0433 112.075 29.4866 112.125 30.0439C112.531 29.6893 112.898 29.4106 113.227 29.2079C113.582 28.9799 113.924 28.7773 114.253 28.5999C114.608 28.4226 114.975 28.2706 115.355 28.1439C115.735 27.9919 116.153 27.8146 116.609 27.6119H116.685C116.812 26.8519 116.926 26.1299 117.027 25.4459C117.154 24.7366 117.243 24.1919 117.293 23.8119C117.344 23.6853 117.433 23.5713 117.559 23.4699C117.686 23.3433 117.863 23.2673 118.091 23.2419C118.851 23.1659 119.244 23.4193 119.269 24.0019C119.295 24.2046 119.295 24.3946 119.269 24.5719C119.244 24.7493 119.206 24.9773 119.155 25.2559C119.029 26.2186 118.851 27.2826 118.623 28.4479C118.421 29.5879 118.205 30.7153 117.977 31.8299C117.952 31.8806 117.914 32.0073 117.863 32.2099C117.838 32.4126 117.787 32.6279 117.711 32.8559C117.661 33.0839 117.61 33.2993 117.559 33.5019C117.509 33.7299 117.471 33.8946 117.445 33.9959C117.319 34.4266 117.116 34.8699 116.837 35.3259C116.584 35.7819 116.128 36.1239 115.469 36.3519C115.292 36.4279 115.051 36.4406 114.747 36.3899C114.443 36.3393 114.152 36.2506 113.873 36.1239C113.62 36.0226 113.417 35.8833 113.265 35.7059C113.113 35.5539 113.101 35.3766 113.227 35.1739C113.303 35.0979 113.455 35.0979 113.683 35.1739C113.937 35.2753 114.152 35.3006 114.329 35.2499C114.735 35.1233 115.026 34.8699 115.203 34.4899C115.406 34.1353 115.533 33.8566 115.583 33.6539C115.634 33.4006 115.71 33.0839 115.811 32.7039C115.913 32.3239 115.976 32.0073 116.001 31.7539C116.052 31.5513 116.103 31.2599 116.153 30.8799C116.229 30.5253 116.305 30.1073 116.381 29.6259C116.331 29.6766 116.28 29.7146 116.229 29.7399C116.179 29.7399 116.128 29.7526 116.077 29.7779C115.748 29.9806 115.469 30.1579 115.241 30.3099C115.013 30.4619 114.798 30.6013 114.595 30.7279C114.393 30.8799 114.177 31.0319 113.949 31.1839C113.747 31.3613 113.506 31.5639 113.227 31.7919C113.05 31.9439 112.911 32.0706 112.809 32.1719C112.708 32.2986 112.683 32.5139 112.733 32.8179C112.759 33.1473 112.797 33.4639 112.847 33.7679C112.923 34.0719 113.012 34.4266 113.113 34.8319C113.164 35.0853 113.063 35.2626 112.809 35.3639C112.581 35.4653 112.366 35.5286 112.163 35.5539C112.011 35.5539 111.859 35.5033 111.707 35.4019C111.581 35.3259 111.454 35.2119 111.327 35.0599C111.226 34.9079 111.125 34.7559 111.023 34.6039C110.947 34.4519 110.897 34.3126 110.871 34.1859C110.517 33.0966 110.276 32.0199 110.149 30.9559C110.048 29.8919 109.997 28.8026 109.997 27.6879ZM99.6612 26.5099C99.6105 26.0793 99.5852 25.6993 99.5852 25.3699C99.5852 25.0153 99.5852 24.6859 99.5852 24.3819C99.5852 24.0526 99.5979 23.7233 99.6232 23.3939C99.6485 23.0646 99.6739 22.6846 99.6992 22.2539C99.7752 21.3166 99.8639 20.4553 99.9652 19.6699C100.067 18.8846 100.193 18.0106 100.345 17.0479C100.041 17.0986 99.6485 17.2379 99.1672 17.4659C98.7112 17.6686 98.1919 17.9093 97.6092 18.1879C97.4065 18.2893 97.1659 18.4159 96.8872 18.5679C96.6339 18.7199 96.3679 18.8466 96.0892 18.9479C95.9119 18.9986 95.6839 18.9733 95.4052 18.8719C95.1519 18.7453 94.9999 18.4539 94.9492 17.9979C94.8985 17.6686 94.9619 17.4406 95.1392 17.3139C95.2659 17.2126 95.5192 17.0353 95.8992 16.7819C96.3045 16.5033 96.7225 16.2879 97.1532 16.1359C97.5079 16.0093 97.8119 15.9079 98.0652 15.8319C98.3185 15.7306 98.5465 15.6419 98.7492 15.5659C98.9519 15.4899 99.1672 15.4139 99.3952 15.3379C99.6232 15.2619 99.9019 15.1859 100.231 15.1099C101.042 14.9073 101.802 14.7173 102.511 14.5399C103.246 14.3626 104.031 14.2359 104.867 14.1599C105.577 14.0586 106.159 13.9826 106.615 13.9319C107.097 13.8813 107.603 13.8939 108.135 13.9699C108.49 14.0206 108.718 14.1093 108.819 14.2359C108.921 14.3626 108.984 14.5273 109.009 14.7299C109.009 14.8819 108.946 15.0466 108.819 15.2239C108.718 15.3759 108.541 15.4773 108.287 15.5279C107.958 15.5533 107.641 15.5913 107.337 15.6419C107.033 15.6673 106.666 15.7306 106.235 15.8319C106.109 15.8573 105.906 15.8953 105.627 15.9459C105.349 15.9713 105.032 16.0219 104.677 16.0979C104.348 16.1486 103.993 16.2119 103.613 16.2879C103.259 16.3639 102.942 16.4399 102.663 16.5159C102.663 16.5413 102.638 16.6299 102.587 16.7819C102.562 16.9086 102.537 17.0479 102.511 17.1999C102.435 17.5799 102.372 17.9219 102.321 18.2259C102.271 18.5046 102.22 18.7833 102.169 19.0619C102.119 19.3406 102.068 19.6319 102.017 19.9359C101.992 20.2146 101.967 20.5439 101.941 20.9239C101.891 21.3293 101.84 21.7093 101.789 22.0639C101.739 22.4186 101.701 22.8493 101.675 23.3559C101.65 23.8626 101.65 24.5086 101.675 25.2939C101.701 26.0539 101.777 27.0419 101.903 28.2579C101.929 28.5619 101.916 28.8659 101.865 29.1699C101.815 29.4739 101.65 29.6513 101.371 29.7019C101.194 29.7526 100.991 29.7526 100.763 29.7019C100.561 29.6259 100.396 29.4993 100.269 29.3219C100.041 28.9926 99.8892 28.5746 99.8132 28.0679C99.7625 27.5359 99.7119 27.0166 99.6612 26.5099ZM103.309 21.2659C103.309 20.9873 103.474 20.7846 103.803 20.6579C104.158 20.5313 104.475 20.4046 104.753 20.2779C105.64 19.9233 106.375 19.5686 106.957 19.2139C107.54 18.8339 108.173 18.3906 108.857 17.8839C109.567 17.3519 110.225 16.7946 110.833 16.2119C111.441 15.6039 111.961 14.9706 112.391 14.3119C112.619 13.9826 112.809 13.6533 112.961 13.3239C113.139 12.9946 113.278 12.6273 113.379 12.2219C113.405 12.0953 113.443 11.9306 113.493 11.7279C113.544 11.5253 113.607 11.3226 113.683 11.1199C113.759 10.9173 113.848 10.7399 113.949 10.5879C114.051 10.4359 114.177 10.3473 114.329 10.3219C114.659 10.2713 114.988 10.3346 115.317 10.5119C115.672 10.6639 115.849 10.9553 115.849 11.3859C115.849 11.6393 115.799 11.8926 115.697 12.1459C115.596 12.3739 115.507 12.6273 115.431 12.9059C115.355 13.2606 115.254 13.6659 115.127 14.1219C115.001 14.5779 114.899 14.9833 114.823 15.3379C114.773 15.5913 114.722 15.8699 114.671 16.1739C114.621 16.4526 114.595 16.7313 114.595 17.0099C114.57 17.8459 114.57 18.5426 114.595 19.0999C114.646 19.6319 114.697 19.9613 114.747 20.0879C114.798 20.2653 114.836 20.4806 114.861 20.7339C114.912 20.9619 114.925 21.1393 114.899 21.2659C114.874 21.3926 114.747 21.5066 114.519 21.6079C114.317 21.6839 114.076 21.6459 113.797 21.4939C113.367 21.2659 113.075 20.9619 112.923 20.5819C112.797 20.2019 112.695 19.7333 112.619 19.1759C112.594 19.0493 112.569 18.7833 112.543 18.3779C112.543 17.9473 112.556 17.5166 112.581 17.0859C112.303 17.4406 111.961 17.8079 111.555 18.1879C111.175 18.5679 110.732 18.9733 110.225 19.4039C109.871 19.6826 109.465 19.9739 109.009 20.2779C108.553 20.5819 108.072 20.8733 107.565 21.1519C107.084 21.4053 106.59 21.6459 106.083 21.8739C105.577 22.0766 105.108 22.2286 104.677 22.3299C104.171 22.4566 103.803 22.4186 103.575 22.2159C103.373 22.0133 103.284 21.6966 103.309 21.2659ZM99.0152 9.97994C99.0152 9.42261 99.1165 8.86528 99.3192 8.30794C99.5219 7.75061 99.7625 7.24394 100.041 6.78794C100.32 6.30661 100.624 5.87594 100.953 5.49594C101.283 5.09061 101.587 4.77394 101.865 4.54594C102.017 4.41928 102.157 4.35594 102.283 4.35594C102.435 4.35594 102.613 4.31794 102.815 4.24194C102.917 4.19127 103.005 4.14061 103.081 4.08994C103.183 4.01394 103.347 3.97594 103.575 3.97594C104.107 3.97594 104.538 4.24194 104.867 4.77394C105.222 5.28061 105.399 5.82527 105.399 6.40794C105.399 6.99061 105.298 7.58594 105.095 8.19394C104.893 8.77661 104.589 9.32127 104.183 9.82794C103.803 10.3093 103.322 10.7146 102.739 11.0439C102.182 11.3479 101.549 11.5126 100.839 11.5379C100.333 11.5633 99.9019 11.4366 99.5472 11.1579C99.1925 10.8793 99.0152 10.4866 99.0152 9.97994ZM118.395 18.9099C118.395 18.3273 118.421 17.6686 118.471 16.9339C118.522 16.1739 118.585 15.4013 118.661 14.6159C118.737 13.8306 118.813 13.0706 118.889 12.3359C118.991 11.5759 119.092 10.9046 119.193 10.3219C119.193 10.2966 119.206 10.2206 119.231 10.0939C119.282 9.94194 119.32 9.78994 119.345 9.63794C119.371 9.48594 119.396 9.34661 119.421 9.21994C119.472 9.06794 119.497 8.96661 119.497 8.91594C119.624 8.43461 119.725 8.07994 119.801 7.85194C119.903 7.59861 120.181 7.47194 120.637 7.47194C120.967 7.47194 121.22 7.58594 121.397 7.81394C121.6 8.01661 121.676 8.29528 121.625 8.64994C121.625 8.70061 121.6 8.80194 121.549 8.95394C121.524 9.08061 121.499 9.23261 121.473 9.40994C121.448 9.58728 121.41 9.75194 121.359 9.90394C121.334 10.0559 121.321 10.1573 121.321 10.2079C121.119 11.0946 120.941 12.0446 120.789 13.0579C120.764 13.2606 120.726 13.5519 120.675 13.9319C120.65 14.3119 120.625 14.7173 120.599 15.1479C120.574 15.5786 120.549 15.9839 120.523 16.3639C120.498 16.7439 120.473 17.0353 120.447 17.2379C120.397 17.7446 120.359 18.2259 120.333 18.6819C120.333 19.1126 120.257 19.5686 120.105 20.0499C120.029 20.2779 119.915 20.4299 119.763 20.5059C119.611 20.5566 119.434 20.5819 119.231 20.5819C118.801 20.5819 118.547 20.3919 118.471 20.0119C118.421 19.6319 118.395 19.2646 118.395 18.9099ZM103.537 5.68594C103.309 5.81261 103.056 6.02794 102.777 6.33194C102.524 6.63594 102.283 6.97794 102.055 7.35794C101.827 7.73794 101.637 8.14328 101.485 8.57394C101.333 8.97928 101.257 9.35928 101.257 9.71394C101.536 9.71394 101.827 9.61261 102.131 9.40994C102.435 9.20728 102.701 8.94128 102.929 8.61194C103.183 8.28261 103.385 7.92794 103.537 7.54794C103.715 7.14261 103.803 6.76261 103.803 6.40794C103.803 6.15461 103.715 5.91394 103.537 5.68594ZM152.886 21.4179C152.886 20.8353 152.949 20.2146 153.076 19.5559C153.228 18.8973 153.38 18.2766 153.532 17.6939C153.633 17.3139 153.747 16.9846 153.874 16.7059C154.001 16.4019 154.127 16.0346 154.254 15.6039C153.545 15.9333 152.886 16.2753 152.278 16.6299C151.695 16.9846 151.049 17.2886 150.34 17.5419C149.833 17.7193 149.276 17.9093 148.668 18.1119C148.085 18.2893 147.49 18.3653 146.882 18.3399C146.679 18.3399 146.527 18.2386 146.426 18.0359C146.325 17.8333 146.274 17.6179 146.274 17.3899C146.274 17.1619 146.312 16.9466 146.388 16.7439C146.489 16.5413 146.616 16.4273 146.768 16.4019C147.959 16.2499 149.023 15.9839 149.96 15.6039C150.365 15.4519 150.809 15.2873 151.29 15.1099C151.771 14.9073 152.24 14.6919 152.696 14.4639C153.177 14.2106 153.633 13.9319 154.064 13.6279C154.495 13.3239 154.862 12.9819 155.166 12.6019C155.242 12.5259 155.331 12.3739 155.432 12.1459C155.559 11.8926 155.647 11.7026 155.698 11.5759C155.825 11.2973 155.939 11.0566 156.04 10.8539C156.141 10.6513 156.395 10.5499 156.8 10.5499C157.104 10.5499 157.395 10.6386 157.674 10.8159C157.978 10.9679 158.13 11.2213 158.13 11.5759C158.13 11.9559 158.003 12.3359 157.75 12.7159C157.522 13.0706 157.307 13.4126 157.104 13.7419C156.825 14.1726 156.623 14.6666 156.496 15.2239C156.395 15.7559 156.255 16.2373 156.078 16.6679C155.723 17.5799 155.419 18.5553 155.166 19.5939C154.913 20.6073 154.786 21.5953 154.786 22.5579C154.786 23.0646 154.837 23.5586 154.938 24.0399C155.065 24.4959 155.153 24.9773 155.204 25.4839C155.229 25.6106 155.153 25.7246 154.976 25.8259C154.824 25.9273 154.685 25.9779 154.558 25.9779C154.102 25.9779 153.747 25.7753 153.494 25.3699C153.266 24.9393 153.127 24.5339 153.076 24.1539C153.025 23.7486 152.975 23.3179 152.924 22.8619C152.899 22.4059 152.886 21.9246 152.886 21.4179ZM140.118 24.4579C140.118 23.8753 140.169 23.3306 140.27 22.8239C140.397 22.2919 140.561 21.6839 140.764 20.9999C140.789 20.9493 140.84 20.7846 140.916 20.5059C141.017 20.2019 141.093 19.9866 141.144 19.8599C141.245 19.6066 141.397 19.1759 141.6 18.5679C141.828 17.9599 142.069 17.3393 142.322 16.7059C142.601 16.0473 142.867 15.4646 143.12 14.9579C143.399 14.4513 143.639 14.1599 143.842 14.0839C143.867 14.0586 143.905 14.0333 143.956 14.0079C144.007 13.9826 144.045 13.9699 144.07 13.9699C144.121 13.9699 144.171 13.9573 144.222 13.9319C144.577 13.8559 144.855 13.8939 145.058 14.0459C145.261 14.1979 145.362 14.4133 145.362 14.6919C145.362 14.9706 145.235 15.3126 144.982 15.7179C144.729 16.0979 144.513 16.4779 144.336 16.8579C144.133 17.3139 143.905 17.8333 143.652 18.4159C143.424 18.9733 143.221 19.4799 143.044 19.9359C142.841 20.5186 142.626 21.1519 142.398 21.8359C142.195 22.4946 142.094 23.0899 142.094 23.6219C142.271 23.4953 142.537 23.3433 142.892 23.1659C143.247 22.9633 143.614 22.7859 143.994 22.6339C144.399 22.4566 144.779 22.3046 145.134 22.1779C145.489 22.0513 145.78 21.9879 146.008 21.9879C146.135 21.9879 146.236 22.0766 146.312 22.2539C146.388 22.4313 146.426 22.5706 146.426 22.6719C146.426 22.8746 146.363 23.0519 146.236 23.2039C146.135 23.3306 145.945 23.4953 145.666 23.6979C145.463 23.8499 145.21 24.0273 144.906 24.2299C144.602 24.4073 144.285 24.5973 143.956 24.7999C143.627 24.9773 143.31 25.1673 143.006 25.3699C142.702 25.5473 142.461 25.7119 142.284 25.8639C142.132 25.9906 141.993 26.1046 141.866 26.2059C141.739 26.3073 141.537 26.3579 141.258 26.3579C141.005 26.3579 140.802 26.2946 140.65 26.1679C140.498 26.0413 140.384 25.8893 140.308 25.7119C140.232 25.5093 140.181 25.3066 140.156 25.1039C140.131 24.8759 140.118 24.6606 140.118 24.4579ZM136.964 18.4539C136.964 17.7446 137.015 17.0479 137.116 16.3639C137.243 15.6546 137.395 14.9453 137.572 14.2359C137.648 13.9826 137.737 13.7039 137.838 13.3999C137.965 13.0959 138.104 12.8173 138.256 12.5639C138.408 12.3106 138.573 12.1079 138.75 11.9559C138.953 11.7786 139.168 11.6899 139.396 11.6899C139.675 11.6899 139.89 11.7786 140.042 11.9559C140.194 12.1079 140.27 12.3233 140.27 12.6019C140.27 12.9819 140.181 13.3113 140.004 13.5899C139.852 13.8686 139.725 14.1726 139.624 14.5019C139.396 15.2366 139.206 15.9713 139.054 16.7059C138.927 17.4406 138.864 18.1879 138.864 18.9479C138.864 19.4039 138.889 19.8599 138.94 20.3159C139.016 20.7466 139.079 21.1899 139.13 21.6459C139.155 21.8486 139.054 21.9879 138.826 22.0639C138.598 22.1399 138.395 22.1779 138.218 22.1779C137.914 22.1779 137.673 22.0386 137.496 21.7599C137.344 21.4559 137.217 21.1013 137.116 20.6959C137.04 20.2906 136.989 19.8853 136.964 19.4799C136.964 19.0493 136.964 18.7073 136.964 18.4539ZM134 10.4359C134.051 10.2333 134.165 10.0686 134.342 9.94194C134.519 9.78994 134.709 9.65061 134.912 9.52394C136.153 8.78928 137.749 8.20661 139.7 7.77594C141.676 7.31994 143.817 7.14261 146.122 7.24394C146.477 7.26927 146.831 7.37061 147.186 7.54794C147.541 7.69994 147.705 7.94061 147.68 8.26994C147.655 8.47261 147.579 8.64994 147.452 8.80194C147.351 8.95394 147.085 9.02994 146.654 9.02994C145.311 9.02994 143.994 9.11861 142.702 9.29594C141.41 9.44794 140.08 9.70128 138.712 10.0559C138.332 10.1573 137.927 10.3219 137.496 10.5499C137.065 10.7779 136.622 10.9933 136.166 11.1959C136.039 11.2466 135.811 11.3479 135.482 11.4999C135.153 11.6519 134.874 11.7153 134.646 11.6899C134.342 11.6646 134.139 11.5253 134.038 11.2719C133.937 10.9933 133.924 10.7146 134 10.4359ZM161.125 17.0859C161.125 16.9339 161.163 16.7819 161.239 16.6299C161.315 16.4526 161.416 16.3259 161.543 16.2499C161.72 16.1739 162.05 16.0599 162.531 15.9079C163.038 15.7306 163.57 15.5659 164.127 15.4139C164.684 15.2619 165.216 15.1226 165.723 14.9959C166.23 14.8439 166.572 14.7426 166.749 14.6919C167.357 14.5399 168.016 14.4133 168.725 14.3119C169.434 14.1853 170.156 14.0839 170.891 14.0079C171.626 13.9066 172.348 13.8433 173.057 13.8179C173.766 13.7673 174.438 13.7419 175.071 13.7419C175.4 13.7419 175.742 13.7673 176.097 13.8179C176.477 13.8433 176.756 13.9066 176.933 14.0079C177.06 14.0586 177.148 14.1219 177.199 14.1979C177.25 14.2739 177.275 14.3373 177.275 14.3879C177.326 14.5906 177.313 14.7679 177.237 14.9199C177.161 15.0466 177.06 15.1353 176.933 15.1859C176.452 15.3126 175.996 15.4013 175.565 15.4519C175.16 15.4773 174.666 15.5153 174.083 15.5659C173.728 15.5913 173.31 15.6166 172.829 15.6419C172.373 15.6673 171.892 15.7053 171.385 15.7559C170.904 15.8066 170.422 15.8699 169.941 15.9459C169.485 16.0219 169.067 16.1106 168.687 16.2119C168.459 16.2879 168.066 16.4019 167.509 16.5539C166.952 16.7059 166.369 16.8833 165.761 17.0859C165.153 17.2633 164.57 17.4406 164.013 17.6179C163.456 17.7953 163.05 17.9346 162.797 18.0359C162.493 18.1879 162.24 18.2639 162.037 18.2639C161.733 18.2639 161.505 18.1246 161.353 17.8459C161.201 17.5673 161.125 17.3139 161.125 17.0859ZM164.469 5.26794C164.418 4.60928 164.38 3.95061 164.355 3.29194C164.355 2.60794 164.393 1.91128 164.469 1.20194C164.52 0.720608 164.836 0.479941 165.419 0.479941C166.154 0.479941 166.496 0.771274 166.445 1.35394C166.394 1.86061 166.356 2.36728 166.331 2.87394C166.331 3.38061 166.356 3.92527 166.407 4.50794C166.407 4.58394 166.445 4.64727 166.521 4.69794C166.597 4.74861 166.673 4.77394 166.749 4.77394C167.104 4.74861 167.496 4.67261 167.927 4.54594C168.358 4.39394 168.75 4.24194 169.105 4.08994C169.232 4.03928 169.32 3.93794 169.371 3.78594C169.396 3.70994 169.409 3.64661 169.409 3.59594C169.536 3.24127 169.599 2.87394 169.599 2.49394C169.624 2.08861 169.688 1.69594 169.789 1.31594C169.84 1.16394 169.928 1.02461 170.055 0.897942C170.182 0.771275 170.422 0.707942 170.777 0.707942C171.486 0.707942 171.778 0.999275 171.651 1.58194C171.55 2.08861 171.448 2.59527 171.347 3.10194C171.246 3.58327 171.17 4.11527 171.119 4.69794C171.094 4.90061 171.043 5.28061 170.967 5.83794C170.916 6.39528 170.84 6.99061 170.739 7.62394C170.638 8.23194 170.536 8.81461 170.435 9.37194C170.359 9.92928 170.296 10.3219 170.245 10.5499C170.118 11.0566 169.852 11.4619 169.447 11.7659C169.042 12.0446 168.586 12.1839 168.079 12.1839C167.674 12.1839 167.294 12.0699 166.939 11.8419C166.61 11.5886 166.306 11.2846 166.027 10.9299C165.774 10.5499 165.558 10.1446 165.381 9.71394C165.229 9.28327 165.115 8.87794 165.039 8.49794C164.988 8.14327 164.887 7.68727 164.735 7.12994C164.608 6.54727 164.52 5.92661 164.469 5.26794ZM166.749 7.39594C166.749 7.52261 166.787 7.73794 166.863 8.04194C166.939 8.34594 167.04 8.67527 167.167 9.02994C167.294 9.35928 167.433 9.65061 167.585 9.90394C167.737 10.1573 167.902 10.2839 168.079 10.2839C168.307 10.2839 168.472 10.1826 168.573 9.97994C168.7 9.77728 168.776 9.57461 168.801 9.37194C168.852 9.01727 168.877 8.62461 168.877 8.19394C168.877 7.76328 168.902 7.24394 168.953 6.63594C168.953 6.50927 168.94 6.40794 168.915 6.33194C168.89 6.25594 168.801 6.21794 168.649 6.21794C168.472 6.21794 168.269 6.25594 168.041 6.33194C167.813 6.38261 167.598 6.47127 167.395 6.59794C167.218 6.69927 167.066 6.82594 166.939 6.97794C166.812 7.10461 166.749 7.24394 166.749 7.39594ZM166.483 36.0099C166.508 35.6046 166.66 35.1739 166.939 34.7179C167.218 34.2619 167.534 33.8313 167.889 33.4259C168.269 33.0206 168.636 32.6533 168.991 32.3239C169.346 31.9946 169.599 31.7413 169.751 31.5639C169.852 31.4626 170.03 31.2726 170.283 30.9939C170.562 30.7153 170.84 30.4113 171.119 30.0819C171.423 29.7779 171.714 29.4739 171.993 29.1699C172.297 28.8659 172.525 28.6379 172.677 28.4859C172.348 28.4606 171.98 28.4606 171.575 28.4859C171.195 28.4859 170.562 28.4859 169.675 28.4859C169.042 28.4859 168.535 28.3086 168.155 27.9539C167.8 27.5993 167.648 27.1686 167.699 26.6619C167.724 26.3326 167.914 25.9399 168.269 25.4839C168.624 25.0279 169.016 24.5719 169.447 24.1159C169.903 23.6599 170.359 23.2293 170.815 22.8239C171.271 22.4186 171.613 22.1019 171.841 21.8739C171.942 21.7726 172.056 21.6586 172.183 21.5319C172.335 21.3799 172.474 21.2406 172.601 21.1139C172.728 20.9873 172.829 20.8859 172.905 20.8099C173.006 20.7086 173.057 20.6453 173.057 20.6199C173.108 20.5439 173.108 20.4679 173.057 20.3919C173.032 20.2906 172.956 20.2526 172.829 20.2779C171.968 20.3793 171.056 20.5439 170.093 20.7719C169.156 20.9746 168.358 21.2406 167.699 21.5699C167.395 21.7219 167.078 21.8739 166.749 22.0259C166.42 22.1526 166.103 22.3173 165.799 22.5199C165.495 22.7226 165.229 22.8999 165.001 23.0519C164.773 23.1786 164.532 23.2419 164.279 23.2419C163.924 23.2419 163.658 23.1406 163.481 22.9379C163.304 22.7099 163.215 22.4693 163.215 22.2159C163.215 21.8866 163.354 21.6079 163.633 21.3799C164.089 20.9999 164.773 20.6199 165.685 20.2399C166.622 19.8599 167.61 19.5306 168.649 19.2519C169.713 18.9479 170.752 18.7073 171.765 18.5299C172.778 18.3526 173.602 18.2639 174.235 18.2639C174.742 18.2639 175.16 18.4159 175.489 18.7199C175.844 18.9986 176.021 19.3533 176.021 19.7839C176.021 20.1133 175.869 20.4806 175.565 20.8859C175.261 21.2659 174.894 21.6586 174.463 22.0639C174.058 22.4693 173.64 22.8619 173.209 23.2419C172.778 23.5966 172.436 23.9006 172.183 24.1539C171.904 24.4073 171.575 24.7239 171.195 25.1039C170.84 25.4839 170.524 25.8513 170.245 26.2059C170.194 26.2819 170.182 26.3579 170.207 26.4339C170.232 26.5099 170.321 26.5479 170.473 26.5479C170.98 26.5479 171.486 26.5479 171.993 26.5479C172.525 26.5479 173.082 26.5606 173.665 26.5859C174.096 26.6113 174.463 26.7253 174.767 26.9279C175.096 27.1306 175.274 27.4093 175.299 27.7639C175.324 28.0426 175.274 28.2706 175.147 28.4479C175.046 28.5999 174.957 28.7393 174.881 28.8659C174.856 28.8913 174.691 29.0686 174.387 29.3979C174.108 29.7019 173.855 29.9806 173.627 30.2339C172.867 31.0446 172.094 31.8679 171.309 32.7039C170.549 33.5399 169.84 34.3759 169.181 35.2119C168.978 35.4653 168.928 35.7313 169.029 36.0099C169.156 36.3139 169.51 36.4406 170.093 36.3899C170.549 36.3646 171.081 36.2886 171.689 36.1619C172.297 36.0606 172.918 35.9339 173.551 35.7819C174.21 35.6553 174.843 35.5159 175.451 35.3639C176.084 35.2373 176.654 35.1106 177.161 34.9839C177.364 34.9333 177.516 34.9459 177.617 35.0219C177.744 35.0979 177.832 35.1613 177.883 35.2119C177.984 35.3386 178.022 35.5286 177.997 35.7819C177.972 36.0606 177.807 36.2759 177.503 36.4279C176.996 36.6813 176.312 36.9219 175.451 37.1499C174.615 37.4033 173.754 37.6186 172.867 37.7959C172.006 37.9733 171.208 38.1126 170.473 38.2139C169.738 38.3406 169.219 38.4039 168.915 38.4039C168.155 38.4039 167.547 38.1886 167.091 37.7579C166.66 37.3273 166.458 36.7446 166.483 36.0099ZM181.578 28.8659C181.578 28.1819 181.73 27.5106 182.034 26.8519C182.338 26.1933 182.629 25.5726 182.908 24.9899C183.009 24.8126 183.174 24.5086 183.402 24.0779C183.63 23.6219 183.871 23.1406 184.124 22.6339C184.403 22.1019 184.656 21.6079 184.884 21.1519C185.112 20.6959 185.264 20.3793 185.34 20.2019C185.467 19.9739 185.581 19.7206 185.682 19.4419C185.783 19.1633 185.834 18.8973 185.834 18.6439C185.834 18.5426 185.821 18.4666 185.796 18.4159C185.796 18.3653 185.745 18.3146 185.644 18.2639C185.467 18.1373 185.226 18.0359 184.922 17.9599C184.618 17.8839 184.251 17.7953 183.82 17.6939C183.035 17.5166 182.515 17.1746 182.262 16.6679C182.034 16.1613 181.92 15.5406 181.92 14.8059C181.92 13.9193 182.097 13.0199 182.452 12.1079C182.832 11.1706 183.199 10.3093 183.554 9.52394C183.757 9.11861 183.947 8.68794 184.124 8.23194C184.327 7.77594 184.491 7.39594 184.618 7.09194C184.694 6.88927 184.745 6.73727 184.77 6.63594C184.795 6.53461 184.808 6.43328 184.808 6.33194C184.808 6.17994 184.719 6.11661 184.542 6.14194C184.365 6.16728 184.213 6.20527 184.086 6.25594C183.605 6.45861 183.199 6.71194 182.87 7.01594C182.541 7.31994 182.199 7.67461 181.844 8.07994C181.717 8.25727 181.553 8.42194 181.35 8.57394C181.147 8.72594 180.919 8.72594 180.666 8.57394C180.463 8.44728 180.311 8.32061 180.21 8.19394C180.134 8.04194 180.096 7.83928 180.096 7.58594C180.096 7.35794 180.185 7.14261 180.362 6.93994C180.539 6.71194 180.704 6.49661 180.856 6.29394C181.008 6.09128 181.135 5.95194 181.236 5.87594C181.363 5.79994 181.502 5.69861 181.654 5.57194C182.034 5.26794 182.503 4.98928 183.06 4.73594C183.643 4.45727 184.263 4.31794 184.922 4.31794C186.189 4.31794 186.822 4.92594 186.822 6.14194C186.822 6.34461 186.784 6.58527 186.708 6.86394C186.657 7.14261 186.607 7.38327 186.556 7.58594C186.429 7.94061 186.265 8.34594 186.062 8.80194C185.859 9.23261 185.669 9.63794 185.492 10.0179C185.137 10.8033 184.783 11.5759 184.428 12.3359C184.073 13.0706 183.896 13.8813 183.896 14.7679C183.896 15.0466 183.959 15.2746 184.086 15.4519C184.213 15.6039 184.365 15.7306 184.542 15.8319C184.745 15.9333 184.973 16.0219 185.226 16.0979C185.479 16.1486 185.745 16.2119 186.024 16.2879C186.505 16.4146 186.949 16.6426 187.354 16.9719C187.785 17.3013 188 17.7319 188 18.2639C188 18.9226 187.861 19.5559 187.582 20.1639C187.329 20.7719 187.063 21.3673 186.784 21.9499C186.505 22.5326 186.189 23.1026 185.834 23.6599C185.479 24.2173 185.15 24.7873 184.846 25.3699C184.669 25.7246 184.479 26.0919 184.276 26.4719C184.099 26.8266 183.947 27.2066 183.82 27.6119C183.693 28.0679 183.63 28.4606 183.63 28.7899C183.63 28.9926 183.719 29.0939 183.896 29.0939C184.099 29.0939 184.263 29.0686 184.39 29.0179C184.517 28.9673 184.694 28.8786 184.922 28.7519C185.175 28.6253 185.429 28.4859 185.682 28.3339C185.935 28.1819 186.163 28.0426 186.366 27.9159C186.594 27.7639 186.746 27.6626 186.822 27.6119C187.177 27.3839 187.582 27.1686 188.038 26.9659C188.494 26.7633 188.899 26.6239 189.254 26.5479C189.381 26.5226 189.495 26.5606 189.596 26.6619C189.723 26.7633 189.811 26.8899 189.862 27.0419C189.913 27.1939 189.925 27.3586 189.9 27.5359C189.875 27.6879 189.786 27.8146 189.634 27.9159C189.431 28.0426 189.178 28.1946 188.874 28.3719C188.595 28.5493 188.329 28.7266 188.076 28.9039C187.797 29.1066 187.506 29.2966 187.202 29.4739C186.923 29.6513 186.569 29.8793 186.138 30.1579C186.113 30.1833 186.037 30.2339 185.91 30.3099C185.783 30.3859 185.631 30.4619 185.454 30.5379C185.277 30.6393 185.099 30.7279 184.922 30.8039C184.77 30.9053 184.656 30.9686 184.58 30.9939C184.529 31.0193 184.377 31.0573 184.124 31.1079C183.871 31.1839 183.605 31.2219 183.326 31.2219C182.845 31.2219 182.465 31.1333 182.186 30.9559C181.933 30.7786 181.755 30.4366 181.654 29.9299C181.603 29.7779 181.578 29.6006 181.578 29.3979C181.578 29.1699 181.578 28.9926 181.578 28.8659ZM195.79 19.9359C195.79 18.6186 195.866 17.3519 196.018 16.1359C196.17 14.8946 196.423 13.6659 196.778 12.4499C196.879 12.1713 196.981 11.8799 197.082 11.5759C197.183 11.2466 197.373 11.0819 197.652 11.0819H198.336C198.615 11.1326 198.805 11.2719 198.906 11.4999C199.007 11.7026 199.045 11.9306 199.02 12.1839C199.02 12.2346 199.007 12.3106 198.982 12.4119C198.957 12.5133 198.931 12.5893 198.906 12.6399C198.627 13.7799 198.361 15.0339 198.108 16.4019C197.88 17.7699 197.766 19.1126 197.766 20.4299C197.766 20.8099 197.779 21.1899 197.804 21.5699C197.829 21.9499 197.842 22.3426 197.842 22.7479V23.5079C197.842 23.5586 197.728 23.5966 197.5 23.6219C197.272 23.6219 197.133 23.6219 197.082 23.6219C196.829 23.6219 196.626 23.4953 196.474 23.2419C196.322 22.9886 196.221 22.7606 196.17 22.5579C196.043 22.0513 195.955 21.6079 195.904 21.2279C195.879 20.8479 195.841 20.4173 195.79 19.9359ZM205.021 18.4919C204.945 18.6186 204.831 18.8213 204.679 19.0999C204.552 19.3786 204.4 19.6826 204.223 20.0119C204.071 20.3159 203.919 20.6326 203.767 20.9619C203.615 21.2659 203.501 21.5066 203.425 21.6839C203.222 22.0893 203.007 22.3679 202.779 22.5199C202.576 22.6719 202.335 22.7479 202.057 22.7479C201.854 22.7479 201.664 22.7099 201.487 22.6339C201.309 22.5326 201.221 22.2413 201.221 21.7599C201.221 21.5573 201.297 21.2659 201.449 20.8859C201.626 20.5059 201.816 20.1133 202.019 19.7079C202.221 19.2773 202.424 18.8719 202.627 18.4919C202.855 18.1119 203.019 17.8206 203.121 17.6179C203.45 17.0099 203.855 16.3639 204.337 15.6799C204.818 14.9959 205.312 14.3119 205.819 13.6279C206.351 12.9439 206.87 12.2853 207.377 11.6519C207.909 10.9933 208.39 10.3979 208.821 9.86594C208.973 9.63794 209.175 9.48594 209.429 9.40994C209.707 9.33394 209.923 9.29594 210.075 9.29594C210.328 9.29594 210.569 9.38461 210.797 9.56194C211.025 9.73928 211.139 9.96728 211.139 10.2459C211.139 10.6259 210.999 10.9299 210.721 11.1579C210.645 11.2339 210.518 11.3606 210.341 11.5379C210.189 11.7153 210.011 11.9053 209.809 12.1079C209.631 12.3106 209.454 12.5006 209.277 12.6779C209.125 12.8553 209.023 12.9693 208.973 13.0199C208.618 13.4506 208.225 13.9826 207.795 14.6159C207.364 15.2239 207.035 15.7686 206.807 16.2499C206.883 16.8326 207.022 17.4659 207.225 18.1499C207.453 18.8086 207.668 19.3913 207.871 19.8979C207.997 20.2273 208.162 20.6073 208.365 21.0379C208.567 21.4433 208.77 21.8613 208.973 22.2919C209.201 22.6973 209.416 23.1153 209.619 23.5459C209.847 23.9513 210.024 24.3186 210.151 24.6479C210.252 24.9266 210.29 25.1546 210.265 25.3319C210.265 25.5093 210.176 25.6866 209.999 25.8639C209.897 25.9653 209.771 26.0286 209.619 26.0539C209.492 26.0539 209.378 26.0413 209.277 26.0159C209.049 25.9653 208.757 25.6993 208.403 25.2179C208.048 24.7113 207.681 24.1413 207.301 23.5079C206.946 22.8493 206.604 22.1779 206.275 21.4939C205.945 20.8099 205.692 20.2399 205.515 19.7839C205.388 19.4546 205.287 19.2139 205.211 19.0619C205.16 18.9099 205.097 18.7199 205.021 18.4919ZM221.931 25.4079C221.677 24.8253 221.525 24.2553 221.475 23.6979C221.449 23.1153 221.437 22.5073 221.437 21.8739C221.437 21.4939 221.437 20.9873 221.437 20.3539C221.462 19.6953 221.513 19.1633 221.589 18.7579C221.639 18.4286 221.69 18.1373 221.741 17.8839C221.791 17.6306 221.842 17.3013 221.893 16.8959C221.665 17.0986 221.424 17.3139 221.171 17.5419C220.943 17.7699 220.664 18.0233 220.335 18.3019C219.853 18.6819 219.397 19.0366 218.967 19.3659C218.561 19.6699 218.131 19.9613 217.675 20.2399C217.244 20.5186 216.775 20.7973 216.269 21.0759C215.787 21.3293 215.243 21.5826 214.635 21.8359C214.28 21.9879 213.837 22.1526 213.305 22.3299C212.773 22.4819 212.253 22.5199 211.747 22.4439C211.468 22.3933 211.24 22.2286 211.063 21.9499C210.885 21.6713 210.847 21.3673 210.949 21.0379C210.974 20.9873 211.012 20.9239 211.063 20.8479C211.113 20.7466 211.24 20.6706 211.443 20.6199C212.025 20.4933 212.557 20.3539 213.039 20.2019C213.52 20.0499 213.976 19.8726 214.407 19.6699C214.863 19.4673 215.306 19.2393 215.737 18.9859C216.193 18.7326 216.674 18.4539 217.181 18.1499C217.535 17.9219 217.89 17.6939 218.245 17.4659C218.599 17.2126 218.941 16.9466 219.271 16.6679C220.005 16.0853 220.677 15.4646 221.285 14.8059C221.893 14.1219 222.45 13.3493 222.957 12.4879C223.083 12.2346 223.197 11.9179 223.299 11.5379C223.4 11.1326 223.489 10.7906 223.565 10.5119C223.59 10.4106 223.653 10.3219 223.755 10.2459C223.856 10.1699 223.97 10.1319 224.097 10.1319C224.654 10.1319 225.021 10.2713 225.199 10.5499C225.401 10.8033 225.477 11.1073 225.427 11.4619C225.376 11.7153 225.325 11.9686 225.275 12.2219C225.249 12.4753 225.199 12.7413 225.123 13.0199C225.021 13.3493 224.895 13.6786 224.743 14.0079C224.616 14.3373 224.502 14.6666 224.401 14.9959C224.249 15.5026 224.122 16.0093 224.021 16.5159C223.945 17.0226 223.843 17.5546 223.717 18.1119C223.666 18.3146 223.603 18.5933 223.527 18.9479C223.476 19.3026 223.451 19.5813 223.451 19.7839C223.4 20.6199 223.362 21.5446 223.337 22.5579C223.311 23.5713 223.235 24.4833 223.109 25.2939C223.083 25.4206 223.007 25.5219 222.881 25.5979C222.779 25.6739 222.665 25.7119 222.539 25.7119C222.412 25.7119 222.285 25.6993 222.159 25.6739C222.057 25.6233 221.981 25.5346 221.931 25.4079ZM211.709 16.3259C211.354 15.9713 211.253 15.6419 211.405 15.3379C211.506 15.0846 211.721 14.8313 212.051 14.5779C212.38 14.2993 212.747 14.0333 213.153 13.7799C213.558 13.5266 213.951 13.3113 214.331 13.1339C214.736 12.9313 215.065 12.7793 215.319 12.6779C215.825 12.4753 216.281 12.3233 216.687 12.2219C217.117 12.0953 217.599 12.0066 218.131 11.9559C218.46 11.9306 218.675 11.9686 218.777 12.0699C218.878 12.1713 218.941 12.2473 218.967 12.2979C219.043 12.6526 218.967 12.9313 218.739 13.1339C218.511 13.3113 218.194 13.4759 217.789 13.6279C217.206 13.8306 216.623 14.0586 216.041 14.3119C215.458 14.5399 214.901 14.8313 214.369 15.1859C214.217 15.2873 214.052 15.4139 213.875 15.5659C213.723 15.7179 213.558 15.8699 213.381 16.0219C213.203 16.1739 213.026 16.3006 212.849 16.4019C212.671 16.5033 212.494 16.5539 212.317 16.5539C212.139 16.5539 212 16.5286 211.899 16.4779C211.823 16.4273 211.759 16.3766 211.709 16.3259Z" fill="#ED6A00"/>
</svg>
